M48
;DRILL file {KiCad 5.0.1-33cea8e~68~ubuntu16.04.1} date Sat 06 Apr 2019 14:10:25 EDT
;FORMAT={3:3/ absolute / metric / suppress leading zeros}
FMAT,2
METRIC,TZ
T1C0.350
T2C0.650
T3C0.700
T4C1.000
%
G90
G05
M71
T1
X108429Y-40720
X122579Y-61270
X123579Y-60770
X124279Y-73420
X124524Y-84875
X124929Y-75220
X125179Y-65670
X125679Y-74670
X125989Y-68220
X126429Y-66770
X126429Y-68720
X126544Y-74895
X126579Y-58420
X126579Y-61270
X126779Y-62370
X126929Y-37470
X126929Y-67170
X127064Y-84875
X127429Y-67570
X127679Y-61170
X127729Y-69170
X128334Y-84855
X129584Y-77395
X129679Y-28720
X130052Y-51470
X130834Y-72395
X131334Y-72895
X131584Y-73882
X132279Y-76420
X132429Y-28720
X133049Y-53040
X133049Y-53040
X133179Y-51270
X133464Y-53394
X134179Y-38520
X134679Y-52770
X135429Y-47520
X135679Y-72710
X135879Y-53520
X136279Y-72070
X136679Y-72420
X137059Y-79125
X137379Y-74110
X137479Y-72610
X137929Y-35020
X138679Y-52770
X139079Y-74110
X139179Y-40020
X139679Y-52770
X141179Y-52170
X141679Y-51170
X142299Y-40640
X142694Y-71920
X143029Y-51595
X143529Y-52345
X143559Y-73950
X144579Y-70220
X145929Y-55020
X146067Y-63570
X146867Y-58770
X148267Y-60770
X149579Y-92110
X150089Y-61170
X150179Y-89710
X150279Y-81845
X150279Y-82495
X150279Y-83145
X150279Y-83795
X150279Y-84445
X150279Y-85095
X155954Y-90110
X156654Y-40690
X156669Y-88590
X158854Y-40690
X161867Y-75970
X162329Y-73670
X163079Y-75670
X163467Y-72770
X165579Y-27890
T2
X131409Y-40710
X131409Y-41980
X131409Y-43250
X131409Y-44520
X131409Y-45790
X132679Y-40710
X132679Y-41980
X132679Y-43250
X132679Y-44520
X132679Y-45790
T4
X143179Y-99710
X143179Y-102250
X111089Y-66090
X113629Y-66090
X151969Y-52000
X154509Y-52000
X143179Y-92210
X143179Y-94750
X117839Y-84840
X120379Y-84840
X151929Y-56920
X154469Y-56920
X159429Y-64920
X161969Y-64920
X169279Y-46670
X171819Y-46670
X161854Y-87090
X164394Y-87090
X117839Y-59340
X120379Y-59340
X117829Y-46230
X117829Y-48770
X117839Y-72090
X120379Y-72090
X134429Y-92210
X134429Y-94750
X134429Y-99710
X134429Y-102250
X152579Y-99710
X152579Y-102250
X147179Y-99710
X147179Y-102250
X113629Y-90840
X113629Y-93380
X135429Y-78270
X135429Y-80810
X135429Y-83350
X138429Y-99710
X138429Y-102250
X168919Y-83090
X171459Y-83090
X156779Y-99710
X156779Y-102250
X118129Y-90840
X118129Y-93380
X126429Y-92250
X126429Y-94790
X118129Y-98340
X118129Y-100880
X144779Y-78710
X144779Y-81250
X144779Y-83790
X144779Y-86330
X117839Y-63590
X120379Y-63590
X166929Y-64920
X169469Y-64920
X138429Y-92210
X138429Y-94750
X151929Y-60920
X154469Y-60920
X117839Y-76340
X120379Y-76340
X159429Y-48000
X161969Y-48000
X152579Y-92210
X152579Y-94750
X147179Y-92210
X147179Y-94750
X117839Y-80590
X120379Y-80590
X151929Y-68920
X154469Y-68920
X168929Y-71020
X171469Y-71020
X168929Y-74970
X171469Y-74970
X166929Y-60920
X169469Y-60920
X111089Y-70340
X113629Y-70340
X117839Y-67840
X120379Y-67840
X130429Y-99750
X130429Y-102290
X156889Y-43250
X159429Y-43250
X161969Y-43250
X159469Y-52000
X162009Y-52000
X168919Y-91090
X171459Y-91090
X168929Y-87090
X171469Y-87090
X111089Y-74590
X113629Y-74590
X159429Y-68920
X161969Y-68920
X111089Y-57590
X113629Y-57590
X161879Y-79090
X164419Y-79090
X156679Y-92210
X156679Y-94750
X111089Y-61840
X113629Y-61840
X117839Y-55090
X120379Y-55090
X113629Y-98340
X113629Y-100880
X151969Y-48000
X154509Y-48000
X168919Y-79090
X171459Y-79090
X131429Y-78270
X131429Y-80810
X131429Y-83350
X113829Y-46230
X113829Y-48770
X127079Y-43480
X127079Y-46020
X123079Y-43480
X123079Y-46020
X159429Y-60920
X161969Y-60920
X111089Y-83090
X113629Y-83090
X111089Y-78840
X113629Y-78840
X159429Y-56920
X161969Y-56920
X161879Y-83090
X164419Y-83090
X130429Y-92250
X130429Y-94790
X151929Y-64920
X154469Y-64920
X112439Y-28770
X114979Y-28770
T2
X169359Y-51790G85X168959Y-51790
G05
X169359Y-56630G85X168959Y-56630
G05
T3
X172409Y-51480G85X171909Y-51480
G05
X172409Y-56940G85X171909Y-56940
G05
T0
M30
