G04 #@! TF.GenerationSoftware,KiCad,Pcbnew,5.0.1-33cea8e~68~ubuntu16.04.1*
G04 #@! TF.CreationDate,2019-04-09T16:49:47-04:00*
G04 #@! TF.ProjectId,electrosprawl,656C656374726F73707261776C2E6B69,rev?*
G04 #@! TF.SameCoordinates,Original*
G04 #@! TF.FileFunction,Legend,Top*
G04 #@! TF.FilePolarity,Positive*
%FSLAX46Y46*%
G04 Gerber Fmt 4.6, Leading zero omitted, Abs format (unit mm)*
G04 Created by KiCad (PCBNEW 5.0.1-33cea8e~68~ubuntu16.04.1) date Tue 09 Apr 2019 16:49:47 EDT*
%MOMM*%
%LPD*%
G01*
G04 APERTURE LIST*
%ADD10C,0.200000*%
%ADD11C,0.125000*%
%ADD12C,0.120000*%
%ADD13C,0.150000*%
G04 APERTURE END LIST*
D10*
X169461968Y-39928778D02*
G75*
G03X169461968Y-39928778I-254000J0D01*
G01*
X169461968Y-35864778D02*
G75*
G03X169461968Y-35864778I-254000J0D01*
G01*
X169835890Y-37134778D02*
G75*
G03X169835890Y-37134778I-567961J0D01*
G01*
X169835890Y-38658778D02*
G75*
G03X169835890Y-38658778I-567961J0D01*
G01*
D11*
X170955624Y-39103111D02*
X170955624Y-39007873D01*
X170979434Y-38960254D01*
X171027053Y-38912635D01*
X171122291Y-38888825D01*
X171288957Y-38888825D01*
X171384195Y-38912635D01*
X171431814Y-38960254D01*
X171455624Y-39007873D01*
X171455624Y-39103111D01*
X171431814Y-39150730D01*
X171384195Y-39198349D01*
X171288957Y-39222158D01*
X171122291Y-39222158D01*
X171027053Y-39198349D01*
X170979434Y-39150730D01*
X170955624Y-39103111D01*
X171431814Y-38698349D02*
X171455624Y-38626920D01*
X171455624Y-38507873D01*
X171431814Y-38460254D01*
X171408005Y-38436444D01*
X171360386Y-38412635D01*
X171312767Y-38412635D01*
X171265148Y-38436444D01*
X171241338Y-38460254D01*
X171217529Y-38507873D01*
X171193719Y-38603111D01*
X171169910Y-38650730D01*
X171146100Y-38674539D01*
X171098481Y-38698349D01*
X171050862Y-38698349D01*
X171003243Y-38674539D01*
X170979434Y-38650730D01*
X170955624Y-38603111D01*
X170955624Y-38484063D01*
X170979434Y-38412635D01*
X171455624Y-38198349D02*
X170955624Y-38198349D01*
X171193719Y-38198349D02*
X171193719Y-37912635D01*
X171455624Y-37912635D02*
X170955624Y-37912635D01*
X170955624Y-37722158D02*
X171455624Y-37603111D01*
X171098481Y-37507873D01*
X171455624Y-37412635D01*
X170955624Y-37293587D01*
X167086576Y-40984063D02*
X167158005Y-40769778D01*
X167158005Y-40412635D01*
X167086576Y-40269778D01*
X167015148Y-40198349D01*
X166872291Y-40126920D01*
X166729434Y-40126920D01*
X166586576Y-40198349D01*
X166515148Y-40269778D01*
X166443719Y-40412635D01*
X166372291Y-40698349D01*
X166300862Y-40841206D01*
X166229434Y-40912635D01*
X166086576Y-40984063D01*
X165943719Y-40984063D01*
X165800862Y-40912635D01*
X165729434Y-40841206D01*
X165658005Y-40698349D01*
X165658005Y-40341206D01*
X165729434Y-40126920D01*
X166158005Y-39484063D02*
X167658005Y-39484063D01*
X166229434Y-39484063D02*
X166158005Y-39341206D01*
X166158005Y-39055492D01*
X166229434Y-38912635D01*
X166300862Y-38841206D01*
X166443719Y-38769778D01*
X166872291Y-38769778D01*
X167015148Y-38841206D01*
X167086576Y-38912635D01*
X167158005Y-39055492D01*
X167158005Y-39341206D01*
X167086576Y-39484063D01*
X167158005Y-38126920D02*
X166158005Y-38126920D01*
X165658005Y-38126920D02*
X165729434Y-38198349D01*
X165800862Y-38126920D01*
X165729434Y-38055492D01*
X165658005Y-38126920D01*
X165800862Y-38126920D01*
X167158005Y-36769778D02*
X165658005Y-36769778D01*
X167086576Y-36769778D02*
X167158005Y-36912635D01*
X167158005Y-37198349D01*
X167086576Y-37341206D01*
X167015148Y-37412635D01*
X166872291Y-37484063D01*
X166443719Y-37484063D01*
X166300862Y-37412635D01*
X166229434Y-37341206D01*
X166158005Y-37198349D01*
X166158005Y-36912635D01*
X166229434Y-36769778D01*
X167086576Y-35484063D02*
X167158005Y-35626920D01*
X167158005Y-35912635D01*
X167086576Y-36055492D01*
X166943719Y-36126920D01*
X166372291Y-36126920D01*
X166229434Y-36055492D01*
X166158005Y-35912635D01*
X166158005Y-35626920D01*
X166229434Y-35484063D01*
X166372291Y-35412635D01*
X166515148Y-35412635D01*
X166658005Y-36126920D01*
X167158005Y-34769778D02*
X166158005Y-34769778D01*
X166443719Y-34769778D02*
X166300862Y-34698349D01*
X166229434Y-34626920D01*
X166158005Y-34484063D01*
X166158005Y-34341206D01*
X167158005Y-33841206D02*
X165658005Y-33841206D01*
X166229434Y-33841206D02*
X166158005Y-33698349D01*
X166158005Y-33412635D01*
X166229434Y-33269778D01*
X166300862Y-33198349D01*
X166443719Y-33126920D01*
X166872291Y-33126920D01*
X167015148Y-33198349D01*
X167086576Y-33269778D01*
X167158005Y-33412635D01*
X167158005Y-33698349D01*
X167086576Y-33841206D01*
X167158005Y-32269778D02*
X167086576Y-32412635D01*
X167015148Y-32484063D01*
X166872291Y-32555492D01*
X166443719Y-32555492D01*
X166300862Y-32484063D01*
X166229434Y-32412635D01*
X166158005Y-32269778D01*
X166158005Y-32055492D01*
X166229434Y-31912635D01*
X166300862Y-31841206D01*
X166443719Y-31769778D01*
X166872291Y-31769778D01*
X167015148Y-31841206D01*
X167086576Y-31912635D01*
X167158005Y-32055492D01*
X167158005Y-32269778D01*
X167158005Y-31269778D02*
X166158005Y-30484063D01*
X166158005Y-31269778D02*
X167158005Y-30484063D01*
D12*
G04 #@! TO.C,J68*
X169249434Y-62252278D02*
X170579434Y-62252278D01*
X169249434Y-63582278D02*
X169249434Y-62252278D01*
X169249434Y-64852278D02*
X171909434Y-64852278D01*
X171909434Y-64852278D02*
X171909434Y-67452278D01*
X169249434Y-64852278D02*
X169249434Y-67452278D01*
X169249434Y-67452278D02*
X171909434Y-67452278D01*
G04 #@! TO.C,J1*
X114234434Y-104654778D02*
X116894434Y-104654778D01*
X114234434Y-102054778D02*
X114234434Y-104654778D01*
X116894434Y-102054778D02*
X116894434Y-104654778D01*
X114234434Y-102054778D02*
X116894434Y-102054778D01*
X114234434Y-100784778D02*
X114234434Y-99454778D01*
X114234434Y-99454778D02*
X115564434Y-99454778D01*
G04 #@! TO.C,J27*
X153349434Y-46012278D02*
X153349434Y-44682278D01*
X154679434Y-46012278D02*
X153349434Y-46012278D01*
X155949434Y-46012278D02*
X155949434Y-43352278D01*
X155949434Y-43352278D02*
X158549434Y-43352278D01*
X155949434Y-46012278D02*
X158549434Y-46012278D01*
X158549434Y-46012278D02*
X158549434Y-43352278D01*
G04 #@! TO.C,J42*
X152749434Y-78252278D02*
X154079434Y-78252278D01*
X152749434Y-79582278D02*
X152749434Y-78252278D01*
X152749434Y-80852278D02*
X155409434Y-80852278D01*
X155409434Y-80852278D02*
X155409434Y-83452278D01*
X152749434Y-80852278D02*
X152749434Y-83452278D01*
X152749434Y-83452278D02*
X155409434Y-83452278D01*
G04 #@! TO.C,R10*
X160929155Y-85799778D02*
X161254713Y-85799778D01*
X160929155Y-86819778D02*
X161254713Y-86819778D01*
G04 #@! TO.C,U3*
X158364434Y-87772278D02*
X158739434Y-87772278D01*
X158739434Y-87772278D02*
X158739434Y-88147278D01*
X154894434Y-91992278D02*
X154519434Y-91992278D01*
X154519434Y-91992278D02*
X154519434Y-91617278D01*
X158364434Y-91992278D02*
X158739434Y-91992278D01*
X158739434Y-91992278D02*
X158739434Y-91617278D01*
X154894434Y-87772278D02*
X154519434Y-87772278D01*
G04 #@! TO.C,J23*
X123634434Y-78664778D02*
X123634434Y-81324778D01*
X131314434Y-78664778D02*
X123634434Y-78664778D01*
X131314434Y-81324778D02*
X123634434Y-81324778D01*
X131314434Y-78664778D02*
X131314434Y-81324778D01*
X132584434Y-78664778D02*
X133914434Y-78664778D01*
X133914434Y-78664778D02*
X133914434Y-79994778D01*
G04 #@! TO.C,J89*
X169299434Y-91452278D02*
X171959434Y-91452278D01*
X169299434Y-88852278D02*
X169299434Y-91452278D01*
X171959434Y-88852278D02*
X171959434Y-91452278D01*
X169299434Y-88852278D02*
X171959434Y-88852278D01*
X169299434Y-87582278D02*
X169299434Y-86252278D01*
X169299434Y-86252278D02*
X170629434Y-86252278D01*
G04 #@! TO.C,J85*
X158299434Y-94252278D02*
X159629434Y-94252278D01*
X158299434Y-95582278D02*
X158299434Y-94252278D01*
X158299434Y-96852278D02*
X160959434Y-96852278D01*
X160959434Y-96852278D02*
X160959434Y-99452278D01*
X158299434Y-96852278D02*
X158299434Y-99452278D01*
X158299434Y-99452278D02*
X160959434Y-99452278D01*
G04 #@! TO.C,J88*
X163799434Y-91452278D02*
X166459434Y-91452278D01*
X163799434Y-88852278D02*
X163799434Y-91452278D01*
X166459434Y-88852278D02*
X166459434Y-91452278D01*
X163799434Y-88852278D02*
X166459434Y-88852278D01*
X163799434Y-87582278D02*
X163799434Y-86252278D01*
X163799434Y-86252278D02*
X165129434Y-86252278D01*
G04 #@! TO.C,J87*
X169299434Y-94252278D02*
X170629434Y-94252278D01*
X169299434Y-95582278D02*
X169299434Y-94252278D01*
X169299434Y-96852278D02*
X171959434Y-96852278D01*
X171959434Y-96852278D02*
X171959434Y-99452278D01*
X169299434Y-96852278D02*
X169299434Y-99452278D01*
X169299434Y-99452278D02*
X171959434Y-99452278D01*
G04 #@! TO.C,J86*
X163799434Y-99452278D02*
X166459434Y-99452278D01*
X163799434Y-96852278D02*
X163799434Y-99452278D01*
X166459434Y-96852278D02*
X166459434Y-99452278D01*
X163799434Y-96852278D02*
X166459434Y-96852278D01*
X163799434Y-95582278D02*
X163799434Y-94252278D01*
X163799434Y-94252278D02*
X165129434Y-94252278D01*
G04 #@! TO.C,J72*
X163749434Y-102292278D02*
X165079434Y-102292278D01*
X163749434Y-103622278D02*
X163749434Y-102292278D01*
X163749434Y-104892278D02*
X166409434Y-104892278D01*
X166409434Y-104892278D02*
X166409434Y-107492278D01*
X163749434Y-104892278D02*
X163749434Y-107492278D01*
X163749434Y-107492278D02*
X166409434Y-107492278D01*
G04 #@! TO.C,J84*
X152749434Y-99452278D02*
X155409434Y-99452278D01*
X152749434Y-96852278D02*
X152749434Y-99452278D01*
X155409434Y-96852278D02*
X155409434Y-99452278D01*
X152749434Y-96852278D02*
X155409434Y-96852278D01*
X152749434Y-95582278D02*
X152749434Y-94252278D01*
X152749434Y-94252278D02*
X154079434Y-94252278D01*
G04 #@! TO.C,J57*
X147249434Y-107492278D02*
X149909434Y-107492278D01*
X147249434Y-104892278D02*
X147249434Y-107492278D01*
X149909434Y-104892278D02*
X149909434Y-107492278D01*
X147249434Y-104892278D02*
X149909434Y-104892278D01*
X147249434Y-103622278D02*
X147249434Y-102292278D01*
X147249434Y-102292278D02*
X148579434Y-102292278D01*
G04 #@! TO.C,J69*
X158249434Y-102292278D02*
X159579434Y-102292278D01*
X158249434Y-103622278D02*
X158249434Y-102292278D01*
X158249434Y-104892278D02*
X160909434Y-104892278D01*
X160909434Y-104892278D02*
X160909434Y-107492278D01*
X158249434Y-104892278D02*
X158249434Y-107492278D01*
X158249434Y-107492278D02*
X160909434Y-107492278D01*
G04 #@! TO.C,J58*
X152749434Y-107484778D02*
X155409434Y-107484778D01*
X152749434Y-104884778D02*
X152749434Y-107484778D01*
X155409434Y-104884778D02*
X155409434Y-107484778D01*
X152749434Y-104884778D02*
X155409434Y-104884778D01*
X152749434Y-103614778D02*
X152749434Y-102284778D01*
X152749434Y-102284778D02*
X154079434Y-102284778D01*
G04 #@! TO.C,J56*
X139384434Y-104752278D02*
X142044434Y-104752278D01*
X139384434Y-102152278D02*
X139384434Y-104752278D01*
X142044434Y-102152278D02*
X142044434Y-104752278D01*
X139384434Y-102152278D02*
X142044434Y-102152278D01*
X139384434Y-100882278D02*
X139384434Y-99552278D01*
X139384434Y-99552278D02*
X140714434Y-99552278D01*
G04 #@! TO.C,J55*
X147299434Y-94302278D02*
X148629434Y-94302278D01*
X147299434Y-95632278D02*
X147299434Y-94302278D01*
X147299434Y-96902278D02*
X149959434Y-96902278D01*
X149959434Y-96902278D02*
X149959434Y-99502278D01*
X147299434Y-96902278D02*
X147299434Y-99502278D01*
X147299434Y-99502278D02*
X149959434Y-99502278D01*
G04 #@! TO.C,J54*
X147299434Y-91502278D02*
X149959434Y-91502278D01*
X147299434Y-88902278D02*
X147299434Y-91502278D01*
X149959434Y-88902278D02*
X149959434Y-91502278D01*
X147299434Y-88902278D02*
X149959434Y-88902278D01*
X147299434Y-87632278D02*
X147299434Y-86302278D01*
X147299434Y-86302278D02*
X148629434Y-86302278D01*
G04 #@! TO.C,J53*
X147299434Y-78302278D02*
X148629434Y-78302278D01*
X147299434Y-79632278D02*
X147299434Y-78302278D01*
X147299434Y-80902278D02*
X149959434Y-80902278D01*
X149959434Y-80902278D02*
X149959434Y-83502278D01*
X147299434Y-80902278D02*
X147299434Y-83502278D01*
X147299434Y-83502278D02*
X149959434Y-83502278D01*
G04 #@! TO.C,J40*
X127499434Y-74479778D02*
X127499434Y-77139778D01*
X130099434Y-74479778D02*
X127499434Y-74479778D01*
X130099434Y-77139778D02*
X127499434Y-77139778D01*
X130099434Y-74479778D02*
X130099434Y-77139778D01*
X131369434Y-74479778D02*
X132699434Y-74479778D01*
X132699434Y-74479778D02*
X132699434Y-75809778D01*
G04 #@! TO.C,J32*
X122999434Y-71229778D02*
X124329434Y-71229778D01*
X122999434Y-72559778D02*
X122999434Y-71229778D01*
X122999434Y-73829778D02*
X125659434Y-73829778D01*
X125659434Y-73829778D02*
X125659434Y-76429778D01*
X122999434Y-73829778D02*
X122999434Y-76429778D01*
X122999434Y-76429778D02*
X125659434Y-76429778D01*
G04 #@! TO.C,J44*
X163749434Y-78252278D02*
X165079434Y-78252278D01*
X163749434Y-79582278D02*
X163749434Y-78252278D01*
X163749434Y-80852278D02*
X166409434Y-80852278D01*
X166409434Y-80852278D02*
X166409434Y-83452278D01*
X163749434Y-80852278D02*
X163749434Y-83452278D01*
X163749434Y-83452278D02*
X166409434Y-83452278D01*
G04 #@! TO.C,J33*
X169249434Y-70252278D02*
X170579434Y-70252278D01*
X169249434Y-71582278D02*
X169249434Y-70252278D01*
X169249434Y-72852278D02*
X171909434Y-72852278D01*
X171909434Y-72852278D02*
X171909434Y-75452278D01*
X169249434Y-72852278D02*
X169249434Y-75452278D01*
X169249434Y-75452278D02*
X171909434Y-75452278D01*
G04 #@! TO.C,J47*
X163749434Y-54212278D02*
X165079434Y-54212278D01*
X163749434Y-55542278D02*
X163749434Y-54212278D01*
X163749434Y-56812278D02*
X166409434Y-56812278D01*
X166409434Y-56812278D02*
X166409434Y-59412278D01*
X163749434Y-56812278D02*
X163749434Y-59412278D01*
X163749434Y-59412278D02*
X166409434Y-59412278D01*
G04 #@! TO.C,J8*
X114249434Y-75729778D02*
X115579434Y-75729778D01*
X114249434Y-77059778D02*
X114249434Y-75729778D01*
X114249434Y-78329778D02*
X116909434Y-78329778D01*
X116909434Y-78329778D02*
X116909434Y-80929778D01*
X114249434Y-78329778D02*
X114249434Y-80929778D01*
X114249434Y-80929778D02*
X116909434Y-80929778D01*
G04 #@! TO.C,J10*
X108749434Y-67729778D02*
X110079434Y-67729778D01*
X108749434Y-69059778D02*
X108749434Y-67729778D01*
X108749434Y-70329778D02*
X111409434Y-70329778D01*
X111409434Y-70329778D02*
X111409434Y-72929778D01*
X108749434Y-70329778D02*
X108749434Y-72929778D01*
X108749434Y-72929778D02*
X111409434Y-72929778D01*
G04 #@! TO.C,J45*
X169249434Y-78252278D02*
X170579434Y-78252278D01*
X169249434Y-79582278D02*
X169249434Y-78252278D01*
X169249434Y-80852278D02*
X171909434Y-80852278D01*
X171909434Y-80852278D02*
X171909434Y-83452278D01*
X169249434Y-80852278D02*
X169249434Y-83452278D01*
X169249434Y-83452278D02*
X171909434Y-83452278D01*
G04 #@! TO.C,J24*
X139384434Y-91494778D02*
X140714434Y-91494778D01*
X139384434Y-92824778D02*
X139384434Y-91494778D01*
X139384434Y-94094778D02*
X142044434Y-94094778D01*
X142044434Y-94094778D02*
X142044434Y-96694778D01*
X139384434Y-94094778D02*
X139384434Y-96694778D01*
X139384434Y-96694778D02*
X142044434Y-96694778D01*
G04 #@! TO.C,J2*
X158249434Y-70252278D02*
X159579434Y-70252278D01*
X158249434Y-71582278D02*
X158249434Y-70252278D01*
X158249434Y-72852278D02*
X160909434Y-72852278D01*
X160909434Y-72852278D02*
X160909434Y-75452278D01*
X158249434Y-72852278D02*
X158249434Y-75452278D01*
X158249434Y-75452278D02*
X160909434Y-75452278D01*
G04 #@! TO.C,J3*
X152749434Y-70252278D02*
X154079434Y-70252278D01*
X152749434Y-71582278D02*
X152749434Y-70252278D01*
X152749434Y-72852278D02*
X155409434Y-72852278D01*
X155409434Y-72852278D02*
X155409434Y-75452278D01*
X152749434Y-72852278D02*
X152749434Y-75452278D01*
X152749434Y-75452278D02*
X155409434Y-75452278D01*
G04 #@! TO.C,J4*
X108749434Y-83729778D02*
X110079434Y-83729778D01*
X108749434Y-85059778D02*
X108749434Y-83729778D01*
X108749434Y-86329778D02*
X111409434Y-86329778D01*
X111409434Y-86329778D02*
X111409434Y-88929778D01*
X108749434Y-86329778D02*
X108749434Y-88929778D01*
X108749434Y-88929778D02*
X111409434Y-88929778D01*
G04 #@! TO.C,J5*
X114249434Y-83729778D02*
X115579434Y-83729778D01*
X114249434Y-85059778D02*
X114249434Y-83729778D01*
X114249434Y-86329778D02*
X116909434Y-86329778D01*
X116909434Y-86329778D02*
X116909434Y-88929778D01*
X114249434Y-86329778D02*
X114249434Y-88929778D01*
X114249434Y-88929778D02*
X116909434Y-88929778D01*
G04 #@! TO.C,J6*
X108749434Y-75729778D02*
X110079434Y-75729778D01*
X108749434Y-77059778D02*
X108749434Y-75729778D01*
X108749434Y-78329778D02*
X111409434Y-78329778D01*
X111409434Y-78329778D02*
X111409434Y-80929778D01*
X108749434Y-78329778D02*
X108749434Y-80929778D01*
X108749434Y-80929778D02*
X111409434Y-80929778D01*
G04 #@! TO.C,J7*
X115671934Y-24729778D02*
X115671934Y-26059778D01*
X114341934Y-24729778D02*
X115671934Y-24729778D01*
X113071934Y-24729778D02*
X113071934Y-27389778D01*
X113071934Y-27389778D02*
X110471934Y-27389778D01*
X113071934Y-24729778D02*
X110471934Y-24729778D01*
X110471934Y-24729778D02*
X110471934Y-27389778D01*
G04 #@! TO.C,J9*
X102999434Y-67729778D02*
X104329434Y-67729778D01*
X102999434Y-69059778D02*
X102999434Y-67729778D01*
X102999434Y-70329778D02*
X105659434Y-70329778D01*
X105659434Y-70329778D02*
X105659434Y-72929778D01*
X102999434Y-70329778D02*
X102999434Y-72929778D01*
X102999434Y-72929778D02*
X105659434Y-72929778D01*
G04 #@! TO.C,J26*
X125349434Y-43689778D02*
X126679434Y-43689778D01*
X125349434Y-45019778D02*
X125349434Y-43689778D01*
X125349434Y-46289778D02*
X128009434Y-46289778D01*
X128009434Y-46289778D02*
X128009434Y-48889778D01*
X125349434Y-46289778D02*
X125349434Y-48889778D01*
X125349434Y-48889778D02*
X128009434Y-48889778D01*
G04 #@! TO.C,J64*
X102999434Y-51729778D02*
X104329434Y-51729778D01*
X102999434Y-53059778D02*
X102999434Y-51729778D01*
X102999434Y-54329778D02*
X105659434Y-54329778D01*
X105659434Y-54329778D02*
X105659434Y-56929778D01*
X102999434Y-54329778D02*
X102999434Y-56929778D01*
X102999434Y-56929778D02*
X105659434Y-56929778D01*
G04 #@! TO.C,J31*
X152749434Y-62212278D02*
X154079434Y-62212278D01*
X152749434Y-63542278D02*
X152749434Y-62212278D01*
X152749434Y-64812278D02*
X155409434Y-64812278D01*
X155409434Y-64812278D02*
X155409434Y-67412278D01*
X152749434Y-64812278D02*
X152749434Y-67412278D01*
X152749434Y-67412278D02*
X155409434Y-67412278D01*
G04 #@! TO.C,J30*
X158249434Y-62212278D02*
X159579434Y-62212278D01*
X158249434Y-63542278D02*
X158249434Y-62212278D01*
X158249434Y-64812278D02*
X160909434Y-64812278D01*
X160909434Y-64812278D02*
X160909434Y-67412278D01*
X158249434Y-64812278D02*
X158249434Y-67412278D01*
X158249434Y-67412278D02*
X160909434Y-67412278D01*
G04 #@! TO.C,J29*
X119849434Y-43689778D02*
X121179434Y-43689778D01*
X119849434Y-45019778D02*
X119849434Y-43689778D01*
X119849434Y-46289778D02*
X122509434Y-46289778D01*
X122509434Y-46289778D02*
X122509434Y-48889778D01*
X119849434Y-46289778D02*
X119849434Y-48889778D01*
X119849434Y-48889778D02*
X122509434Y-48889778D01*
G04 #@! TO.C,J28*
X161149434Y-46012278D02*
X161149434Y-44682278D01*
X162479434Y-46012278D02*
X161149434Y-46012278D01*
X163749434Y-46012278D02*
X163749434Y-43352278D01*
X163749434Y-43352278D02*
X166349434Y-43352278D01*
X163749434Y-46012278D02*
X166349434Y-46012278D01*
X166349434Y-46012278D02*
X166349434Y-43352278D01*
G04 #@! TO.C,J34*
X163749434Y-70252278D02*
X165079434Y-70252278D01*
X163749434Y-71582278D02*
X163749434Y-70252278D01*
X163749434Y-72852278D02*
X166409434Y-72852278D01*
X166409434Y-72852278D02*
X166409434Y-75452278D01*
X163749434Y-72852278D02*
X163749434Y-75452278D01*
X163749434Y-75452278D02*
X166409434Y-75452278D01*
G04 #@! TO.C,J25*
X123634434Y-83414778D02*
X124964434Y-83414778D01*
X123634434Y-84744778D02*
X123634434Y-83414778D01*
X123634434Y-86014778D02*
X126294434Y-86014778D01*
X126294434Y-86014778D02*
X126294434Y-88614778D01*
X123634434Y-86014778D02*
X123634434Y-88614778D01*
X123634434Y-88614778D02*
X126294434Y-88614778D01*
G04 #@! TO.C,J35*
X123634434Y-99454778D02*
X124964434Y-99454778D01*
X123634434Y-100784778D02*
X123634434Y-99454778D01*
X123634434Y-102054778D02*
X126294434Y-102054778D01*
X126294434Y-102054778D02*
X126294434Y-104654778D01*
X123634434Y-102054778D02*
X123634434Y-104654778D01*
X123634434Y-104654778D02*
X126294434Y-104654778D01*
G04 #@! TO.C,J36*
X128884434Y-99494778D02*
X130214434Y-99494778D01*
X128884434Y-100824778D02*
X128884434Y-99494778D01*
X128884434Y-102094778D02*
X131544434Y-102094778D01*
X131544434Y-102094778D02*
X131544434Y-104694778D01*
X128884434Y-102094778D02*
X128884434Y-104694778D01*
X128884434Y-104694778D02*
X131544434Y-104694778D01*
G04 #@! TO.C,J37*
X134134434Y-83494778D02*
X135464434Y-83494778D01*
X134134434Y-84824778D02*
X134134434Y-83494778D01*
X134134434Y-86094778D02*
X136794434Y-86094778D01*
X136794434Y-86094778D02*
X136794434Y-88694778D01*
X134134434Y-86094778D02*
X134134434Y-88694778D01*
X134134434Y-88694778D02*
X136794434Y-88694778D01*
G04 #@! TO.C,J38*
X128884434Y-83454778D02*
X130214434Y-83454778D01*
X128884434Y-84784778D02*
X128884434Y-83454778D01*
X128884434Y-86054778D02*
X131544434Y-86054778D01*
X131544434Y-86054778D02*
X131544434Y-88654778D01*
X128884434Y-86054778D02*
X128884434Y-88654778D01*
X128884434Y-88654778D02*
X131544434Y-88654778D01*
G04 #@! TO.C,J39*
X128884434Y-91494778D02*
X130214434Y-91494778D01*
X128884434Y-92824778D02*
X128884434Y-91494778D01*
X128884434Y-94094778D02*
X131544434Y-94094778D01*
X131544434Y-94094778D02*
X131544434Y-96694778D01*
X128884434Y-94094778D02*
X128884434Y-96694778D01*
X128884434Y-96694778D02*
X131544434Y-96694778D01*
G04 #@! TO.C,J50*
X163749434Y-62212278D02*
X165079434Y-62212278D01*
X163749434Y-63542278D02*
X163749434Y-62212278D01*
X163749434Y-64812278D02*
X166409434Y-64812278D01*
X166409434Y-64812278D02*
X166409434Y-67412278D01*
X163749434Y-64812278D02*
X163749434Y-67412278D01*
X163749434Y-67412278D02*
X166409434Y-67412278D01*
G04 #@! TO.C,J63*
X123634434Y-91454778D02*
X124964434Y-91454778D01*
X123634434Y-92784778D02*
X123634434Y-91454778D01*
X123634434Y-94054778D02*
X126294434Y-94054778D01*
X126294434Y-94054778D02*
X126294434Y-96654778D01*
X123634434Y-94054778D02*
X123634434Y-96654778D01*
X123634434Y-96654778D02*
X126294434Y-96654778D01*
G04 #@! TO.C,J62*
X108749434Y-91729778D02*
X110079434Y-91729778D01*
X108749434Y-93059778D02*
X108749434Y-91729778D01*
X108749434Y-94329778D02*
X111409434Y-94329778D01*
X111409434Y-94329778D02*
X111409434Y-96929778D01*
X108749434Y-94329778D02*
X108749434Y-96929778D01*
X108749434Y-96929778D02*
X111409434Y-96929778D01*
G04 #@! TO.C,J61*
X102999434Y-91729778D02*
X104329434Y-91729778D01*
X102999434Y-93059778D02*
X102999434Y-91729778D01*
X102999434Y-94329778D02*
X105659434Y-94329778D01*
X105659434Y-94329778D02*
X105659434Y-96929778D01*
X102999434Y-94329778D02*
X102999434Y-96929778D01*
X102999434Y-96929778D02*
X105659434Y-96929778D01*
G04 #@! TO.C,J60*
X102999434Y-83729778D02*
X104329434Y-83729778D01*
X102999434Y-85059778D02*
X102999434Y-83729778D01*
X102999434Y-86329778D02*
X105659434Y-86329778D01*
X105659434Y-86329778D02*
X105659434Y-88929778D01*
X102999434Y-86329778D02*
X102999434Y-88929778D01*
X102999434Y-88929778D02*
X105659434Y-88929778D01*
G04 #@! TO.C,J59*
X114249434Y-91729778D02*
X115579434Y-91729778D01*
X114249434Y-93059778D02*
X114249434Y-91729778D01*
X114249434Y-94329778D02*
X116909434Y-94329778D01*
X116909434Y-94329778D02*
X116909434Y-96929778D01*
X114249434Y-94329778D02*
X114249434Y-96929778D01*
X114249434Y-96929778D02*
X116909434Y-96929778D01*
G04 #@! TO.C,J48*
X158249434Y-54212278D02*
X159579434Y-54212278D01*
X158249434Y-55542278D02*
X158249434Y-54212278D01*
X158249434Y-56812278D02*
X160909434Y-56812278D01*
X160909434Y-56812278D02*
X160909434Y-59412278D01*
X158249434Y-56812278D02*
X158249434Y-59412278D01*
X158249434Y-59412278D02*
X160909434Y-59412278D01*
G04 #@! TO.C,J49*
X152749434Y-54212278D02*
X154079434Y-54212278D01*
X152749434Y-55542278D02*
X152749434Y-54212278D01*
X152749434Y-56812278D02*
X155409434Y-56812278D01*
X155409434Y-56812278D02*
X155409434Y-59412278D01*
X152749434Y-56812278D02*
X152749434Y-59412278D01*
X152749434Y-59412278D02*
X155409434Y-59412278D01*
G04 #@! TO.C,J46*
X169249434Y-54212278D02*
X170579434Y-54212278D01*
X169249434Y-55542278D02*
X169249434Y-54212278D01*
X169249434Y-56812278D02*
X171909434Y-56812278D01*
X171909434Y-56812278D02*
X171909434Y-59412278D01*
X169249434Y-56812278D02*
X169249434Y-59412278D01*
X169249434Y-59412278D02*
X171909434Y-59412278D01*
G04 #@! TO.C,J66*
X102999434Y-75729778D02*
X104329434Y-75729778D01*
X102999434Y-77059778D02*
X102999434Y-75729778D01*
X102999434Y-78329778D02*
X105659434Y-78329778D01*
X105659434Y-78329778D02*
X105659434Y-80929778D01*
X102999434Y-78329778D02*
X102999434Y-80929778D01*
X102999434Y-80929778D02*
X105659434Y-80929778D01*
G04 #@! TO.C,J65*
X114249434Y-59729778D02*
X115579434Y-59729778D01*
X114249434Y-61059778D02*
X114249434Y-59729778D01*
X114249434Y-62329778D02*
X116909434Y-62329778D01*
X116909434Y-62329778D02*
X116909434Y-64929778D01*
X114249434Y-62329778D02*
X114249434Y-64929778D01*
X114249434Y-64929778D02*
X116909434Y-64929778D01*
G04 #@! TO.C,J11*
X114249434Y-67729778D02*
X115579434Y-67729778D01*
X114249434Y-69059778D02*
X114249434Y-67729778D01*
X114249434Y-70329778D02*
X116909434Y-70329778D01*
X116909434Y-70329778D02*
X116909434Y-72929778D01*
X114249434Y-70329778D02*
X114249434Y-72929778D01*
X114249434Y-72929778D02*
X116909434Y-72929778D01*
G04 #@! TO.C,J13*
X108749434Y-59729778D02*
X110079434Y-59729778D01*
X108749434Y-61059778D02*
X108749434Y-59729778D01*
X108749434Y-62329778D02*
X111409434Y-62329778D01*
X111409434Y-62329778D02*
X111409434Y-64929778D01*
X108749434Y-62329778D02*
X108749434Y-64929778D01*
X108749434Y-64929778D02*
X111409434Y-64929778D01*
G04 #@! TO.C,J14*
X108749434Y-51729778D02*
X110079434Y-51729778D01*
X108749434Y-53059778D02*
X108749434Y-51729778D01*
X108749434Y-54329778D02*
X111409434Y-54329778D01*
X111409434Y-54329778D02*
X111409434Y-56929778D01*
X108749434Y-54329778D02*
X108749434Y-56929778D01*
X108749434Y-56929778D02*
X111409434Y-56929778D01*
G04 #@! TO.C,J15*
X114249434Y-51729778D02*
X115579434Y-51729778D01*
X114249434Y-53059778D02*
X114249434Y-51729778D01*
X114249434Y-54329778D02*
X116909434Y-54329778D01*
X116909434Y-54329778D02*
X116909434Y-56929778D01*
X114249434Y-54329778D02*
X114249434Y-56929778D01*
X114249434Y-56929778D02*
X116909434Y-56929778D01*
G04 #@! TO.C,J16*
X102999434Y-43689778D02*
X104329434Y-43689778D01*
X102999434Y-45019778D02*
X102999434Y-43689778D01*
X102999434Y-46289778D02*
X105659434Y-46289778D01*
X105659434Y-46289778D02*
X105659434Y-48889778D01*
X102999434Y-46289778D02*
X102999434Y-48889778D01*
X102999434Y-48889778D02*
X105659434Y-48889778D01*
G04 #@! TO.C,J17*
X108749434Y-43689778D02*
X110079434Y-43689778D01*
X108749434Y-45019778D02*
X108749434Y-43689778D01*
X108749434Y-46289778D02*
X111409434Y-46289778D01*
X111409434Y-46289778D02*
X111409434Y-48889778D01*
X108749434Y-46289778D02*
X108749434Y-48889778D01*
X108749434Y-48889778D02*
X111409434Y-48889778D01*
G04 #@! TO.C,J18*
X114249434Y-43689778D02*
X115579434Y-43689778D01*
X114249434Y-45019778D02*
X114249434Y-43689778D01*
X114249434Y-46289778D02*
X116909434Y-46289778D01*
X116909434Y-46289778D02*
X116909434Y-48889778D01*
X114249434Y-46289778D02*
X114249434Y-48889778D01*
X114249434Y-48889778D02*
X116909434Y-48889778D01*
G04 #@! TO.C,J20*
X134134434Y-99494778D02*
X135464434Y-99494778D01*
X134134434Y-100824778D02*
X134134434Y-99494778D01*
X134134434Y-102094778D02*
X136794434Y-102094778D01*
X136794434Y-102094778D02*
X136794434Y-104694778D01*
X134134434Y-102094778D02*
X134134434Y-104694778D01*
X134134434Y-104694778D02*
X136794434Y-104694778D01*
G04 #@! TO.C,J21*
X134134434Y-91494778D02*
X135464434Y-91494778D01*
X134134434Y-92824778D02*
X134134434Y-91494778D01*
X134134434Y-94094778D02*
X136794434Y-94094778D01*
X136794434Y-94094778D02*
X136794434Y-96694778D01*
X134134434Y-94094778D02*
X134134434Y-96694778D01*
X134134434Y-96694778D02*
X136794434Y-96694778D01*
G04 #@! TO.C,J22*
X139384434Y-83494778D02*
X140714434Y-83494778D01*
X139384434Y-84824778D02*
X139384434Y-83494778D01*
X139384434Y-86094778D02*
X142044434Y-86094778D01*
X142044434Y-86094778D02*
X142044434Y-88694778D01*
X139384434Y-86094778D02*
X139384434Y-88694778D01*
X139384434Y-88694778D02*
X142044434Y-88694778D01*
G04 #@! TO.C,J12*
X102999434Y-59729778D02*
X104329434Y-59729778D01*
X102999434Y-61059778D02*
X102999434Y-59729778D01*
X102999434Y-62329778D02*
X105659434Y-62329778D01*
X105659434Y-62329778D02*
X105659434Y-64929778D01*
X102999434Y-62329778D02*
X102999434Y-64929778D01*
X102999434Y-64929778D02*
X105659434Y-64929778D01*
G04 #@! TO.C,J43*
X158249434Y-78252278D02*
X159579434Y-78252278D01*
X158249434Y-79582278D02*
X158249434Y-78252278D01*
X158249434Y-80852278D02*
X160909434Y-80852278D01*
X160909434Y-80852278D02*
X160909434Y-83452278D01*
X158249434Y-80852278D02*
X158249434Y-83452278D01*
X158249434Y-83452278D02*
X160909434Y-83452278D01*
D13*
G04 #@! TO.C,U2*
X129754434Y-56344778D02*
X128679434Y-56344778D01*
X144004434Y-55844778D02*
X143419434Y-55844778D01*
X144004434Y-70094778D02*
X143419434Y-70094778D01*
X129754434Y-70094778D02*
X130339434Y-70094778D01*
X129754434Y-55844778D02*
X130339434Y-55844778D01*
X129754434Y-70094778D02*
X129754434Y-69509778D01*
X144004434Y-70094778D02*
X144004434Y-69509778D01*
X144004434Y-55844778D02*
X144004434Y-56429778D01*
X129754434Y-55844778D02*
X129754434Y-56344778D01*
D12*
G04 #@! TO.C,C6*
X137089434Y-51332557D02*
X137089434Y-51006999D01*
X136069434Y-51332557D02*
X136069434Y-51006999D01*
G04 #@! TO.C,J70*
X169349434Y-32752278D02*
X170679434Y-32752278D01*
X169349434Y-34082278D02*
X169349434Y-32752278D01*
X169349434Y-35352278D02*
X172009434Y-35352278D01*
X172009434Y-35352278D02*
X172009434Y-40492278D01*
X169349434Y-35352278D02*
X169349434Y-40492278D01*
X169349434Y-40492278D02*
X172009434Y-40492278D01*
G04 #@! TO.C,SW1*
X142029434Y-33869778D02*
X142029434Y-33419778D01*
X148329434Y-33419778D02*
X148329434Y-33869778D01*
X142029434Y-33419778D02*
X148329434Y-33419778D01*
X148329434Y-35169778D02*
X148329434Y-37869778D01*
X142029434Y-37869778D02*
X142029434Y-35169778D01*
X148329434Y-39619778D02*
X148329434Y-39219778D01*
X142029434Y-39619778D02*
X148329434Y-39619778D01*
X142029434Y-39169778D02*
X142029434Y-39619778D01*
G04 #@! TO.C,C2*
X124439434Y-55332557D02*
X124439434Y-55006999D01*
X123419434Y-55332557D02*
X123419434Y-55006999D01*
G04 #@! TO.C,C3*
X123704155Y-68479778D02*
X124029713Y-68479778D01*
X123704155Y-67459778D02*
X124029713Y-67459778D01*
G04 #@! TO.C,C4*
X123729155Y-63479778D02*
X124054713Y-63479778D01*
X123729155Y-62459778D02*
X124054713Y-62459778D01*
G04 #@! TO.C,C5*
X123729155Y-59469778D02*
X124054713Y-59469778D01*
X123729155Y-58449778D02*
X124054713Y-58449778D01*
G04 #@! TO.C,C7*
X137089434Y-48082557D02*
X137089434Y-47756999D01*
X136069434Y-48082557D02*
X136069434Y-47756999D01*
G04 #@! TO.C,C8*
X136419434Y-41106999D02*
X136419434Y-41432557D01*
X137439434Y-41106999D02*
X137439434Y-41432557D01*
G04 #@! TO.C,C1*
X123304713Y-51872278D02*
X122979155Y-51872278D01*
X123304713Y-52892278D02*
X122979155Y-52892278D01*
G04 #@! TO.C,C12*
X127974434Y-71932557D02*
X127974434Y-71606999D01*
X126954434Y-71932557D02*
X126954434Y-71606999D01*
G04 #@! TO.C,C13*
X134169434Y-50606999D02*
X134169434Y-50932557D01*
X135189434Y-50606999D02*
X135189434Y-50932557D01*
G04 #@! TO.C,C14*
X146169434Y-52569499D02*
X146169434Y-52895057D01*
X147189434Y-52569499D02*
X147189434Y-52895057D01*
G04 #@! TO.C,C15*
X138619434Y-50606999D02*
X138619434Y-50932557D01*
X139639434Y-50606999D02*
X139639434Y-50932557D01*
G04 #@! TO.C,C16*
X135176934Y-73820057D02*
X135176934Y-73494499D01*
X134156934Y-73820057D02*
X134156934Y-73494499D01*
G04 #@! TO.C,C17*
X146839434Y-71882557D02*
X146839434Y-71556999D01*
X145819434Y-71882557D02*
X145819434Y-71556999D01*
G04 #@! TO.C,C18*
X139739434Y-75832557D02*
X139739434Y-75506999D01*
X138719434Y-75832557D02*
X138719434Y-75506999D01*
G04 #@! TO.C,C19*
X150354713Y-57509778D02*
X150029155Y-57509778D01*
X150354713Y-58529778D02*
X150029155Y-58529778D01*
G04 #@! TO.C,C20*
X148164713Y-63314778D02*
X147839155Y-63314778D01*
X148164713Y-64334778D02*
X147839155Y-64334778D01*
G04 #@! TO.C,C11*
X130409155Y-73154778D02*
X130734713Y-73154778D01*
X130409155Y-72134778D02*
X130734713Y-72134778D01*
G04 #@! TO.C,J71*
X164204434Y-27554778D02*
X164314434Y-27554778D01*
X151444434Y-28714778D02*
X151444434Y-27554778D01*
X151444434Y-27554778D02*
X162704434Y-27554778D01*
X164314434Y-27554778D02*
X164314434Y-29364778D01*
X151444434Y-31964778D02*
X151444434Y-37564778D01*
X164314434Y-31264778D02*
X164314434Y-37564778D01*
G04 #@! TO.C,J67*
X130279434Y-39949778D02*
X131409434Y-39949778D01*
X130279434Y-40709778D02*
X130279434Y-39949778D01*
X132986964Y-40014778D02*
X133809434Y-40014778D01*
X132169434Y-40014778D02*
X132371904Y-40014778D01*
X132169434Y-40146307D02*
X132169434Y-40014778D01*
X132169434Y-41416307D02*
X132169434Y-41273249D01*
X131972905Y-41469778D02*
X132115963Y-41469778D01*
X130279434Y-41469778D02*
X130845963Y-41469778D01*
X133809434Y-40014778D02*
X133809434Y-46484778D01*
X130279434Y-41469778D02*
X130279434Y-46484778D01*
X131716964Y-46484778D02*
X132371904Y-46484778D01*
X132986964Y-46484778D02*
X133809434Y-46484778D01*
X130279434Y-46484778D02*
X131101904Y-46484778D01*
G04 #@! TO.C,J74*
X168179434Y-49312278D02*
X167729434Y-49712278D01*
X167729434Y-49712278D02*
X167729434Y-48912278D01*
X167729434Y-48912278D02*
X168179434Y-49312278D01*
X173779434Y-44162278D02*
X170979434Y-44162278D01*
X170979434Y-44162278D02*
X170979434Y-43862278D01*
X170979434Y-43862278D02*
X169429434Y-43862278D01*
X173779434Y-51862278D02*
X170979434Y-51862278D01*
X170979434Y-52162278D02*
X170979434Y-51862278D01*
X170979434Y-52162278D02*
X169429434Y-52162278D01*
G04 #@! TO.C,Y1*
X125804434Y-55444778D02*
X125804434Y-54094778D01*
X127554434Y-55444778D02*
X127554434Y-54094778D01*
G04 #@! TO.C,D6*
X108626934Y-37734778D02*
X106341934Y-37734778D01*
X108626934Y-39204778D02*
X108626934Y-37734778D01*
X106341934Y-39204778D02*
X108626934Y-39204778D01*
G04 #@! TO.C,D3*
X133164434Y-32167278D02*
X133164434Y-29882278D01*
X131694434Y-32167278D02*
X133164434Y-32167278D01*
X131694434Y-29882278D02*
X131694434Y-32167278D01*
G04 #@! TO.C,D2*
X130414434Y-32167278D02*
X130414434Y-29882278D01*
X128944434Y-32167278D02*
X130414434Y-32167278D01*
X128944434Y-29882278D02*
X128944434Y-32167278D01*
G04 #@! TO.C,D1*
X126194434Y-29234778D02*
X126194434Y-31519778D01*
X127664434Y-29234778D02*
X126194434Y-29234778D01*
X127664434Y-31519778D02*
X127664434Y-29234778D01*
G04 #@! TO.C,D5*
X142529434Y-26269778D02*
X142529434Y-27419778D01*
X149829434Y-26269778D02*
X142529434Y-26269778D01*
X149829434Y-31769778D02*
X142529434Y-31769778D01*
G04 #@! TO.C,D4*
X134529434Y-26269778D02*
X134529434Y-27419778D01*
X141829434Y-26269778D02*
X134529434Y-26269778D01*
X141829434Y-31769778D02*
X134529434Y-31769778D01*
G04 #@! TO.C,R1*
X137419434Y-37606999D02*
X137419434Y-37932557D01*
X138439434Y-37606999D02*
X138439434Y-37932557D01*
G04 #@! TO.C,R13*
X111304155Y-38979778D02*
X111629713Y-38979778D01*
X111304155Y-37959778D02*
X111629713Y-37959778D01*
G04 #@! TO.C,R8*
X157679155Y-85819778D02*
X158004713Y-85819778D01*
X157679155Y-84799778D02*
X158004713Y-84799778D01*
G04 #@! TO.C,R7*
X152929155Y-86092278D02*
X153254713Y-86092278D01*
X152929155Y-85072278D02*
X153254713Y-85072278D01*
G04 #@! TO.C,R6*
X135419434Y-37606999D02*
X135419434Y-37932557D01*
X136439434Y-37606999D02*
X136439434Y-37932557D01*
G04 #@! TO.C,R5*
X132939434Y-34632557D02*
X132939434Y-34306999D01*
X131919434Y-34632557D02*
X131919434Y-34306999D01*
G04 #@! TO.C,R4*
X130189434Y-34632557D02*
X130189434Y-34306999D01*
X129169434Y-34632557D02*
X129169434Y-34306999D01*
G04 #@! TO.C,R3*
X127439434Y-34632557D02*
X127439434Y-34306999D01*
X126419434Y-34632557D02*
X126419434Y-34306999D01*
G04 #@! TO.C,R2*
X132292213Y-36849778D02*
X131966655Y-36849778D01*
X132292213Y-37869778D02*
X131966655Y-37869778D01*
G04 #@! TO.C,C10*
X116841934Y-32249778D02*
X116841934Y-32749778D01*
X116591934Y-32499778D02*
X117091934Y-32499778D01*
X117331934Y-35255341D02*
X118396371Y-36319778D01*
X117331934Y-32864215D02*
X118396371Y-31799778D01*
X117331934Y-32864215D02*
X117331934Y-32999778D01*
X117331934Y-35255341D02*
X117331934Y-35119778D01*
X118396371Y-36319778D02*
X121851934Y-36319778D01*
X118396371Y-31799778D02*
X121851934Y-31799778D01*
X121851934Y-31799778D02*
X121851934Y-32999778D01*
X121851934Y-36319778D02*
X121851934Y-35119778D01*
G04 #@! TO.C,C9*
X118479434Y-26749778D02*
X118479434Y-27249778D01*
X118229434Y-26999778D02*
X118729434Y-26999778D01*
X118969434Y-29755341D02*
X120033871Y-30819778D01*
X118969434Y-27364215D02*
X120033871Y-26299778D01*
X118969434Y-27364215D02*
X118969434Y-27499778D01*
X118969434Y-29755341D02*
X118969434Y-29619778D01*
X120033871Y-30819778D02*
X123489434Y-30819778D01*
X120033871Y-26299778D02*
X123489434Y-26299778D01*
X123489434Y-26299778D02*
X123489434Y-27499778D01*
X123489434Y-30819778D02*
X123489434Y-29619778D01*
G04 #@! TO.C,U5*
X115441934Y-36719778D02*
X109431934Y-36719778D01*
X113191934Y-29899778D02*
X109431934Y-29899778D01*
X109431934Y-36719778D02*
X109431934Y-35459778D01*
X109431934Y-29899778D02*
X109431934Y-31159778D01*
G04 #@! TO.C,J68*
D13*
X169769910Y-60704658D02*
X169769910Y-61418944D01*
X169722291Y-61561801D01*
X169627053Y-61657039D01*
X169484195Y-61704658D01*
X169388957Y-61704658D01*
X170674672Y-60704658D02*
X170484195Y-60704658D01*
X170388957Y-60752278D01*
X170341338Y-60799897D01*
X170246100Y-60942754D01*
X170198481Y-61133230D01*
X170198481Y-61514182D01*
X170246100Y-61609420D01*
X170293719Y-61657039D01*
X170388957Y-61704658D01*
X170579434Y-61704658D01*
X170674672Y-61657039D01*
X170722291Y-61609420D01*
X170769910Y-61514182D01*
X170769910Y-61276087D01*
X170722291Y-61180849D01*
X170674672Y-61133230D01*
X170579434Y-61085611D01*
X170388957Y-61085611D01*
X170293719Y-61133230D01*
X170246100Y-61180849D01*
X170198481Y-61276087D01*
X171341338Y-61133230D02*
X171246100Y-61085611D01*
X171198481Y-61037992D01*
X171150862Y-60942754D01*
X171150862Y-60895135D01*
X171198481Y-60799897D01*
X171246100Y-60752278D01*
X171341338Y-60704658D01*
X171531814Y-60704658D01*
X171627053Y-60752278D01*
X171674672Y-60799897D01*
X171722291Y-60895135D01*
X171722291Y-60942754D01*
X171674672Y-61037992D01*
X171627053Y-61085611D01*
X171531814Y-61133230D01*
X171341338Y-61133230D01*
X171246100Y-61180849D01*
X171198481Y-61228468D01*
X171150862Y-61323706D01*
X171150862Y-61514182D01*
X171198481Y-61609420D01*
X171246100Y-61657039D01*
X171341338Y-61704658D01*
X171531814Y-61704658D01*
X171627053Y-61657039D01*
X171674672Y-61609420D01*
X171722291Y-61514182D01*
X171722291Y-61323706D01*
X171674672Y-61228468D01*
X171627053Y-61180849D01*
X171531814Y-61133230D01*
G04 #@! TO.C,J1*
X115231100Y-97907158D02*
X115231100Y-98621444D01*
X115183481Y-98764301D01*
X115088243Y-98859539D01*
X114945386Y-98907158D01*
X114850148Y-98907158D01*
X116231100Y-98907158D02*
X115659672Y-98907158D01*
X115945386Y-98907158D02*
X115945386Y-97907158D01*
X115850148Y-98050016D01*
X115754910Y-98145254D01*
X115659672Y-98192873D01*
G04 #@! TO.C,J27*
X151801814Y-45491801D02*
X152516100Y-45491801D01*
X152658957Y-45539420D01*
X152754195Y-45634658D01*
X152801814Y-45777516D01*
X152801814Y-45872754D01*
X151897053Y-45063230D02*
X151849434Y-45015611D01*
X151801814Y-44920373D01*
X151801814Y-44682278D01*
X151849434Y-44587039D01*
X151897053Y-44539420D01*
X151992291Y-44491801D01*
X152087529Y-44491801D01*
X152230386Y-44539420D01*
X152801814Y-45110849D01*
X152801814Y-44491801D01*
X151801814Y-44158468D02*
X151801814Y-43491801D01*
X152801814Y-43920373D01*
G04 #@! TO.C,J42*
X153269910Y-76704658D02*
X153269910Y-77418944D01*
X153222291Y-77561801D01*
X153127053Y-77657039D01*
X152984195Y-77704658D01*
X152888957Y-77704658D01*
X154174672Y-77037992D02*
X154174672Y-77704658D01*
X153936576Y-76657039D02*
X153698481Y-77371325D01*
X154317529Y-77371325D01*
X154650862Y-76799897D02*
X154698481Y-76752278D01*
X154793719Y-76704658D01*
X155031814Y-76704658D01*
X155127053Y-76752278D01*
X155174672Y-76799897D01*
X155222291Y-76895135D01*
X155222291Y-76990373D01*
X155174672Y-77133230D01*
X154603243Y-77704658D01*
X155222291Y-77704658D01*
G04 #@! TO.C,R10*
X160449076Y-85332158D02*
X160115743Y-84855968D01*
X159877648Y-85332158D02*
X159877648Y-84332158D01*
X160258600Y-84332158D01*
X160353838Y-84379778D01*
X160401457Y-84427397D01*
X160449076Y-84522635D01*
X160449076Y-84665492D01*
X160401457Y-84760730D01*
X160353838Y-84808349D01*
X160258600Y-84855968D01*
X159877648Y-84855968D01*
X161401457Y-85332158D02*
X160830029Y-85332158D01*
X161115743Y-85332158D02*
X161115743Y-84332158D01*
X161020505Y-84475016D01*
X160925267Y-84570254D01*
X160830029Y-84617873D01*
X162020505Y-84332158D02*
X162115743Y-84332158D01*
X162210981Y-84379778D01*
X162258600Y-84427397D01*
X162306219Y-84522635D01*
X162353838Y-84713111D01*
X162353838Y-84951206D01*
X162306219Y-85141682D01*
X162258600Y-85236920D01*
X162210981Y-85284539D01*
X162115743Y-85332158D01*
X162020505Y-85332158D01*
X161925267Y-85284539D01*
X161877648Y-85236920D01*
X161830029Y-85141682D01*
X161782410Y-84951206D01*
X161782410Y-84713111D01*
X161830029Y-84522635D01*
X161877648Y-84427397D01*
X161925267Y-84379778D01*
X162020505Y-84332158D01*
G04 #@! TO.C,U3*
X155867529Y-86034658D02*
X155867529Y-86844182D01*
X155915148Y-86939420D01*
X155962767Y-86987039D01*
X156058005Y-87034658D01*
X156248481Y-87034658D01*
X156343719Y-86987039D01*
X156391338Y-86939420D01*
X156438957Y-86844182D01*
X156438957Y-86034658D01*
X156819910Y-86034658D02*
X157438957Y-86034658D01*
X157105624Y-86415611D01*
X157248481Y-86415611D01*
X157343719Y-86463230D01*
X157391338Y-86510849D01*
X157438957Y-86606087D01*
X157438957Y-86844182D01*
X157391338Y-86939420D01*
X157343719Y-86987039D01*
X157248481Y-87034658D01*
X156962767Y-87034658D01*
X156867529Y-86987039D01*
X156819910Y-86939420D01*
G04 #@! TO.C,J23*
X134366814Y-80804301D02*
X135081100Y-80804301D01*
X135223957Y-80851920D01*
X135319195Y-80947158D01*
X135366814Y-81090016D01*
X135366814Y-81185254D01*
X134462053Y-80375730D02*
X134414434Y-80328111D01*
X134366814Y-80232873D01*
X134366814Y-79994778D01*
X134414434Y-79899539D01*
X134462053Y-79851920D01*
X134557291Y-79804301D01*
X134652529Y-79804301D01*
X134795386Y-79851920D01*
X135366814Y-80423349D01*
X135366814Y-79804301D01*
X134366814Y-79470968D02*
X134366814Y-78851920D01*
X134747767Y-79185254D01*
X134747767Y-79042397D01*
X134795386Y-78947158D01*
X134843005Y-78899539D01*
X134938243Y-78851920D01*
X135176338Y-78851920D01*
X135271576Y-78899539D01*
X135319195Y-78947158D01*
X135366814Y-79042397D01*
X135366814Y-79328111D01*
X135319195Y-79423349D01*
X135271576Y-79470968D01*
G04 #@! TO.C,J89*
X169819910Y-84704658D02*
X169819910Y-85418944D01*
X169772291Y-85561801D01*
X169677053Y-85657039D01*
X169534195Y-85704658D01*
X169438957Y-85704658D01*
X170438957Y-85133230D02*
X170343719Y-85085611D01*
X170296100Y-85037992D01*
X170248481Y-84942754D01*
X170248481Y-84895135D01*
X170296100Y-84799897D01*
X170343719Y-84752278D01*
X170438957Y-84704658D01*
X170629434Y-84704658D01*
X170724672Y-84752278D01*
X170772291Y-84799897D01*
X170819910Y-84895135D01*
X170819910Y-84942754D01*
X170772291Y-85037992D01*
X170724672Y-85085611D01*
X170629434Y-85133230D01*
X170438957Y-85133230D01*
X170343719Y-85180849D01*
X170296100Y-85228468D01*
X170248481Y-85323706D01*
X170248481Y-85514182D01*
X170296100Y-85609420D01*
X170343719Y-85657039D01*
X170438957Y-85704658D01*
X170629434Y-85704658D01*
X170724672Y-85657039D01*
X170772291Y-85609420D01*
X170819910Y-85514182D01*
X170819910Y-85323706D01*
X170772291Y-85228468D01*
X170724672Y-85180849D01*
X170629434Y-85133230D01*
X171296100Y-85704658D02*
X171486576Y-85704658D01*
X171581814Y-85657039D01*
X171629434Y-85609420D01*
X171724672Y-85466563D01*
X171772291Y-85276087D01*
X171772291Y-84895135D01*
X171724672Y-84799897D01*
X171677053Y-84752278D01*
X171581814Y-84704658D01*
X171391338Y-84704658D01*
X171296100Y-84752278D01*
X171248481Y-84799897D01*
X171200862Y-84895135D01*
X171200862Y-85133230D01*
X171248481Y-85228468D01*
X171296100Y-85276087D01*
X171391338Y-85323706D01*
X171581814Y-85323706D01*
X171677053Y-85276087D01*
X171724672Y-85228468D01*
X171772291Y-85133230D01*
G04 #@! TO.C,J85*
X158819910Y-92704658D02*
X158819910Y-93418944D01*
X158772291Y-93561801D01*
X158677053Y-93657039D01*
X158534195Y-93704658D01*
X158438957Y-93704658D01*
X159438957Y-93133230D02*
X159343719Y-93085611D01*
X159296100Y-93037992D01*
X159248481Y-92942754D01*
X159248481Y-92895135D01*
X159296100Y-92799897D01*
X159343719Y-92752278D01*
X159438957Y-92704658D01*
X159629434Y-92704658D01*
X159724672Y-92752278D01*
X159772291Y-92799897D01*
X159819910Y-92895135D01*
X159819910Y-92942754D01*
X159772291Y-93037992D01*
X159724672Y-93085611D01*
X159629434Y-93133230D01*
X159438957Y-93133230D01*
X159343719Y-93180849D01*
X159296100Y-93228468D01*
X159248481Y-93323706D01*
X159248481Y-93514182D01*
X159296100Y-93609420D01*
X159343719Y-93657039D01*
X159438957Y-93704658D01*
X159629434Y-93704658D01*
X159724672Y-93657039D01*
X159772291Y-93609420D01*
X159819910Y-93514182D01*
X159819910Y-93323706D01*
X159772291Y-93228468D01*
X159724672Y-93180849D01*
X159629434Y-93133230D01*
X160724672Y-92704658D02*
X160248481Y-92704658D01*
X160200862Y-93180849D01*
X160248481Y-93133230D01*
X160343719Y-93085611D01*
X160581814Y-93085611D01*
X160677053Y-93133230D01*
X160724672Y-93180849D01*
X160772291Y-93276087D01*
X160772291Y-93514182D01*
X160724672Y-93609420D01*
X160677053Y-93657039D01*
X160581814Y-93704658D01*
X160343719Y-93704658D01*
X160248481Y-93657039D01*
X160200862Y-93609420D01*
G04 #@! TO.C,J88*
X164319910Y-84704658D02*
X164319910Y-85418944D01*
X164272291Y-85561801D01*
X164177053Y-85657039D01*
X164034195Y-85704658D01*
X163938957Y-85704658D01*
X164938957Y-85133230D02*
X164843719Y-85085611D01*
X164796100Y-85037992D01*
X164748481Y-84942754D01*
X164748481Y-84895135D01*
X164796100Y-84799897D01*
X164843719Y-84752278D01*
X164938957Y-84704658D01*
X165129434Y-84704658D01*
X165224672Y-84752278D01*
X165272291Y-84799897D01*
X165319910Y-84895135D01*
X165319910Y-84942754D01*
X165272291Y-85037992D01*
X165224672Y-85085611D01*
X165129434Y-85133230D01*
X164938957Y-85133230D01*
X164843719Y-85180849D01*
X164796100Y-85228468D01*
X164748481Y-85323706D01*
X164748481Y-85514182D01*
X164796100Y-85609420D01*
X164843719Y-85657039D01*
X164938957Y-85704658D01*
X165129434Y-85704658D01*
X165224672Y-85657039D01*
X165272291Y-85609420D01*
X165319910Y-85514182D01*
X165319910Y-85323706D01*
X165272291Y-85228468D01*
X165224672Y-85180849D01*
X165129434Y-85133230D01*
X165891338Y-85133230D02*
X165796100Y-85085611D01*
X165748481Y-85037992D01*
X165700862Y-84942754D01*
X165700862Y-84895135D01*
X165748481Y-84799897D01*
X165796100Y-84752278D01*
X165891338Y-84704658D01*
X166081814Y-84704658D01*
X166177053Y-84752278D01*
X166224672Y-84799897D01*
X166272291Y-84895135D01*
X166272291Y-84942754D01*
X166224672Y-85037992D01*
X166177053Y-85085611D01*
X166081814Y-85133230D01*
X165891338Y-85133230D01*
X165796100Y-85180849D01*
X165748481Y-85228468D01*
X165700862Y-85323706D01*
X165700862Y-85514182D01*
X165748481Y-85609420D01*
X165796100Y-85657039D01*
X165891338Y-85704658D01*
X166081814Y-85704658D01*
X166177053Y-85657039D01*
X166224672Y-85609420D01*
X166272291Y-85514182D01*
X166272291Y-85323706D01*
X166224672Y-85228468D01*
X166177053Y-85180849D01*
X166081814Y-85133230D01*
G04 #@! TO.C,J87*
X169819910Y-92704658D02*
X169819910Y-93418944D01*
X169772291Y-93561801D01*
X169677053Y-93657039D01*
X169534195Y-93704658D01*
X169438957Y-93704658D01*
X170438957Y-93133230D02*
X170343719Y-93085611D01*
X170296100Y-93037992D01*
X170248481Y-92942754D01*
X170248481Y-92895135D01*
X170296100Y-92799897D01*
X170343719Y-92752278D01*
X170438957Y-92704658D01*
X170629434Y-92704658D01*
X170724672Y-92752278D01*
X170772291Y-92799897D01*
X170819910Y-92895135D01*
X170819910Y-92942754D01*
X170772291Y-93037992D01*
X170724672Y-93085611D01*
X170629434Y-93133230D01*
X170438957Y-93133230D01*
X170343719Y-93180849D01*
X170296100Y-93228468D01*
X170248481Y-93323706D01*
X170248481Y-93514182D01*
X170296100Y-93609420D01*
X170343719Y-93657039D01*
X170438957Y-93704658D01*
X170629434Y-93704658D01*
X170724672Y-93657039D01*
X170772291Y-93609420D01*
X170819910Y-93514182D01*
X170819910Y-93323706D01*
X170772291Y-93228468D01*
X170724672Y-93180849D01*
X170629434Y-93133230D01*
X171153243Y-92704658D02*
X171819910Y-92704658D01*
X171391338Y-93704658D01*
G04 #@! TO.C,J86*
X164319910Y-92704658D02*
X164319910Y-93418944D01*
X164272291Y-93561801D01*
X164177053Y-93657039D01*
X164034195Y-93704658D01*
X163938957Y-93704658D01*
X164938957Y-93133230D02*
X164843719Y-93085611D01*
X164796100Y-93037992D01*
X164748481Y-92942754D01*
X164748481Y-92895135D01*
X164796100Y-92799897D01*
X164843719Y-92752278D01*
X164938957Y-92704658D01*
X165129434Y-92704658D01*
X165224672Y-92752278D01*
X165272291Y-92799897D01*
X165319910Y-92895135D01*
X165319910Y-92942754D01*
X165272291Y-93037992D01*
X165224672Y-93085611D01*
X165129434Y-93133230D01*
X164938957Y-93133230D01*
X164843719Y-93180849D01*
X164796100Y-93228468D01*
X164748481Y-93323706D01*
X164748481Y-93514182D01*
X164796100Y-93609420D01*
X164843719Y-93657039D01*
X164938957Y-93704658D01*
X165129434Y-93704658D01*
X165224672Y-93657039D01*
X165272291Y-93609420D01*
X165319910Y-93514182D01*
X165319910Y-93323706D01*
X165272291Y-93228468D01*
X165224672Y-93180849D01*
X165129434Y-93133230D01*
X166177053Y-92704658D02*
X165986576Y-92704658D01*
X165891338Y-92752278D01*
X165843719Y-92799897D01*
X165748481Y-92942754D01*
X165700862Y-93133230D01*
X165700862Y-93514182D01*
X165748481Y-93609420D01*
X165796100Y-93657039D01*
X165891338Y-93704658D01*
X166081814Y-93704658D01*
X166177053Y-93657039D01*
X166224672Y-93609420D01*
X166272291Y-93514182D01*
X166272291Y-93276087D01*
X166224672Y-93180849D01*
X166177053Y-93133230D01*
X166081814Y-93085611D01*
X165891338Y-93085611D01*
X165796100Y-93133230D01*
X165748481Y-93180849D01*
X165700862Y-93276087D01*
G04 #@! TO.C,J72*
X164269910Y-100744658D02*
X164269910Y-101458944D01*
X164222291Y-101601801D01*
X164127053Y-101697039D01*
X163984195Y-101744658D01*
X163888957Y-101744658D01*
X164650862Y-100744658D02*
X165317529Y-100744658D01*
X164888957Y-101744658D01*
X165650862Y-100839897D02*
X165698481Y-100792278D01*
X165793719Y-100744658D01*
X166031814Y-100744658D01*
X166127053Y-100792278D01*
X166174672Y-100839897D01*
X166222291Y-100935135D01*
X166222291Y-101030373D01*
X166174672Y-101173230D01*
X165603243Y-101744658D01*
X166222291Y-101744658D01*
G04 #@! TO.C,J84*
X153269910Y-92704658D02*
X153269910Y-93418944D01*
X153222291Y-93561801D01*
X153127053Y-93657039D01*
X152984195Y-93704658D01*
X152888957Y-93704658D01*
X153888957Y-93133230D02*
X153793719Y-93085611D01*
X153746100Y-93037992D01*
X153698481Y-92942754D01*
X153698481Y-92895135D01*
X153746100Y-92799897D01*
X153793719Y-92752278D01*
X153888957Y-92704658D01*
X154079434Y-92704658D01*
X154174672Y-92752278D01*
X154222291Y-92799897D01*
X154269910Y-92895135D01*
X154269910Y-92942754D01*
X154222291Y-93037992D01*
X154174672Y-93085611D01*
X154079434Y-93133230D01*
X153888957Y-93133230D01*
X153793719Y-93180849D01*
X153746100Y-93228468D01*
X153698481Y-93323706D01*
X153698481Y-93514182D01*
X153746100Y-93609420D01*
X153793719Y-93657039D01*
X153888957Y-93704658D01*
X154079434Y-93704658D01*
X154174672Y-93657039D01*
X154222291Y-93609420D01*
X154269910Y-93514182D01*
X154269910Y-93323706D01*
X154222291Y-93228468D01*
X154174672Y-93180849D01*
X154079434Y-93133230D01*
X155127053Y-93037992D02*
X155127053Y-93704658D01*
X154888957Y-92657039D02*
X154650862Y-93371325D01*
X155269910Y-93371325D01*
G04 #@! TO.C,J57*
X147769910Y-100744658D02*
X147769910Y-101458944D01*
X147722291Y-101601801D01*
X147627053Y-101697039D01*
X147484195Y-101744658D01*
X147388957Y-101744658D01*
X148722291Y-100744658D02*
X148246100Y-100744658D01*
X148198481Y-101220849D01*
X148246100Y-101173230D01*
X148341338Y-101125611D01*
X148579434Y-101125611D01*
X148674672Y-101173230D01*
X148722291Y-101220849D01*
X148769910Y-101316087D01*
X148769910Y-101554182D01*
X148722291Y-101649420D01*
X148674672Y-101697039D01*
X148579434Y-101744658D01*
X148341338Y-101744658D01*
X148246100Y-101697039D01*
X148198481Y-101649420D01*
X149103243Y-100744658D02*
X149769910Y-100744658D01*
X149341338Y-101744658D01*
G04 #@! TO.C,J69*
X158769910Y-100744658D02*
X158769910Y-101458944D01*
X158722291Y-101601801D01*
X158627053Y-101697039D01*
X158484195Y-101744658D01*
X158388957Y-101744658D01*
X159674672Y-100744658D02*
X159484195Y-100744658D01*
X159388957Y-100792278D01*
X159341338Y-100839897D01*
X159246100Y-100982754D01*
X159198481Y-101173230D01*
X159198481Y-101554182D01*
X159246100Y-101649420D01*
X159293719Y-101697039D01*
X159388957Y-101744658D01*
X159579434Y-101744658D01*
X159674672Y-101697039D01*
X159722291Y-101649420D01*
X159769910Y-101554182D01*
X159769910Y-101316087D01*
X159722291Y-101220849D01*
X159674672Y-101173230D01*
X159579434Y-101125611D01*
X159388957Y-101125611D01*
X159293719Y-101173230D01*
X159246100Y-101220849D01*
X159198481Y-101316087D01*
X160246100Y-101744658D02*
X160436576Y-101744658D01*
X160531814Y-101697039D01*
X160579434Y-101649420D01*
X160674672Y-101506563D01*
X160722291Y-101316087D01*
X160722291Y-100935135D01*
X160674672Y-100839897D01*
X160627053Y-100792278D01*
X160531814Y-100744658D01*
X160341338Y-100744658D01*
X160246100Y-100792278D01*
X160198481Y-100839897D01*
X160150862Y-100935135D01*
X160150862Y-101173230D01*
X160198481Y-101268468D01*
X160246100Y-101316087D01*
X160341338Y-101363706D01*
X160531814Y-101363706D01*
X160627053Y-101316087D01*
X160674672Y-101268468D01*
X160722291Y-101173230D01*
G04 #@! TO.C,J58*
X153269910Y-100737158D02*
X153269910Y-101451444D01*
X153222291Y-101594301D01*
X153127053Y-101689539D01*
X152984195Y-101737158D01*
X152888957Y-101737158D01*
X154222291Y-100737158D02*
X153746100Y-100737158D01*
X153698481Y-101213349D01*
X153746100Y-101165730D01*
X153841338Y-101118111D01*
X154079434Y-101118111D01*
X154174672Y-101165730D01*
X154222291Y-101213349D01*
X154269910Y-101308587D01*
X154269910Y-101546682D01*
X154222291Y-101641920D01*
X154174672Y-101689539D01*
X154079434Y-101737158D01*
X153841338Y-101737158D01*
X153746100Y-101689539D01*
X153698481Y-101641920D01*
X154841338Y-101165730D02*
X154746100Y-101118111D01*
X154698481Y-101070492D01*
X154650862Y-100975254D01*
X154650862Y-100927635D01*
X154698481Y-100832397D01*
X154746100Y-100784778D01*
X154841338Y-100737158D01*
X155031814Y-100737158D01*
X155127053Y-100784778D01*
X155174672Y-100832397D01*
X155222291Y-100927635D01*
X155222291Y-100975254D01*
X155174672Y-101070492D01*
X155127053Y-101118111D01*
X155031814Y-101165730D01*
X154841338Y-101165730D01*
X154746100Y-101213349D01*
X154698481Y-101260968D01*
X154650862Y-101356206D01*
X154650862Y-101546682D01*
X154698481Y-101641920D01*
X154746100Y-101689539D01*
X154841338Y-101737158D01*
X155031814Y-101737158D01*
X155127053Y-101689539D01*
X155174672Y-101641920D01*
X155222291Y-101546682D01*
X155222291Y-101356206D01*
X155174672Y-101260968D01*
X155127053Y-101213349D01*
X155031814Y-101165730D01*
G04 #@! TO.C,J56*
X139904910Y-98004658D02*
X139904910Y-98718944D01*
X139857291Y-98861801D01*
X139762053Y-98957039D01*
X139619195Y-99004658D01*
X139523957Y-99004658D01*
X140857291Y-98004658D02*
X140381100Y-98004658D01*
X140333481Y-98480849D01*
X140381100Y-98433230D01*
X140476338Y-98385611D01*
X140714434Y-98385611D01*
X140809672Y-98433230D01*
X140857291Y-98480849D01*
X140904910Y-98576087D01*
X140904910Y-98814182D01*
X140857291Y-98909420D01*
X140809672Y-98957039D01*
X140714434Y-99004658D01*
X140476338Y-99004658D01*
X140381100Y-98957039D01*
X140333481Y-98909420D01*
X141762053Y-98004658D02*
X141571576Y-98004658D01*
X141476338Y-98052278D01*
X141428719Y-98099897D01*
X141333481Y-98242754D01*
X141285862Y-98433230D01*
X141285862Y-98814182D01*
X141333481Y-98909420D01*
X141381100Y-98957039D01*
X141476338Y-99004658D01*
X141666814Y-99004658D01*
X141762053Y-98957039D01*
X141809672Y-98909420D01*
X141857291Y-98814182D01*
X141857291Y-98576087D01*
X141809672Y-98480849D01*
X141762053Y-98433230D01*
X141666814Y-98385611D01*
X141476338Y-98385611D01*
X141381100Y-98433230D01*
X141333481Y-98480849D01*
X141285862Y-98576087D01*
G04 #@! TO.C,J55*
X147819910Y-92754658D02*
X147819910Y-93468944D01*
X147772291Y-93611801D01*
X147677053Y-93707039D01*
X147534195Y-93754658D01*
X147438957Y-93754658D01*
X148772291Y-92754658D02*
X148296100Y-92754658D01*
X148248481Y-93230849D01*
X148296100Y-93183230D01*
X148391338Y-93135611D01*
X148629434Y-93135611D01*
X148724672Y-93183230D01*
X148772291Y-93230849D01*
X148819910Y-93326087D01*
X148819910Y-93564182D01*
X148772291Y-93659420D01*
X148724672Y-93707039D01*
X148629434Y-93754658D01*
X148391338Y-93754658D01*
X148296100Y-93707039D01*
X148248481Y-93659420D01*
X149724672Y-92754658D02*
X149248481Y-92754658D01*
X149200862Y-93230849D01*
X149248481Y-93183230D01*
X149343719Y-93135611D01*
X149581814Y-93135611D01*
X149677053Y-93183230D01*
X149724672Y-93230849D01*
X149772291Y-93326087D01*
X149772291Y-93564182D01*
X149724672Y-93659420D01*
X149677053Y-93707039D01*
X149581814Y-93754658D01*
X149343719Y-93754658D01*
X149248481Y-93707039D01*
X149200862Y-93659420D01*
G04 #@! TO.C,J54*
X147819910Y-84754658D02*
X147819910Y-85468944D01*
X147772291Y-85611801D01*
X147677053Y-85707039D01*
X147534195Y-85754658D01*
X147438957Y-85754658D01*
X148772291Y-84754658D02*
X148296100Y-84754658D01*
X148248481Y-85230849D01*
X148296100Y-85183230D01*
X148391338Y-85135611D01*
X148629434Y-85135611D01*
X148724672Y-85183230D01*
X148772291Y-85230849D01*
X148819910Y-85326087D01*
X148819910Y-85564182D01*
X148772291Y-85659420D01*
X148724672Y-85707039D01*
X148629434Y-85754658D01*
X148391338Y-85754658D01*
X148296100Y-85707039D01*
X148248481Y-85659420D01*
X149677053Y-85087992D02*
X149677053Y-85754658D01*
X149438957Y-84707039D02*
X149200862Y-85421325D01*
X149819910Y-85421325D01*
G04 #@! TO.C,J53*
X147819910Y-76754658D02*
X147819910Y-77468944D01*
X147772291Y-77611801D01*
X147677053Y-77707039D01*
X147534195Y-77754658D01*
X147438957Y-77754658D01*
X148772291Y-76754658D02*
X148296100Y-76754658D01*
X148248481Y-77230849D01*
X148296100Y-77183230D01*
X148391338Y-77135611D01*
X148629434Y-77135611D01*
X148724672Y-77183230D01*
X148772291Y-77230849D01*
X148819910Y-77326087D01*
X148819910Y-77564182D01*
X148772291Y-77659420D01*
X148724672Y-77707039D01*
X148629434Y-77754658D01*
X148391338Y-77754658D01*
X148296100Y-77707039D01*
X148248481Y-77659420D01*
X149153243Y-76754658D02*
X149772291Y-76754658D01*
X149438957Y-77135611D01*
X149581814Y-77135611D01*
X149677053Y-77183230D01*
X149724672Y-77230849D01*
X149772291Y-77326087D01*
X149772291Y-77564182D01*
X149724672Y-77659420D01*
X149677053Y-77707039D01*
X149581814Y-77754658D01*
X149296100Y-77754658D01*
X149200862Y-77707039D01*
X149153243Y-77659420D01*
G04 #@! TO.C,J40*
X133151814Y-76619301D02*
X133866100Y-76619301D01*
X134008957Y-76666920D01*
X134104195Y-76762158D01*
X134151814Y-76905016D01*
X134151814Y-77000254D01*
X133485148Y-75714539D02*
X134151814Y-75714539D01*
X133104195Y-75952635D02*
X133818481Y-76190730D01*
X133818481Y-75571682D01*
X133151814Y-75000254D02*
X133151814Y-74905016D01*
X133199434Y-74809778D01*
X133247053Y-74762158D01*
X133342291Y-74714539D01*
X133532767Y-74666920D01*
X133770862Y-74666920D01*
X133961338Y-74714539D01*
X134056576Y-74762158D01*
X134104195Y-74809778D01*
X134151814Y-74905016D01*
X134151814Y-75000254D01*
X134104195Y-75095492D01*
X134056576Y-75143111D01*
X133961338Y-75190730D01*
X133770862Y-75238349D01*
X133532767Y-75238349D01*
X133342291Y-75190730D01*
X133247053Y-75143111D01*
X133199434Y-75095492D01*
X133151814Y-75000254D01*
G04 #@! TO.C,J32*
X123519910Y-69682158D02*
X123519910Y-70396444D01*
X123472291Y-70539301D01*
X123377053Y-70634539D01*
X123234195Y-70682158D01*
X123138957Y-70682158D01*
X123900862Y-69682158D02*
X124519910Y-69682158D01*
X124186576Y-70063111D01*
X124329434Y-70063111D01*
X124424672Y-70110730D01*
X124472291Y-70158349D01*
X124519910Y-70253587D01*
X124519910Y-70491682D01*
X124472291Y-70586920D01*
X124424672Y-70634539D01*
X124329434Y-70682158D01*
X124043719Y-70682158D01*
X123948481Y-70634539D01*
X123900862Y-70586920D01*
X124900862Y-69777397D02*
X124948481Y-69729778D01*
X125043719Y-69682158D01*
X125281814Y-69682158D01*
X125377053Y-69729778D01*
X125424672Y-69777397D01*
X125472291Y-69872635D01*
X125472291Y-69967873D01*
X125424672Y-70110730D01*
X124853243Y-70682158D01*
X125472291Y-70682158D01*
G04 #@! TO.C,J44*
X164269910Y-76704658D02*
X164269910Y-77418944D01*
X164222291Y-77561801D01*
X164127053Y-77657039D01*
X163984195Y-77704658D01*
X163888957Y-77704658D01*
X165174672Y-77037992D02*
X165174672Y-77704658D01*
X164936576Y-76657039D02*
X164698481Y-77371325D01*
X165317529Y-77371325D01*
X166127053Y-77037992D02*
X166127053Y-77704658D01*
X165888957Y-76657039D02*
X165650862Y-77371325D01*
X166269910Y-77371325D01*
G04 #@! TO.C,J33*
X169769910Y-68704658D02*
X169769910Y-69418944D01*
X169722291Y-69561801D01*
X169627053Y-69657039D01*
X169484195Y-69704658D01*
X169388957Y-69704658D01*
X170150862Y-68704658D02*
X170769910Y-68704658D01*
X170436576Y-69085611D01*
X170579434Y-69085611D01*
X170674672Y-69133230D01*
X170722291Y-69180849D01*
X170769910Y-69276087D01*
X170769910Y-69514182D01*
X170722291Y-69609420D01*
X170674672Y-69657039D01*
X170579434Y-69704658D01*
X170293719Y-69704658D01*
X170198481Y-69657039D01*
X170150862Y-69609420D01*
X171103243Y-68704658D02*
X171722291Y-68704658D01*
X171388957Y-69085611D01*
X171531814Y-69085611D01*
X171627053Y-69133230D01*
X171674672Y-69180849D01*
X171722291Y-69276087D01*
X171722291Y-69514182D01*
X171674672Y-69609420D01*
X171627053Y-69657039D01*
X171531814Y-69704658D01*
X171246100Y-69704658D01*
X171150862Y-69657039D01*
X171103243Y-69609420D01*
G04 #@! TO.C,J47*
X164269910Y-52664658D02*
X164269910Y-53378944D01*
X164222291Y-53521801D01*
X164127053Y-53617039D01*
X163984195Y-53664658D01*
X163888957Y-53664658D01*
X165174672Y-52997992D02*
X165174672Y-53664658D01*
X164936576Y-52617039D02*
X164698481Y-53331325D01*
X165317529Y-53331325D01*
X165603243Y-52664658D02*
X166269910Y-52664658D01*
X165841338Y-53664658D01*
G04 #@! TO.C,J8*
X115246100Y-74182158D02*
X115246100Y-74896444D01*
X115198481Y-75039301D01*
X115103243Y-75134539D01*
X114960386Y-75182158D01*
X114865148Y-75182158D01*
X115865148Y-74610730D02*
X115769910Y-74563111D01*
X115722291Y-74515492D01*
X115674672Y-74420254D01*
X115674672Y-74372635D01*
X115722291Y-74277397D01*
X115769910Y-74229778D01*
X115865148Y-74182158D01*
X116055624Y-74182158D01*
X116150862Y-74229778D01*
X116198481Y-74277397D01*
X116246100Y-74372635D01*
X116246100Y-74420254D01*
X116198481Y-74515492D01*
X116150862Y-74563111D01*
X116055624Y-74610730D01*
X115865148Y-74610730D01*
X115769910Y-74658349D01*
X115722291Y-74705968D01*
X115674672Y-74801206D01*
X115674672Y-74991682D01*
X115722291Y-75086920D01*
X115769910Y-75134539D01*
X115865148Y-75182158D01*
X116055624Y-75182158D01*
X116150862Y-75134539D01*
X116198481Y-75086920D01*
X116246100Y-74991682D01*
X116246100Y-74801206D01*
X116198481Y-74705968D01*
X116150862Y-74658349D01*
X116055624Y-74610730D01*
G04 #@! TO.C,J10*
X109269910Y-66182158D02*
X109269910Y-66896444D01*
X109222291Y-67039301D01*
X109127053Y-67134539D01*
X108984195Y-67182158D01*
X108888957Y-67182158D01*
X110269910Y-67182158D02*
X109698481Y-67182158D01*
X109984195Y-67182158D02*
X109984195Y-66182158D01*
X109888957Y-66325016D01*
X109793719Y-66420254D01*
X109698481Y-66467873D01*
X110888957Y-66182158D02*
X110984195Y-66182158D01*
X111079434Y-66229778D01*
X111127053Y-66277397D01*
X111174672Y-66372635D01*
X111222291Y-66563111D01*
X111222291Y-66801206D01*
X111174672Y-66991682D01*
X111127053Y-67086920D01*
X111079434Y-67134539D01*
X110984195Y-67182158D01*
X110888957Y-67182158D01*
X110793719Y-67134539D01*
X110746100Y-67086920D01*
X110698481Y-66991682D01*
X110650862Y-66801206D01*
X110650862Y-66563111D01*
X110698481Y-66372635D01*
X110746100Y-66277397D01*
X110793719Y-66229778D01*
X110888957Y-66182158D01*
G04 #@! TO.C,J45*
X169769910Y-76704658D02*
X169769910Y-77418944D01*
X169722291Y-77561801D01*
X169627053Y-77657039D01*
X169484195Y-77704658D01*
X169388957Y-77704658D01*
X170674672Y-77037992D02*
X170674672Y-77704658D01*
X170436576Y-76657039D02*
X170198481Y-77371325D01*
X170817529Y-77371325D01*
X171674672Y-76704658D02*
X171198481Y-76704658D01*
X171150862Y-77180849D01*
X171198481Y-77133230D01*
X171293719Y-77085611D01*
X171531814Y-77085611D01*
X171627053Y-77133230D01*
X171674672Y-77180849D01*
X171722291Y-77276087D01*
X171722291Y-77514182D01*
X171674672Y-77609420D01*
X171627053Y-77657039D01*
X171531814Y-77704658D01*
X171293719Y-77704658D01*
X171198481Y-77657039D01*
X171150862Y-77609420D01*
G04 #@! TO.C,J24*
X139904910Y-89947158D02*
X139904910Y-90661444D01*
X139857291Y-90804301D01*
X139762053Y-90899539D01*
X139619195Y-90947158D01*
X139523957Y-90947158D01*
X140333481Y-90042397D02*
X140381100Y-89994778D01*
X140476338Y-89947158D01*
X140714434Y-89947158D01*
X140809672Y-89994778D01*
X140857291Y-90042397D01*
X140904910Y-90137635D01*
X140904910Y-90232873D01*
X140857291Y-90375730D01*
X140285862Y-90947158D01*
X140904910Y-90947158D01*
X141762053Y-90280492D02*
X141762053Y-90947158D01*
X141523957Y-89899539D02*
X141285862Y-90613825D01*
X141904910Y-90613825D01*
G04 #@! TO.C,J2*
X159246100Y-68704658D02*
X159246100Y-69418944D01*
X159198481Y-69561801D01*
X159103243Y-69657039D01*
X158960386Y-69704658D01*
X158865148Y-69704658D01*
X159674672Y-68799897D02*
X159722291Y-68752278D01*
X159817529Y-68704658D01*
X160055624Y-68704658D01*
X160150862Y-68752278D01*
X160198481Y-68799897D01*
X160246100Y-68895135D01*
X160246100Y-68990373D01*
X160198481Y-69133230D01*
X159627053Y-69704658D01*
X160246100Y-69704658D01*
G04 #@! TO.C,J3*
X153746100Y-68704658D02*
X153746100Y-69418944D01*
X153698481Y-69561801D01*
X153603243Y-69657039D01*
X153460386Y-69704658D01*
X153365148Y-69704658D01*
X154127053Y-68704658D02*
X154746100Y-68704658D01*
X154412767Y-69085611D01*
X154555624Y-69085611D01*
X154650862Y-69133230D01*
X154698481Y-69180849D01*
X154746100Y-69276087D01*
X154746100Y-69514182D01*
X154698481Y-69609420D01*
X154650862Y-69657039D01*
X154555624Y-69704658D01*
X154269910Y-69704658D01*
X154174672Y-69657039D01*
X154127053Y-69609420D01*
G04 #@! TO.C,J4*
X109746100Y-82182158D02*
X109746100Y-82896444D01*
X109698481Y-83039301D01*
X109603243Y-83134539D01*
X109460386Y-83182158D01*
X109365148Y-83182158D01*
X110650862Y-82515492D02*
X110650862Y-83182158D01*
X110412767Y-82134539D02*
X110174672Y-82848825D01*
X110793719Y-82848825D01*
G04 #@! TO.C,J5*
X115246100Y-82182158D02*
X115246100Y-82896444D01*
X115198481Y-83039301D01*
X115103243Y-83134539D01*
X114960386Y-83182158D01*
X114865148Y-83182158D01*
X116198481Y-82182158D02*
X115722291Y-82182158D01*
X115674672Y-82658349D01*
X115722291Y-82610730D01*
X115817529Y-82563111D01*
X116055624Y-82563111D01*
X116150862Y-82610730D01*
X116198481Y-82658349D01*
X116246100Y-82753587D01*
X116246100Y-82991682D01*
X116198481Y-83086920D01*
X116150862Y-83134539D01*
X116055624Y-83182158D01*
X115817529Y-83182158D01*
X115722291Y-83134539D01*
X115674672Y-83086920D01*
G04 #@! TO.C,J6*
X109746100Y-74182158D02*
X109746100Y-74896444D01*
X109698481Y-75039301D01*
X109603243Y-75134539D01*
X109460386Y-75182158D01*
X109365148Y-75182158D01*
X110650862Y-74182158D02*
X110460386Y-74182158D01*
X110365148Y-74229778D01*
X110317529Y-74277397D01*
X110222291Y-74420254D01*
X110174672Y-74610730D01*
X110174672Y-74991682D01*
X110222291Y-75086920D01*
X110269910Y-75134539D01*
X110365148Y-75182158D01*
X110555624Y-75182158D01*
X110650862Y-75134539D01*
X110698481Y-75086920D01*
X110746100Y-74991682D01*
X110746100Y-74753587D01*
X110698481Y-74658349D01*
X110650862Y-74610730D01*
X110555624Y-74563111D01*
X110365148Y-74563111D01*
X110269910Y-74610730D01*
X110222291Y-74658349D01*
X110174672Y-74753587D01*
G04 #@! TO.C,J7*
D11*
X114852124Y-23600444D02*
X115209267Y-23600444D01*
X115280695Y-23624254D01*
X115328314Y-23671873D01*
X115352124Y-23743301D01*
X115352124Y-23790920D01*
X114852124Y-23409968D02*
X114852124Y-23076635D01*
X115352124Y-23290920D01*
G04 #@! TO.C,J9*
D13*
X103996100Y-66182158D02*
X103996100Y-66896444D01*
X103948481Y-67039301D01*
X103853243Y-67134539D01*
X103710386Y-67182158D01*
X103615148Y-67182158D01*
X104519910Y-67182158D02*
X104710386Y-67182158D01*
X104805624Y-67134539D01*
X104853243Y-67086920D01*
X104948481Y-66944063D01*
X104996100Y-66753587D01*
X104996100Y-66372635D01*
X104948481Y-66277397D01*
X104900862Y-66229778D01*
X104805624Y-66182158D01*
X104615148Y-66182158D01*
X104519910Y-66229778D01*
X104472291Y-66277397D01*
X104424672Y-66372635D01*
X104424672Y-66610730D01*
X104472291Y-66705968D01*
X104519910Y-66753587D01*
X104615148Y-66801206D01*
X104805624Y-66801206D01*
X104900862Y-66753587D01*
X104948481Y-66705968D01*
X104996100Y-66610730D01*
G04 #@! TO.C,J26*
X125869910Y-42142158D02*
X125869910Y-42856444D01*
X125822291Y-42999301D01*
X125727053Y-43094539D01*
X125584195Y-43142158D01*
X125488957Y-43142158D01*
X126298481Y-42237397D02*
X126346100Y-42189778D01*
X126441338Y-42142158D01*
X126679434Y-42142158D01*
X126774672Y-42189778D01*
X126822291Y-42237397D01*
X126869910Y-42332635D01*
X126869910Y-42427873D01*
X126822291Y-42570730D01*
X126250862Y-43142158D01*
X126869910Y-43142158D01*
X127727053Y-42142158D02*
X127536576Y-42142158D01*
X127441338Y-42189778D01*
X127393719Y-42237397D01*
X127298481Y-42380254D01*
X127250862Y-42570730D01*
X127250862Y-42951682D01*
X127298481Y-43046920D01*
X127346100Y-43094539D01*
X127441338Y-43142158D01*
X127631814Y-43142158D01*
X127727053Y-43094539D01*
X127774672Y-43046920D01*
X127822291Y-42951682D01*
X127822291Y-42713587D01*
X127774672Y-42618349D01*
X127727053Y-42570730D01*
X127631814Y-42523111D01*
X127441338Y-42523111D01*
X127346100Y-42570730D01*
X127298481Y-42618349D01*
X127250862Y-42713587D01*
G04 #@! TO.C,J64*
X103519910Y-50182158D02*
X103519910Y-50896444D01*
X103472291Y-51039301D01*
X103377053Y-51134539D01*
X103234195Y-51182158D01*
X103138957Y-51182158D01*
X104424672Y-50182158D02*
X104234195Y-50182158D01*
X104138957Y-50229778D01*
X104091338Y-50277397D01*
X103996100Y-50420254D01*
X103948481Y-50610730D01*
X103948481Y-50991682D01*
X103996100Y-51086920D01*
X104043719Y-51134539D01*
X104138957Y-51182158D01*
X104329434Y-51182158D01*
X104424672Y-51134539D01*
X104472291Y-51086920D01*
X104519910Y-50991682D01*
X104519910Y-50753587D01*
X104472291Y-50658349D01*
X104424672Y-50610730D01*
X104329434Y-50563111D01*
X104138957Y-50563111D01*
X104043719Y-50610730D01*
X103996100Y-50658349D01*
X103948481Y-50753587D01*
X105377053Y-50515492D02*
X105377053Y-51182158D01*
X105138957Y-50134539D02*
X104900862Y-50848825D01*
X105519910Y-50848825D01*
G04 #@! TO.C,J31*
X153269910Y-60664658D02*
X153269910Y-61378944D01*
X153222291Y-61521801D01*
X153127053Y-61617039D01*
X152984195Y-61664658D01*
X152888957Y-61664658D01*
X153650862Y-60664658D02*
X154269910Y-60664658D01*
X153936576Y-61045611D01*
X154079434Y-61045611D01*
X154174672Y-61093230D01*
X154222291Y-61140849D01*
X154269910Y-61236087D01*
X154269910Y-61474182D01*
X154222291Y-61569420D01*
X154174672Y-61617039D01*
X154079434Y-61664658D01*
X153793719Y-61664658D01*
X153698481Y-61617039D01*
X153650862Y-61569420D01*
X155222291Y-61664658D02*
X154650862Y-61664658D01*
X154936576Y-61664658D02*
X154936576Y-60664658D01*
X154841338Y-60807516D01*
X154746100Y-60902754D01*
X154650862Y-60950373D01*
G04 #@! TO.C,J30*
X158769910Y-60664658D02*
X158769910Y-61378944D01*
X158722291Y-61521801D01*
X158627053Y-61617039D01*
X158484195Y-61664658D01*
X158388957Y-61664658D01*
X159150862Y-60664658D02*
X159769910Y-60664658D01*
X159436576Y-61045611D01*
X159579434Y-61045611D01*
X159674672Y-61093230D01*
X159722291Y-61140849D01*
X159769910Y-61236087D01*
X159769910Y-61474182D01*
X159722291Y-61569420D01*
X159674672Y-61617039D01*
X159579434Y-61664658D01*
X159293719Y-61664658D01*
X159198481Y-61617039D01*
X159150862Y-61569420D01*
X160388957Y-60664658D02*
X160484195Y-60664658D01*
X160579434Y-60712278D01*
X160627053Y-60759897D01*
X160674672Y-60855135D01*
X160722291Y-61045611D01*
X160722291Y-61283706D01*
X160674672Y-61474182D01*
X160627053Y-61569420D01*
X160579434Y-61617039D01*
X160484195Y-61664658D01*
X160388957Y-61664658D01*
X160293719Y-61617039D01*
X160246100Y-61569420D01*
X160198481Y-61474182D01*
X160150862Y-61283706D01*
X160150862Y-61045611D01*
X160198481Y-60855135D01*
X160246100Y-60759897D01*
X160293719Y-60712278D01*
X160388957Y-60664658D01*
G04 #@! TO.C,J29*
X120369910Y-42142158D02*
X120369910Y-42856444D01*
X120322291Y-42999301D01*
X120227053Y-43094539D01*
X120084195Y-43142158D01*
X119988957Y-43142158D01*
X120798481Y-42237397D02*
X120846100Y-42189778D01*
X120941338Y-42142158D01*
X121179434Y-42142158D01*
X121274672Y-42189778D01*
X121322291Y-42237397D01*
X121369910Y-42332635D01*
X121369910Y-42427873D01*
X121322291Y-42570730D01*
X120750862Y-43142158D01*
X121369910Y-43142158D01*
X121846100Y-43142158D02*
X122036576Y-43142158D01*
X122131814Y-43094539D01*
X122179434Y-43046920D01*
X122274672Y-42904063D01*
X122322291Y-42713587D01*
X122322291Y-42332635D01*
X122274672Y-42237397D01*
X122227053Y-42189778D01*
X122131814Y-42142158D01*
X121941338Y-42142158D01*
X121846100Y-42189778D01*
X121798481Y-42237397D01*
X121750862Y-42332635D01*
X121750862Y-42570730D01*
X121798481Y-42665968D01*
X121846100Y-42713587D01*
X121941338Y-42761206D01*
X122131814Y-42761206D01*
X122227053Y-42713587D01*
X122274672Y-42665968D01*
X122322291Y-42570730D01*
G04 #@! TO.C,J28*
X159601814Y-45491801D02*
X160316100Y-45491801D01*
X160458957Y-45539420D01*
X160554195Y-45634658D01*
X160601814Y-45777516D01*
X160601814Y-45872754D01*
X159697053Y-45063230D02*
X159649434Y-45015611D01*
X159601814Y-44920373D01*
X159601814Y-44682278D01*
X159649434Y-44587039D01*
X159697053Y-44539420D01*
X159792291Y-44491801D01*
X159887529Y-44491801D01*
X160030386Y-44539420D01*
X160601814Y-45110849D01*
X160601814Y-44491801D01*
X160030386Y-43920373D02*
X159982767Y-44015611D01*
X159935148Y-44063230D01*
X159839910Y-44110849D01*
X159792291Y-44110849D01*
X159697053Y-44063230D01*
X159649434Y-44015611D01*
X159601814Y-43920373D01*
X159601814Y-43729897D01*
X159649434Y-43634658D01*
X159697053Y-43587039D01*
X159792291Y-43539420D01*
X159839910Y-43539420D01*
X159935148Y-43587039D01*
X159982767Y-43634658D01*
X160030386Y-43729897D01*
X160030386Y-43920373D01*
X160078005Y-44015611D01*
X160125624Y-44063230D01*
X160220862Y-44110849D01*
X160411338Y-44110849D01*
X160506576Y-44063230D01*
X160554195Y-44015611D01*
X160601814Y-43920373D01*
X160601814Y-43729897D01*
X160554195Y-43634658D01*
X160506576Y-43587039D01*
X160411338Y-43539420D01*
X160220862Y-43539420D01*
X160125624Y-43587039D01*
X160078005Y-43634658D01*
X160030386Y-43729897D01*
G04 #@! TO.C,J34*
X164269910Y-68704658D02*
X164269910Y-69418944D01*
X164222291Y-69561801D01*
X164127053Y-69657039D01*
X163984195Y-69704658D01*
X163888957Y-69704658D01*
X164650862Y-68704658D02*
X165269910Y-68704658D01*
X164936576Y-69085611D01*
X165079434Y-69085611D01*
X165174672Y-69133230D01*
X165222291Y-69180849D01*
X165269910Y-69276087D01*
X165269910Y-69514182D01*
X165222291Y-69609420D01*
X165174672Y-69657039D01*
X165079434Y-69704658D01*
X164793719Y-69704658D01*
X164698481Y-69657039D01*
X164650862Y-69609420D01*
X166127053Y-69037992D02*
X166127053Y-69704658D01*
X165888957Y-68657039D02*
X165650862Y-69371325D01*
X166269910Y-69371325D01*
G04 #@! TO.C,J25*
X124154910Y-81867158D02*
X124154910Y-82581444D01*
X124107291Y-82724301D01*
X124012053Y-82819539D01*
X123869195Y-82867158D01*
X123773957Y-82867158D01*
X124583481Y-81962397D02*
X124631100Y-81914778D01*
X124726338Y-81867158D01*
X124964434Y-81867158D01*
X125059672Y-81914778D01*
X125107291Y-81962397D01*
X125154910Y-82057635D01*
X125154910Y-82152873D01*
X125107291Y-82295730D01*
X124535862Y-82867158D01*
X125154910Y-82867158D01*
X126059672Y-81867158D02*
X125583481Y-81867158D01*
X125535862Y-82343349D01*
X125583481Y-82295730D01*
X125678719Y-82248111D01*
X125916814Y-82248111D01*
X126012053Y-82295730D01*
X126059672Y-82343349D01*
X126107291Y-82438587D01*
X126107291Y-82676682D01*
X126059672Y-82771920D01*
X126012053Y-82819539D01*
X125916814Y-82867158D01*
X125678719Y-82867158D01*
X125583481Y-82819539D01*
X125535862Y-82771920D01*
G04 #@! TO.C,J35*
X124154910Y-97907158D02*
X124154910Y-98621444D01*
X124107291Y-98764301D01*
X124012053Y-98859539D01*
X123869195Y-98907158D01*
X123773957Y-98907158D01*
X124535862Y-97907158D02*
X125154910Y-97907158D01*
X124821576Y-98288111D01*
X124964434Y-98288111D01*
X125059672Y-98335730D01*
X125107291Y-98383349D01*
X125154910Y-98478587D01*
X125154910Y-98716682D01*
X125107291Y-98811920D01*
X125059672Y-98859539D01*
X124964434Y-98907158D01*
X124678719Y-98907158D01*
X124583481Y-98859539D01*
X124535862Y-98811920D01*
X126059672Y-97907158D02*
X125583481Y-97907158D01*
X125535862Y-98383349D01*
X125583481Y-98335730D01*
X125678719Y-98288111D01*
X125916814Y-98288111D01*
X126012053Y-98335730D01*
X126059672Y-98383349D01*
X126107291Y-98478587D01*
X126107291Y-98716682D01*
X126059672Y-98811920D01*
X126012053Y-98859539D01*
X125916814Y-98907158D01*
X125678719Y-98907158D01*
X125583481Y-98859539D01*
X125535862Y-98811920D01*
G04 #@! TO.C,J36*
X129404910Y-97947158D02*
X129404910Y-98661444D01*
X129357291Y-98804301D01*
X129262053Y-98899539D01*
X129119195Y-98947158D01*
X129023957Y-98947158D01*
X129785862Y-97947158D02*
X130404910Y-97947158D01*
X130071576Y-98328111D01*
X130214434Y-98328111D01*
X130309672Y-98375730D01*
X130357291Y-98423349D01*
X130404910Y-98518587D01*
X130404910Y-98756682D01*
X130357291Y-98851920D01*
X130309672Y-98899539D01*
X130214434Y-98947158D01*
X129928719Y-98947158D01*
X129833481Y-98899539D01*
X129785862Y-98851920D01*
X131262053Y-97947158D02*
X131071576Y-97947158D01*
X130976338Y-97994778D01*
X130928719Y-98042397D01*
X130833481Y-98185254D01*
X130785862Y-98375730D01*
X130785862Y-98756682D01*
X130833481Y-98851920D01*
X130881100Y-98899539D01*
X130976338Y-98947158D01*
X131166814Y-98947158D01*
X131262053Y-98899539D01*
X131309672Y-98851920D01*
X131357291Y-98756682D01*
X131357291Y-98518587D01*
X131309672Y-98423349D01*
X131262053Y-98375730D01*
X131166814Y-98328111D01*
X130976338Y-98328111D01*
X130881100Y-98375730D01*
X130833481Y-98423349D01*
X130785862Y-98518587D01*
G04 #@! TO.C,J37*
X134654910Y-81947158D02*
X134654910Y-82661444D01*
X134607291Y-82804301D01*
X134512053Y-82899539D01*
X134369195Y-82947158D01*
X134273957Y-82947158D01*
X135035862Y-81947158D02*
X135654910Y-81947158D01*
X135321576Y-82328111D01*
X135464434Y-82328111D01*
X135559672Y-82375730D01*
X135607291Y-82423349D01*
X135654910Y-82518587D01*
X135654910Y-82756682D01*
X135607291Y-82851920D01*
X135559672Y-82899539D01*
X135464434Y-82947158D01*
X135178719Y-82947158D01*
X135083481Y-82899539D01*
X135035862Y-82851920D01*
X135988243Y-81947158D02*
X136654910Y-81947158D01*
X136226338Y-82947158D01*
G04 #@! TO.C,J38*
X129404910Y-81907158D02*
X129404910Y-82621444D01*
X129357291Y-82764301D01*
X129262053Y-82859539D01*
X129119195Y-82907158D01*
X129023957Y-82907158D01*
X129785862Y-81907158D02*
X130404910Y-81907158D01*
X130071576Y-82288111D01*
X130214434Y-82288111D01*
X130309672Y-82335730D01*
X130357291Y-82383349D01*
X130404910Y-82478587D01*
X130404910Y-82716682D01*
X130357291Y-82811920D01*
X130309672Y-82859539D01*
X130214434Y-82907158D01*
X129928719Y-82907158D01*
X129833481Y-82859539D01*
X129785862Y-82811920D01*
X130976338Y-82335730D02*
X130881100Y-82288111D01*
X130833481Y-82240492D01*
X130785862Y-82145254D01*
X130785862Y-82097635D01*
X130833481Y-82002397D01*
X130881100Y-81954778D01*
X130976338Y-81907158D01*
X131166814Y-81907158D01*
X131262053Y-81954778D01*
X131309672Y-82002397D01*
X131357291Y-82097635D01*
X131357291Y-82145254D01*
X131309672Y-82240492D01*
X131262053Y-82288111D01*
X131166814Y-82335730D01*
X130976338Y-82335730D01*
X130881100Y-82383349D01*
X130833481Y-82430968D01*
X130785862Y-82526206D01*
X130785862Y-82716682D01*
X130833481Y-82811920D01*
X130881100Y-82859539D01*
X130976338Y-82907158D01*
X131166814Y-82907158D01*
X131262053Y-82859539D01*
X131309672Y-82811920D01*
X131357291Y-82716682D01*
X131357291Y-82526206D01*
X131309672Y-82430968D01*
X131262053Y-82383349D01*
X131166814Y-82335730D01*
G04 #@! TO.C,J39*
X129404910Y-89947158D02*
X129404910Y-90661444D01*
X129357291Y-90804301D01*
X129262053Y-90899539D01*
X129119195Y-90947158D01*
X129023957Y-90947158D01*
X129785862Y-89947158D02*
X130404910Y-89947158D01*
X130071576Y-90328111D01*
X130214434Y-90328111D01*
X130309672Y-90375730D01*
X130357291Y-90423349D01*
X130404910Y-90518587D01*
X130404910Y-90756682D01*
X130357291Y-90851920D01*
X130309672Y-90899539D01*
X130214434Y-90947158D01*
X129928719Y-90947158D01*
X129833481Y-90899539D01*
X129785862Y-90851920D01*
X130881100Y-90947158D02*
X131071576Y-90947158D01*
X131166814Y-90899539D01*
X131214434Y-90851920D01*
X131309672Y-90709063D01*
X131357291Y-90518587D01*
X131357291Y-90137635D01*
X131309672Y-90042397D01*
X131262053Y-89994778D01*
X131166814Y-89947158D01*
X130976338Y-89947158D01*
X130881100Y-89994778D01*
X130833481Y-90042397D01*
X130785862Y-90137635D01*
X130785862Y-90375730D01*
X130833481Y-90470968D01*
X130881100Y-90518587D01*
X130976338Y-90566206D01*
X131166814Y-90566206D01*
X131262053Y-90518587D01*
X131309672Y-90470968D01*
X131357291Y-90375730D01*
G04 #@! TO.C,J50*
X164269910Y-60664658D02*
X164269910Y-61378944D01*
X164222291Y-61521801D01*
X164127053Y-61617039D01*
X163984195Y-61664658D01*
X163888957Y-61664658D01*
X165222291Y-60664658D02*
X164746100Y-60664658D01*
X164698481Y-61140849D01*
X164746100Y-61093230D01*
X164841338Y-61045611D01*
X165079434Y-61045611D01*
X165174672Y-61093230D01*
X165222291Y-61140849D01*
X165269910Y-61236087D01*
X165269910Y-61474182D01*
X165222291Y-61569420D01*
X165174672Y-61617039D01*
X165079434Y-61664658D01*
X164841338Y-61664658D01*
X164746100Y-61617039D01*
X164698481Y-61569420D01*
X165888957Y-60664658D02*
X165984195Y-60664658D01*
X166079434Y-60712278D01*
X166127053Y-60759897D01*
X166174672Y-60855135D01*
X166222291Y-61045611D01*
X166222291Y-61283706D01*
X166174672Y-61474182D01*
X166127053Y-61569420D01*
X166079434Y-61617039D01*
X165984195Y-61664658D01*
X165888957Y-61664658D01*
X165793719Y-61617039D01*
X165746100Y-61569420D01*
X165698481Y-61474182D01*
X165650862Y-61283706D01*
X165650862Y-61045611D01*
X165698481Y-60855135D01*
X165746100Y-60759897D01*
X165793719Y-60712278D01*
X165888957Y-60664658D01*
G04 #@! TO.C,J63*
X124154910Y-89907158D02*
X124154910Y-90621444D01*
X124107291Y-90764301D01*
X124012053Y-90859539D01*
X123869195Y-90907158D01*
X123773957Y-90907158D01*
X125059672Y-89907158D02*
X124869195Y-89907158D01*
X124773957Y-89954778D01*
X124726338Y-90002397D01*
X124631100Y-90145254D01*
X124583481Y-90335730D01*
X124583481Y-90716682D01*
X124631100Y-90811920D01*
X124678719Y-90859539D01*
X124773957Y-90907158D01*
X124964434Y-90907158D01*
X125059672Y-90859539D01*
X125107291Y-90811920D01*
X125154910Y-90716682D01*
X125154910Y-90478587D01*
X125107291Y-90383349D01*
X125059672Y-90335730D01*
X124964434Y-90288111D01*
X124773957Y-90288111D01*
X124678719Y-90335730D01*
X124631100Y-90383349D01*
X124583481Y-90478587D01*
X125488243Y-89907158D02*
X126107291Y-89907158D01*
X125773957Y-90288111D01*
X125916814Y-90288111D01*
X126012053Y-90335730D01*
X126059672Y-90383349D01*
X126107291Y-90478587D01*
X126107291Y-90716682D01*
X126059672Y-90811920D01*
X126012053Y-90859539D01*
X125916814Y-90907158D01*
X125631100Y-90907158D01*
X125535862Y-90859539D01*
X125488243Y-90811920D01*
G04 #@! TO.C,J62*
X109269910Y-90182158D02*
X109269910Y-90896444D01*
X109222291Y-91039301D01*
X109127053Y-91134539D01*
X108984195Y-91182158D01*
X108888957Y-91182158D01*
X110174672Y-90182158D02*
X109984195Y-90182158D01*
X109888957Y-90229778D01*
X109841338Y-90277397D01*
X109746100Y-90420254D01*
X109698481Y-90610730D01*
X109698481Y-90991682D01*
X109746100Y-91086920D01*
X109793719Y-91134539D01*
X109888957Y-91182158D01*
X110079434Y-91182158D01*
X110174672Y-91134539D01*
X110222291Y-91086920D01*
X110269910Y-90991682D01*
X110269910Y-90753587D01*
X110222291Y-90658349D01*
X110174672Y-90610730D01*
X110079434Y-90563111D01*
X109888957Y-90563111D01*
X109793719Y-90610730D01*
X109746100Y-90658349D01*
X109698481Y-90753587D01*
X110650862Y-90277397D02*
X110698481Y-90229778D01*
X110793719Y-90182158D01*
X111031814Y-90182158D01*
X111127053Y-90229778D01*
X111174672Y-90277397D01*
X111222291Y-90372635D01*
X111222291Y-90467873D01*
X111174672Y-90610730D01*
X110603243Y-91182158D01*
X111222291Y-91182158D01*
G04 #@! TO.C,J61*
X103519910Y-90182158D02*
X103519910Y-90896444D01*
X103472291Y-91039301D01*
X103377053Y-91134539D01*
X103234195Y-91182158D01*
X103138957Y-91182158D01*
X104424672Y-90182158D02*
X104234195Y-90182158D01*
X104138957Y-90229778D01*
X104091338Y-90277397D01*
X103996100Y-90420254D01*
X103948481Y-90610730D01*
X103948481Y-90991682D01*
X103996100Y-91086920D01*
X104043719Y-91134539D01*
X104138957Y-91182158D01*
X104329434Y-91182158D01*
X104424672Y-91134539D01*
X104472291Y-91086920D01*
X104519910Y-90991682D01*
X104519910Y-90753587D01*
X104472291Y-90658349D01*
X104424672Y-90610730D01*
X104329434Y-90563111D01*
X104138957Y-90563111D01*
X104043719Y-90610730D01*
X103996100Y-90658349D01*
X103948481Y-90753587D01*
X105472291Y-91182158D02*
X104900862Y-91182158D01*
X105186576Y-91182158D02*
X105186576Y-90182158D01*
X105091338Y-90325016D01*
X104996100Y-90420254D01*
X104900862Y-90467873D01*
G04 #@! TO.C,J60*
X103519910Y-82182158D02*
X103519910Y-82896444D01*
X103472291Y-83039301D01*
X103377053Y-83134539D01*
X103234195Y-83182158D01*
X103138957Y-83182158D01*
X104424672Y-82182158D02*
X104234195Y-82182158D01*
X104138957Y-82229778D01*
X104091338Y-82277397D01*
X103996100Y-82420254D01*
X103948481Y-82610730D01*
X103948481Y-82991682D01*
X103996100Y-83086920D01*
X104043719Y-83134539D01*
X104138957Y-83182158D01*
X104329434Y-83182158D01*
X104424672Y-83134539D01*
X104472291Y-83086920D01*
X104519910Y-82991682D01*
X104519910Y-82753587D01*
X104472291Y-82658349D01*
X104424672Y-82610730D01*
X104329434Y-82563111D01*
X104138957Y-82563111D01*
X104043719Y-82610730D01*
X103996100Y-82658349D01*
X103948481Y-82753587D01*
X105138957Y-82182158D02*
X105234195Y-82182158D01*
X105329434Y-82229778D01*
X105377053Y-82277397D01*
X105424672Y-82372635D01*
X105472291Y-82563111D01*
X105472291Y-82801206D01*
X105424672Y-82991682D01*
X105377053Y-83086920D01*
X105329434Y-83134539D01*
X105234195Y-83182158D01*
X105138957Y-83182158D01*
X105043719Y-83134539D01*
X104996100Y-83086920D01*
X104948481Y-82991682D01*
X104900862Y-82801206D01*
X104900862Y-82563111D01*
X104948481Y-82372635D01*
X104996100Y-82277397D01*
X105043719Y-82229778D01*
X105138957Y-82182158D01*
G04 #@! TO.C,J59*
X114769910Y-90182158D02*
X114769910Y-90896444D01*
X114722291Y-91039301D01*
X114627053Y-91134539D01*
X114484195Y-91182158D01*
X114388957Y-91182158D01*
X115722291Y-90182158D02*
X115246100Y-90182158D01*
X115198481Y-90658349D01*
X115246100Y-90610730D01*
X115341338Y-90563111D01*
X115579434Y-90563111D01*
X115674672Y-90610730D01*
X115722291Y-90658349D01*
X115769910Y-90753587D01*
X115769910Y-90991682D01*
X115722291Y-91086920D01*
X115674672Y-91134539D01*
X115579434Y-91182158D01*
X115341338Y-91182158D01*
X115246100Y-91134539D01*
X115198481Y-91086920D01*
X116246100Y-91182158D02*
X116436576Y-91182158D01*
X116531814Y-91134539D01*
X116579434Y-91086920D01*
X116674672Y-90944063D01*
X116722291Y-90753587D01*
X116722291Y-90372635D01*
X116674672Y-90277397D01*
X116627053Y-90229778D01*
X116531814Y-90182158D01*
X116341338Y-90182158D01*
X116246100Y-90229778D01*
X116198481Y-90277397D01*
X116150862Y-90372635D01*
X116150862Y-90610730D01*
X116198481Y-90705968D01*
X116246100Y-90753587D01*
X116341338Y-90801206D01*
X116531814Y-90801206D01*
X116627053Y-90753587D01*
X116674672Y-90705968D01*
X116722291Y-90610730D01*
G04 #@! TO.C,J48*
X158769910Y-52664658D02*
X158769910Y-53378944D01*
X158722291Y-53521801D01*
X158627053Y-53617039D01*
X158484195Y-53664658D01*
X158388957Y-53664658D01*
X159674672Y-52997992D02*
X159674672Y-53664658D01*
X159436576Y-52617039D02*
X159198481Y-53331325D01*
X159817529Y-53331325D01*
X160341338Y-53093230D02*
X160246100Y-53045611D01*
X160198481Y-52997992D01*
X160150862Y-52902754D01*
X160150862Y-52855135D01*
X160198481Y-52759897D01*
X160246100Y-52712278D01*
X160341338Y-52664658D01*
X160531814Y-52664658D01*
X160627053Y-52712278D01*
X160674672Y-52759897D01*
X160722291Y-52855135D01*
X160722291Y-52902754D01*
X160674672Y-52997992D01*
X160627053Y-53045611D01*
X160531814Y-53093230D01*
X160341338Y-53093230D01*
X160246100Y-53140849D01*
X160198481Y-53188468D01*
X160150862Y-53283706D01*
X160150862Y-53474182D01*
X160198481Y-53569420D01*
X160246100Y-53617039D01*
X160341338Y-53664658D01*
X160531814Y-53664658D01*
X160627053Y-53617039D01*
X160674672Y-53569420D01*
X160722291Y-53474182D01*
X160722291Y-53283706D01*
X160674672Y-53188468D01*
X160627053Y-53140849D01*
X160531814Y-53093230D01*
G04 #@! TO.C,J49*
X153269910Y-52664658D02*
X153269910Y-53378944D01*
X153222291Y-53521801D01*
X153127053Y-53617039D01*
X152984195Y-53664658D01*
X152888957Y-53664658D01*
X154174672Y-52997992D02*
X154174672Y-53664658D01*
X153936576Y-52617039D02*
X153698481Y-53331325D01*
X154317529Y-53331325D01*
X154746100Y-53664658D02*
X154936576Y-53664658D01*
X155031814Y-53617039D01*
X155079434Y-53569420D01*
X155174672Y-53426563D01*
X155222291Y-53236087D01*
X155222291Y-52855135D01*
X155174672Y-52759897D01*
X155127053Y-52712278D01*
X155031814Y-52664658D01*
X154841338Y-52664658D01*
X154746100Y-52712278D01*
X154698481Y-52759897D01*
X154650862Y-52855135D01*
X154650862Y-53093230D01*
X154698481Y-53188468D01*
X154746100Y-53236087D01*
X154841338Y-53283706D01*
X155031814Y-53283706D01*
X155127053Y-53236087D01*
X155174672Y-53188468D01*
X155222291Y-53093230D01*
G04 #@! TO.C,J46*
X169769910Y-52664658D02*
X169769910Y-53378944D01*
X169722291Y-53521801D01*
X169627053Y-53617039D01*
X169484195Y-53664658D01*
X169388957Y-53664658D01*
X170674672Y-52997992D02*
X170674672Y-53664658D01*
X170436576Y-52617039D02*
X170198481Y-53331325D01*
X170817529Y-53331325D01*
X171627053Y-52664658D02*
X171436576Y-52664658D01*
X171341338Y-52712278D01*
X171293719Y-52759897D01*
X171198481Y-52902754D01*
X171150862Y-53093230D01*
X171150862Y-53474182D01*
X171198481Y-53569420D01*
X171246100Y-53617039D01*
X171341338Y-53664658D01*
X171531814Y-53664658D01*
X171627053Y-53617039D01*
X171674672Y-53569420D01*
X171722291Y-53474182D01*
X171722291Y-53236087D01*
X171674672Y-53140849D01*
X171627053Y-53093230D01*
X171531814Y-53045611D01*
X171341338Y-53045611D01*
X171246100Y-53093230D01*
X171198481Y-53140849D01*
X171150862Y-53236087D01*
G04 #@! TO.C,J66*
X103519910Y-74182158D02*
X103519910Y-74896444D01*
X103472291Y-75039301D01*
X103377053Y-75134539D01*
X103234195Y-75182158D01*
X103138957Y-75182158D01*
X104424672Y-74182158D02*
X104234195Y-74182158D01*
X104138957Y-74229778D01*
X104091338Y-74277397D01*
X103996100Y-74420254D01*
X103948481Y-74610730D01*
X103948481Y-74991682D01*
X103996100Y-75086920D01*
X104043719Y-75134539D01*
X104138957Y-75182158D01*
X104329434Y-75182158D01*
X104424672Y-75134539D01*
X104472291Y-75086920D01*
X104519910Y-74991682D01*
X104519910Y-74753587D01*
X104472291Y-74658349D01*
X104424672Y-74610730D01*
X104329434Y-74563111D01*
X104138957Y-74563111D01*
X104043719Y-74610730D01*
X103996100Y-74658349D01*
X103948481Y-74753587D01*
X105377053Y-74182158D02*
X105186576Y-74182158D01*
X105091338Y-74229778D01*
X105043719Y-74277397D01*
X104948481Y-74420254D01*
X104900862Y-74610730D01*
X104900862Y-74991682D01*
X104948481Y-75086920D01*
X104996100Y-75134539D01*
X105091338Y-75182158D01*
X105281814Y-75182158D01*
X105377053Y-75134539D01*
X105424672Y-75086920D01*
X105472291Y-74991682D01*
X105472291Y-74753587D01*
X105424672Y-74658349D01*
X105377053Y-74610730D01*
X105281814Y-74563111D01*
X105091338Y-74563111D01*
X104996100Y-74610730D01*
X104948481Y-74658349D01*
X104900862Y-74753587D01*
G04 #@! TO.C,J65*
X114769910Y-58182158D02*
X114769910Y-58896444D01*
X114722291Y-59039301D01*
X114627053Y-59134539D01*
X114484195Y-59182158D01*
X114388957Y-59182158D01*
X115674672Y-58182158D02*
X115484195Y-58182158D01*
X115388957Y-58229778D01*
X115341338Y-58277397D01*
X115246100Y-58420254D01*
X115198481Y-58610730D01*
X115198481Y-58991682D01*
X115246100Y-59086920D01*
X115293719Y-59134539D01*
X115388957Y-59182158D01*
X115579434Y-59182158D01*
X115674672Y-59134539D01*
X115722291Y-59086920D01*
X115769910Y-58991682D01*
X115769910Y-58753587D01*
X115722291Y-58658349D01*
X115674672Y-58610730D01*
X115579434Y-58563111D01*
X115388957Y-58563111D01*
X115293719Y-58610730D01*
X115246100Y-58658349D01*
X115198481Y-58753587D01*
X116674672Y-58182158D02*
X116198481Y-58182158D01*
X116150862Y-58658349D01*
X116198481Y-58610730D01*
X116293719Y-58563111D01*
X116531814Y-58563111D01*
X116627053Y-58610730D01*
X116674672Y-58658349D01*
X116722291Y-58753587D01*
X116722291Y-58991682D01*
X116674672Y-59086920D01*
X116627053Y-59134539D01*
X116531814Y-59182158D01*
X116293719Y-59182158D01*
X116198481Y-59134539D01*
X116150862Y-59086920D01*
G04 #@! TO.C,J11*
X114769910Y-66182158D02*
X114769910Y-66896444D01*
X114722291Y-67039301D01*
X114627053Y-67134539D01*
X114484195Y-67182158D01*
X114388957Y-67182158D01*
X115769910Y-67182158D02*
X115198481Y-67182158D01*
X115484195Y-67182158D02*
X115484195Y-66182158D01*
X115388957Y-66325016D01*
X115293719Y-66420254D01*
X115198481Y-66467873D01*
X116722291Y-67182158D02*
X116150862Y-67182158D01*
X116436576Y-67182158D02*
X116436576Y-66182158D01*
X116341338Y-66325016D01*
X116246100Y-66420254D01*
X116150862Y-66467873D01*
G04 #@! TO.C,J13*
X109269910Y-58182158D02*
X109269910Y-58896444D01*
X109222291Y-59039301D01*
X109127053Y-59134539D01*
X108984195Y-59182158D01*
X108888957Y-59182158D01*
X110269910Y-59182158D02*
X109698481Y-59182158D01*
X109984195Y-59182158D02*
X109984195Y-58182158D01*
X109888957Y-58325016D01*
X109793719Y-58420254D01*
X109698481Y-58467873D01*
X110603243Y-58182158D02*
X111222291Y-58182158D01*
X110888957Y-58563111D01*
X111031814Y-58563111D01*
X111127053Y-58610730D01*
X111174672Y-58658349D01*
X111222291Y-58753587D01*
X111222291Y-58991682D01*
X111174672Y-59086920D01*
X111127053Y-59134539D01*
X111031814Y-59182158D01*
X110746100Y-59182158D01*
X110650862Y-59134539D01*
X110603243Y-59086920D01*
G04 #@! TO.C,J14*
X109269910Y-50182158D02*
X109269910Y-50896444D01*
X109222291Y-51039301D01*
X109127053Y-51134539D01*
X108984195Y-51182158D01*
X108888957Y-51182158D01*
X110269910Y-51182158D02*
X109698481Y-51182158D01*
X109984195Y-51182158D02*
X109984195Y-50182158D01*
X109888957Y-50325016D01*
X109793719Y-50420254D01*
X109698481Y-50467873D01*
X111127053Y-50515492D02*
X111127053Y-51182158D01*
X110888957Y-50134539D02*
X110650862Y-50848825D01*
X111269910Y-50848825D01*
G04 #@! TO.C,J15*
X114769910Y-50182158D02*
X114769910Y-50896444D01*
X114722291Y-51039301D01*
X114627053Y-51134539D01*
X114484195Y-51182158D01*
X114388957Y-51182158D01*
X115769910Y-51182158D02*
X115198481Y-51182158D01*
X115484195Y-51182158D02*
X115484195Y-50182158D01*
X115388957Y-50325016D01*
X115293719Y-50420254D01*
X115198481Y-50467873D01*
X116674672Y-50182158D02*
X116198481Y-50182158D01*
X116150862Y-50658349D01*
X116198481Y-50610730D01*
X116293719Y-50563111D01*
X116531814Y-50563111D01*
X116627053Y-50610730D01*
X116674672Y-50658349D01*
X116722291Y-50753587D01*
X116722291Y-50991682D01*
X116674672Y-51086920D01*
X116627053Y-51134539D01*
X116531814Y-51182158D01*
X116293719Y-51182158D01*
X116198481Y-51134539D01*
X116150862Y-51086920D01*
G04 #@! TO.C,J16*
X103519910Y-42142158D02*
X103519910Y-42856444D01*
X103472291Y-42999301D01*
X103377053Y-43094539D01*
X103234195Y-43142158D01*
X103138957Y-43142158D01*
X104519910Y-43142158D02*
X103948481Y-43142158D01*
X104234195Y-43142158D02*
X104234195Y-42142158D01*
X104138957Y-42285016D01*
X104043719Y-42380254D01*
X103948481Y-42427873D01*
X105377053Y-42142158D02*
X105186576Y-42142158D01*
X105091338Y-42189778D01*
X105043719Y-42237397D01*
X104948481Y-42380254D01*
X104900862Y-42570730D01*
X104900862Y-42951682D01*
X104948481Y-43046920D01*
X104996100Y-43094539D01*
X105091338Y-43142158D01*
X105281814Y-43142158D01*
X105377053Y-43094539D01*
X105424672Y-43046920D01*
X105472291Y-42951682D01*
X105472291Y-42713587D01*
X105424672Y-42618349D01*
X105377053Y-42570730D01*
X105281814Y-42523111D01*
X105091338Y-42523111D01*
X104996100Y-42570730D01*
X104948481Y-42618349D01*
X104900862Y-42713587D01*
G04 #@! TO.C,J17*
X109269910Y-42142158D02*
X109269910Y-42856444D01*
X109222291Y-42999301D01*
X109127053Y-43094539D01*
X108984195Y-43142158D01*
X108888957Y-43142158D01*
X110269910Y-43142158D02*
X109698481Y-43142158D01*
X109984195Y-43142158D02*
X109984195Y-42142158D01*
X109888957Y-42285016D01*
X109793719Y-42380254D01*
X109698481Y-42427873D01*
X110603243Y-42142158D02*
X111269910Y-42142158D01*
X110841338Y-43142158D01*
G04 #@! TO.C,J18*
X114769910Y-42142158D02*
X114769910Y-42856444D01*
X114722291Y-42999301D01*
X114627053Y-43094539D01*
X114484195Y-43142158D01*
X114388957Y-43142158D01*
X115769910Y-43142158D02*
X115198481Y-43142158D01*
X115484195Y-43142158D02*
X115484195Y-42142158D01*
X115388957Y-42285016D01*
X115293719Y-42380254D01*
X115198481Y-42427873D01*
X116341338Y-42570730D02*
X116246100Y-42523111D01*
X116198481Y-42475492D01*
X116150862Y-42380254D01*
X116150862Y-42332635D01*
X116198481Y-42237397D01*
X116246100Y-42189778D01*
X116341338Y-42142158D01*
X116531814Y-42142158D01*
X116627053Y-42189778D01*
X116674672Y-42237397D01*
X116722291Y-42332635D01*
X116722291Y-42380254D01*
X116674672Y-42475492D01*
X116627053Y-42523111D01*
X116531814Y-42570730D01*
X116341338Y-42570730D01*
X116246100Y-42618349D01*
X116198481Y-42665968D01*
X116150862Y-42761206D01*
X116150862Y-42951682D01*
X116198481Y-43046920D01*
X116246100Y-43094539D01*
X116341338Y-43142158D01*
X116531814Y-43142158D01*
X116627053Y-43094539D01*
X116674672Y-43046920D01*
X116722291Y-42951682D01*
X116722291Y-42761206D01*
X116674672Y-42665968D01*
X116627053Y-42618349D01*
X116531814Y-42570730D01*
G04 #@! TO.C,J20*
X134654910Y-97947158D02*
X134654910Y-98661444D01*
X134607291Y-98804301D01*
X134512053Y-98899539D01*
X134369195Y-98947158D01*
X134273957Y-98947158D01*
X135083481Y-98042397D02*
X135131100Y-97994778D01*
X135226338Y-97947158D01*
X135464434Y-97947158D01*
X135559672Y-97994778D01*
X135607291Y-98042397D01*
X135654910Y-98137635D01*
X135654910Y-98232873D01*
X135607291Y-98375730D01*
X135035862Y-98947158D01*
X135654910Y-98947158D01*
X136273957Y-97947158D02*
X136369195Y-97947158D01*
X136464434Y-97994778D01*
X136512053Y-98042397D01*
X136559672Y-98137635D01*
X136607291Y-98328111D01*
X136607291Y-98566206D01*
X136559672Y-98756682D01*
X136512053Y-98851920D01*
X136464434Y-98899539D01*
X136369195Y-98947158D01*
X136273957Y-98947158D01*
X136178719Y-98899539D01*
X136131100Y-98851920D01*
X136083481Y-98756682D01*
X136035862Y-98566206D01*
X136035862Y-98328111D01*
X136083481Y-98137635D01*
X136131100Y-98042397D01*
X136178719Y-97994778D01*
X136273957Y-97947158D01*
G04 #@! TO.C,J21*
X134654910Y-89947158D02*
X134654910Y-90661444D01*
X134607291Y-90804301D01*
X134512053Y-90899539D01*
X134369195Y-90947158D01*
X134273957Y-90947158D01*
X135083481Y-90042397D02*
X135131100Y-89994778D01*
X135226338Y-89947158D01*
X135464434Y-89947158D01*
X135559672Y-89994778D01*
X135607291Y-90042397D01*
X135654910Y-90137635D01*
X135654910Y-90232873D01*
X135607291Y-90375730D01*
X135035862Y-90947158D01*
X135654910Y-90947158D01*
X136607291Y-90947158D02*
X136035862Y-90947158D01*
X136321576Y-90947158D02*
X136321576Y-89947158D01*
X136226338Y-90090016D01*
X136131100Y-90185254D01*
X136035862Y-90232873D01*
G04 #@! TO.C,J22*
X139904910Y-81947158D02*
X139904910Y-82661444D01*
X139857291Y-82804301D01*
X139762053Y-82899539D01*
X139619195Y-82947158D01*
X139523957Y-82947158D01*
X140333481Y-82042397D02*
X140381100Y-81994778D01*
X140476338Y-81947158D01*
X140714434Y-81947158D01*
X140809672Y-81994778D01*
X140857291Y-82042397D01*
X140904910Y-82137635D01*
X140904910Y-82232873D01*
X140857291Y-82375730D01*
X140285862Y-82947158D01*
X140904910Y-82947158D01*
X141285862Y-82042397D02*
X141333481Y-81994778D01*
X141428719Y-81947158D01*
X141666814Y-81947158D01*
X141762053Y-81994778D01*
X141809672Y-82042397D01*
X141857291Y-82137635D01*
X141857291Y-82232873D01*
X141809672Y-82375730D01*
X141238243Y-82947158D01*
X141857291Y-82947158D01*
G04 #@! TO.C,J12*
X103519910Y-58182158D02*
X103519910Y-58896444D01*
X103472291Y-59039301D01*
X103377053Y-59134539D01*
X103234195Y-59182158D01*
X103138957Y-59182158D01*
X104519910Y-59182158D02*
X103948481Y-59182158D01*
X104234195Y-59182158D02*
X104234195Y-58182158D01*
X104138957Y-58325016D01*
X104043719Y-58420254D01*
X103948481Y-58467873D01*
X104900862Y-58277397D02*
X104948481Y-58229778D01*
X105043719Y-58182158D01*
X105281814Y-58182158D01*
X105377053Y-58229778D01*
X105424672Y-58277397D01*
X105472291Y-58372635D01*
X105472291Y-58467873D01*
X105424672Y-58610730D01*
X104853243Y-59182158D01*
X105472291Y-59182158D01*
G04 #@! TO.C,J43*
X158769910Y-76704658D02*
X158769910Y-77418944D01*
X158722291Y-77561801D01*
X158627053Y-77657039D01*
X158484195Y-77704658D01*
X158388957Y-77704658D01*
X159674672Y-77037992D02*
X159674672Y-77704658D01*
X159436576Y-76657039D02*
X159198481Y-77371325D01*
X159817529Y-77371325D01*
X160103243Y-76704658D02*
X160722291Y-76704658D01*
X160388957Y-77085611D01*
X160531814Y-77085611D01*
X160627053Y-77133230D01*
X160674672Y-77180849D01*
X160722291Y-77276087D01*
X160722291Y-77514182D01*
X160674672Y-77609420D01*
X160627053Y-77657039D01*
X160531814Y-77704658D01*
X160246100Y-77704658D01*
X160150862Y-77657039D01*
X160103243Y-77609420D01*
G04 #@! TO.C,U2*
X136117529Y-53222158D02*
X136117529Y-54031682D01*
X136165148Y-54126920D01*
X136212767Y-54174539D01*
X136308005Y-54222158D01*
X136498481Y-54222158D01*
X136593719Y-54174539D01*
X136641338Y-54126920D01*
X136688957Y-54031682D01*
X136688957Y-53222158D01*
X137117529Y-53317397D02*
X137165148Y-53269778D01*
X137260386Y-53222158D01*
X137498481Y-53222158D01*
X137593719Y-53269778D01*
X137641338Y-53317397D01*
X137688957Y-53412635D01*
X137688957Y-53507873D01*
X137641338Y-53650730D01*
X137069910Y-54222158D01*
X137688957Y-54222158D01*
G04 #@! TO.C,C6*
X135506576Y-51336444D02*
X135554195Y-51384063D01*
X135601814Y-51526920D01*
X135601814Y-51622158D01*
X135554195Y-51765016D01*
X135458957Y-51860254D01*
X135363719Y-51907873D01*
X135173243Y-51955492D01*
X135030386Y-51955492D01*
X134839910Y-51907873D01*
X134744672Y-51860254D01*
X134649434Y-51765016D01*
X134601814Y-51622158D01*
X134601814Y-51526920D01*
X134649434Y-51384063D01*
X134697053Y-51336444D01*
X134601814Y-50479301D02*
X134601814Y-50669778D01*
X134649434Y-50765016D01*
X134697053Y-50812635D01*
X134839910Y-50907873D01*
X135030386Y-50955492D01*
X135411338Y-50955492D01*
X135506576Y-50907873D01*
X135554195Y-50860254D01*
X135601814Y-50765016D01*
X135601814Y-50574539D01*
X135554195Y-50479301D01*
X135506576Y-50431682D01*
X135411338Y-50384063D01*
X135173243Y-50384063D01*
X135078005Y-50431682D01*
X135030386Y-50479301D01*
X134982767Y-50574539D01*
X134982767Y-50765016D01*
X135030386Y-50860254D01*
X135078005Y-50907873D01*
X135173243Y-50955492D01*
G04 #@! TO.C,J70*
X169869910Y-31204658D02*
X169869910Y-31918944D01*
X169822291Y-32061801D01*
X169727053Y-32157039D01*
X169584195Y-32204658D01*
X169488957Y-32204658D01*
X170250862Y-31204658D02*
X170917529Y-31204658D01*
X170488957Y-32204658D01*
X171488957Y-31204658D02*
X171584195Y-31204658D01*
X171679434Y-31252278D01*
X171727053Y-31299897D01*
X171774672Y-31395135D01*
X171822291Y-31585611D01*
X171822291Y-31823706D01*
X171774672Y-32014182D01*
X171727053Y-32109420D01*
X171679434Y-32157039D01*
X171584195Y-32204658D01*
X171488957Y-32204658D01*
X171393719Y-32157039D01*
X171346100Y-32109420D01*
X171298481Y-32014182D01*
X171250862Y-31823706D01*
X171250862Y-31585611D01*
X171298481Y-31395135D01*
X171346100Y-31299897D01*
X171393719Y-31252278D01*
X171488957Y-31204658D01*
G04 #@! TO.C,SW1*
X143846100Y-33024539D02*
X143988957Y-33072158D01*
X144227053Y-33072158D01*
X144322291Y-33024539D01*
X144369910Y-32976920D01*
X144417529Y-32881682D01*
X144417529Y-32786444D01*
X144369910Y-32691206D01*
X144322291Y-32643587D01*
X144227053Y-32595968D01*
X144036576Y-32548349D01*
X143941338Y-32500730D01*
X143893719Y-32453111D01*
X143846100Y-32357873D01*
X143846100Y-32262635D01*
X143893719Y-32167397D01*
X143941338Y-32119778D01*
X144036576Y-32072158D01*
X144274672Y-32072158D01*
X144417529Y-32119778D01*
X144750862Y-32072158D02*
X144988957Y-33072158D01*
X145179434Y-32357873D01*
X145369910Y-33072158D01*
X145608005Y-32072158D01*
X146512767Y-33072158D02*
X145941338Y-33072158D01*
X146227053Y-33072158D02*
X146227053Y-32072158D01*
X146131814Y-32215016D01*
X146036576Y-32310254D01*
X145941338Y-32357873D01*
G04 #@! TO.C,C2*
X122856576Y-55336444D02*
X122904195Y-55384063D01*
X122951814Y-55526920D01*
X122951814Y-55622158D01*
X122904195Y-55765016D01*
X122808957Y-55860254D01*
X122713719Y-55907873D01*
X122523243Y-55955492D01*
X122380386Y-55955492D01*
X122189910Y-55907873D01*
X122094672Y-55860254D01*
X121999434Y-55765016D01*
X121951814Y-55622158D01*
X121951814Y-55526920D01*
X121999434Y-55384063D01*
X122047053Y-55336444D01*
X122047053Y-54955492D02*
X121999434Y-54907873D01*
X121951814Y-54812635D01*
X121951814Y-54574539D01*
X121999434Y-54479301D01*
X122047053Y-54431682D01*
X122142291Y-54384063D01*
X122237529Y-54384063D01*
X122380386Y-54431682D01*
X122951814Y-55003111D01*
X122951814Y-54384063D01*
G04 #@! TO.C,C3*
X123700267Y-66896920D02*
X123652648Y-66944539D01*
X123509791Y-66992158D01*
X123414553Y-66992158D01*
X123271695Y-66944539D01*
X123176457Y-66849301D01*
X123128838Y-66754063D01*
X123081219Y-66563587D01*
X123081219Y-66420730D01*
X123128838Y-66230254D01*
X123176457Y-66135016D01*
X123271695Y-66039778D01*
X123414553Y-65992158D01*
X123509791Y-65992158D01*
X123652648Y-66039778D01*
X123700267Y-66087397D01*
X124033600Y-65992158D02*
X124652648Y-65992158D01*
X124319314Y-66373111D01*
X124462172Y-66373111D01*
X124557410Y-66420730D01*
X124605029Y-66468349D01*
X124652648Y-66563587D01*
X124652648Y-66801682D01*
X124605029Y-66896920D01*
X124557410Y-66944539D01*
X124462172Y-66992158D01*
X124176457Y-66992158D01*
X124081219Y-66944539D01*
X124033600Y-66896920D01*
G04 #@! TO.C,C4*
X123725267Y-61896920D02*
X123677648Y-61944539D01*
X123534791Y-61992158D01*
X123439553Y-61992158D01*
X123296695Y-61944539D01*
X123201457Y-61849301D01*
X123153838Y-61754063D01*
X123106219Y-61563587D01*
X123106219Y-61420730D01*
X123153838Y-61230254D01*
X123201457Y-61135016D01*
X123296695Y-61039778D01*
X123439553Y-60992158D01*
X123534791Y-60992158D01*
X123677648Y-61039778D01*
X123725267Y-61087397D01*
X124582410Y-61325492D02*
X124582410Y-61992158D01*
X124344314Y-60944539D02*
X124106219Y-61658825D01*
X124725267Y-61658825D01*
G04 #@! TO.C,C5*
X123725267Y-57886920D02*
X123677648Y-57934539D01*
X123534791Y-57982158D01*
X123439553Y-57982158D01*
X123296695Y-57934539D01*
X123201457Y-57839301D01*
X123153838Y-57744063D01*
X123106219Y-57553587D01*
X123106219Y-57410730D01*
X123153838Y-57220254D01*
X123201457Y-57125016D01*
X123296695Y-57029778D01*
X123439553Y-56982158D01*
X123534791Y-56982158D01*
X123677648Y-57029778D01*
X123725267Y-57077397D01*
X124630029Y-56982158D02*
X124153838Y-56982158D01*
X124106219Y-57458349D01*
X124153838Y-57410730D01*
X124249076Y-57363111D01*
X124487172Y-57363111D01*
X124582410Y-57410730D01*
X124630029Y-57458349D01*
X124677648Y-57553587D01*
X124677648Y-57791682D01*
X124630029Y-57886920D01*
X124582410Y-57934539D01*
X124487172Y-57982158D01*
X124249076Y-57982158D01*
X124153838Y-57934539D01*
X124106219Y-57886920D01*
G04 #@! TO.C,C7*
X135506576Y-48086444D02*
X135554195Y-48134063D01*
X135601814Y-48276920D01*
X135601814Y-48372158D01*
X135554195Y-48515016D01*
X135458957Y-48610254D01*
X135363719Y-48657873D01*
X135173243Y-48705492D01*
X135030386Y-48705492D01*
X134839910Y-48657873D01*
X134744672Y-48610254D01*
X134649434Y-48515016D01*
X134601814Y-48372158D01*
X134601814Y-48276920D01*
X134649434Y-48134063D01*
X134697053Y-48086444D01*
X134601814Y-47753111D02*
X134601814Y-47086444D01*
X135601814Y-47515016D01*
G04 #@! TO.C,C8*
X138716576Y-41436444D02*
X138764195Y-41484063D01*
X138811814Y-41626920D01*
X138811814Y-41722158D01*
X138764195Y-41865016D01*
X138668957Y-41960254D01*
X138573719Y-42007873D01*
X138383243Y-42055492D01*
X138240386Y-42055492D01*
X138049910Y-42007873D01*
X137954672Y-41960254D01*
X137859434Y-41865016D01*
X137811814Y-41722158D01*
X137811814Y-41626920D01*
X137859434Y-41484063D01*
X137907053Y-41436444D01*
X138240386Y-40865016D02*
X138192767Y-40960254D01*
X138145148Y-41007873D01*
X138049910Y-41055492D01*
X138002291Y-41055492D01*
X137907053Y-41007873D01*
X137859434Y-40960254D01*
X137811814Y-40865016D01*
X137811814Y-40674539D01*
X137859434Y-40579301D01*
X137907053Y-40531682D01*
X138002291Y-40484063D01*
X138049910Y-40484063D01*
X138145148Y-40531682D01*
X138192767Y-40579301D01*
X138240386Y-40674539D01*
X138240386Y-40865016D01*
X138288005Y-40960254D01*
X138335624Y-41007873D01*
X138430862Y-41055492D01*
X138621338Y-41055492D01*
X138716576Y-41007873D01*
X138764195Y-40960254D01*
X138811814Y-40865016D01*
X138811814Y-40674539D01*
X138764195Y-40579301D01*
X138716576Y-40531682D01*
X138621338Y-40484063D01*
X138430862Y-40484063D01*
X138335624Y-40531682D01*
X138288005Y-40579301D01*
X138240386Y-40674539D01*
G04 #@! TO.C,C1*
X122975267Y-54169420D02*
X122927648Y-54217039D01*
X122784791Y-54264658D01*
X122689553Y-54264658D01*
X122546695Y-54217039D01*
X122451457Y-54121801D01*
X122403838Y-54026563D01*
X122356219Y-53836087D01*
X122356219Y-53693230D01*
X122403838Y-53502754D01*
X122451457Y-53407516D01*
X122546695Y-53312278D01*
X122689553Y-53264658D01*
X122784791Y-53264658D01*
X122927648Y-53312278D01*
X122975267Y-53359897D01*
X123927648Y-54264658D02*
X123356219Y-54264658D01*
X123641934Y-54264658D02*
X123641934Y-53264658D01*
X123546695Y-53407516D01*
X123451457Y-53502754D01*
X123356219Y-53550373D01*
G04 #@! TO.C,C12*
X126391576Y-72412635D02*
X126439195Y-72460254D01*
X126486814Y-72603111D01*
X126486814Y-72698349D01*
X126439195Y-72841206D01*
X126343957Y-72936444D01*
X126248719Y-72984063D01*
X126058243Y-73031682D01*
X125915386Y-73031682D01*
X125724910Y-72984063D01*
X125629672Y-72936444D01*
X125534434Y-72841206D01*
X125486814Y-72698349D01*
X125486814Y-72603111D01*
X125534434Y-72460254D01*
X125582053Y-72412635D01*
X126486814Y-71460254D02*
X126486814Y-72031682D01*
X126486814Y-71745968D02*
X125486814Y-71745968D01*
X125629672Y-71841206D01*
X125724910Y-71936444D01*
X125772529Y-72031682D01*
X125582053Y-71079301D02*
X125534434Y-71031682D01*
X125486814Y-70936444D01*
X125486814Y-70698349D01*
X125534434Y-70603111D01*
X125582053Y-70555492D01*
X125677291Y-70507873D01*
X125772529Y-70507873D01*
X125915386Y-70555492D01*
X126486814Y-71126920D01*
X126486814Y-70507873D01*
G04 #@! TO.C,C13*
X136466576Y-51412635D02*
X136514195Y-51460254D01*
X136561814Y-51603111D01*
X136561814Y-51698349D01*
X136514195Y-51841206D01*
X136418957Y-51936444D01*
X136323719Y-51984063D01*
X136133243Y-52031682D01*
X135990386Y-52031682D01*
X135799910Y-51984063D01*
X135704672Y-51936444D01*
X135609434Y-51841206D01*
X135561814Y-51698349D01*
X135561814Y-51603111D01*
X135609434Y-51460254D01*
X135657053Y-51412635D01*
X136561814Y-50460254D02*
X136561814Y-51031682D01*
X136561814Y-50745968D02*
X135561814Y-50745968D01*
X135704672Y-50841206D01*
X135799910Y-50936444D01*
X135847529Y-51031682D01*
X135561814Y-50126920D02*
X135561814Y-49507873D01*
X135942767Y-49841206D01*
X135942767Y-49698349D01*
X135990386Y-49603111D01*
X136038005Y-49555492D01*
X136133243Y-49507873D01*
X136371338Y-49507873D01*
X136466576Y-49555492D01*
X136514195Y-49603111D01*
X136561814Y-49698349D01*
X136561814Y-49984063D01*
X136514195Y-50079301D01*
X136466576Y-50126920D01*
G04 #@! TO.C,C14*
X148466576Y-53375135D02*
X148514195Y-53422754D01*
X148561814Y-53565611D01*
X148561814Y-53660849D01*
X148514195Y-53803706D01*
X148418957Y-53898944D01*
X148323719Y-53946563D01*
X148133243Y-53994182D01*
X147990386Y-53994182D01*
X147799910Y-53946563D01*
X147704672Y-53898944D01*
X147609434Y-53803706D01*
X147561814Y-53660849D01*
X147561814Y-53565611D01*
X147609434Y-53422754D01*
X147657053Y-53375135D01*
X148561814Y-52422754D02*
X148561814Y-52994182D01*
X148561814Y-52708468D02*
X147561814Y-52708468D01*
X147704672Y-52803706D01*
X147799910Y-52898944D01*
X147847529Y-52994182D01*
X147895148Y-51565611D02*
X148561814Y-51565611D01*
X147514195Y-51803706D02*
X148228481Y-52041801D01*
X148228481Y-51422754D01*
G04 #@! TO.C,C15*
X140916576Y-51412635D02*
X140964195Y-51460254D01*
X141011814Y-51603111D01*
X141011814Y-51698349D01*
X140964195Y-51841206D01*
X140868957Y-51936444D01*
X140773719Y-51984063D01*
X140583243Y-52031682D01*
X140440386Y-52031682D01*
X140249910Y-51984063D01*
X140154672Y-51936444D01*
X140059434Y-51841206D01*
X140011814Y-51698349D01*
X140011814Y-51603111D01*
X140059434Y-51460254D01*
X140107053Y-51412635D01*
X141011814Y-50460254D02*
X141011814Y-51031682D01*
X141011814Y-50745968D02*
X140011814Y-50745968D01*
X140154672Y-50841206D01*
X140249910Y-50936444D01*
X140297529Y-51031682D01*
X140011814Y-49555492D02*
X140011814Y-50031682D01*
X140488005Y-50079301D01*
X140440386Y-50031682D01*
X140392767Y-49936444D01*
X140392767Y-49698349D01*
X140440386Y-49603111D01*
X140488005Y-49555492D01*
X140583243Y-49507873D01*
X140821338Y-49507873D01*
X140916576Y-49555492D01*
X140964195Y-49603111D01*
X141011814Y-49698349D01*
X141011814Y-49936444D01*
X140964195Y-50031682D01*
X140916576Y-50079301D01*
G04 #@! TO.C,C16*
X133594076Y-74300135D02*
X133641695Y-74347754D01*
X133689314Y-74490611D01*
X133689314Y-74585849D01*
X133641695Y-74728706D01*
X133546457Y-74823944D01*
X133451219Y-74871563D01*
X133260743Y-74919182D01*
X133117886Y-74919182D01*
X132927410Y-74871563D01*
X132832172Y-74823944D01*
X132736934Y-74728706D01*
X132689314Y-74585849D01*
X132689314Y-74490611D01*
X132736934Y-74347754D01*
X132784553Y-74300135D01*
X133689314Y-73347754D02*
X133689314Y-73919182D01*
X133689314Y-73633468D02*
X132689314Y-73633468D01*
X132832172Y-73728706D01*
X132927410Y-73823944D01*
X132975029Y-73919182D01*
X132689314Y-72490611D02*
X132689314Y-72681087D01*
X132736934Y-72776325D01*
X132784553Y-72823944D01*
X132927410Y-72919182D01*
X133117886Y-72966801D01*
X133498838Y-72966801D01*
X133594076Y-72919182D01*
X133641695Y-72871563D01*
X133689314Y-72776325D01*
X133689314Y-72585849D01*
X133641695Y-72490611D01*
X133594076Y-72442992D01*
X133498838Y-72395373D01*
X133260743Y-72395373D01*
X133165505Y-72442992D01*
X133117886Y-72490611D01*
X133070267Y-72585849D01*
X133070267Y-72776325D01*
X133117886Y-72871563D01*
X133165505Y-72919182D01*
X133260743Y-72966801D01*
G04 #@! TO.C,C17*
X145256576Y-72362635D02*
X145304195Y-72410254D01*
X145351814Y-72553111D01*
X145351814Y-72648349D01*
X145304195Y-72791206D01*
X145208957Y-72886444D01*
X145113719Y-72934063D01*
X144923243Y-72981682D01*
X144780386Y-72981682D01*
X144589910Y-72934063D01*
X144494672Y-72886444D01*
X144399434Y-72791206D01*
X144351814Y-72648349D01*
X144351814Y-72553111D01*
X144399434Y-72410254D01*
X144447053Y-72362635D01*
X145351814Y-71410254D02*
X145351814Y-71981682D01*
X145351814Y-71695968D02*
X144351814Y-71695968D01*
X144494672Y-71791206D01*
X144589910Y-71886444D01*
X144637529Y-71981682D01*
X144351814Y-71076920D02*
X144351814Y-70410254D01*
X145351814Y-70838825D01*
G04 #@! TO.C,C18*
X138156576Y-76312635D02*
X138204195Y-76360254D01*
X138251814Y-76503111D01*
X138251814Y-76598349D01*
X138204195Y-76741206D01*
X138108957Y-76836444D01*
X138013719Y-76884063D01*
X137823243Y-76931682D01*
X137680386Y-76931682D01*
X137489910Y-76884063D01*
X137394672Y-76836444D01*
X137299434Y-76741206D01*
X137251814Y-76598349D01*
X137251814Y-76503111D01*
X137299434Y-76360254D01*
X137347053Y-76312635D01*
X138251814Y-75360254D02*
X138251814Y-75931682D01*
X138251814Y-75645968D02*
X137251814Y-75645968D01*
X137394672Y-75741206D01*
X137489910Y-75836444D01*
X137537529Y-75931682D01*
X137680386Y-74788825D02*
X137632767Y-74884063D01*
X137585148Y-74931682D01*
X137489910Y-74979301D01*
X137442291Y-74979301D01*
X137347053Y-74931682D01*
X137299434Y-74884063D01*
X137251814Y-74788825D01*
X137251814Y-74598349D01*
X137299434Y-74503111D01*
X137347053Y-74455492D01*
X137442291Y-74407873D01*
X137489910Y-74407873D01*
X137585148Y-74455492D01*
X137632767Y-74503111D01*
X137680386Y-74598349D01*
X137680386Y-74788825D01*
X137728005Y-74884063D01*
X137775624Y-74931682D01*
X137870862Y-74979301D01*
X138061338Y-74979301D01*
X138156576Y-74931682D01*
X138204195Y-74884063D01*
X138251814Y-74788825D01*
X138251814Y-74598349D01*
X138204195Y-74503111D01*
X138156576Y-74455492D01*
X138061338Y-74407873D01*
X137870862Y-74407873D01*
X137775624Y-74455492D01*
X137728005Y-74503111D01*
X137680386Y-74598349D01*
G04 #@! TO.C,C19*
X149549076Y-59806920D02*
X149501457Y-59854539D01*
X149358600Y-59902158D01*
X149263362Y-59902158D01*
X149120505Y-59854539D01*
X149025267Y-59759301D01*
X148977648Y-59664063D01*
X148930029Y-59473587D01*
X148930029Y-59330730D01*
X148977648Y-59140254D01*
X149025267Y-59045016D01*
X149120505Y-58949778D01*
X149263362Y-58902158D01*
X149358600Y-58902158D01*
X149501457Y-58949778D01*
X149549076Y-58997397D01*
X150501457Y-59902158D02*
X149930029Y-59902158D01*
X150215743Y-59902158D02*
X150215743Y-58902158D01*
X150120505Y-59045016D01*
X150025267Y-59140254D01*
X149930029Y-59187873D01*
X150977648Y-59902158D02*
X151168124Y-59902158D01*
X151263362Y-59854539D01*
X151310981Y-59806920D01*
X151406219Y-59664063D01*
X151453838Y-59473587D01*
X151453838Y-59092635D01*
X151406219Y-58997397D01*
X151358600Y-58949778D01*
X151263362Y-58902158D01*
X151072886Y-58902158D01*
X150977648Y-58949778D01*
X150930029Y-58997397D01*
X150882410Y-59092635D01*
X150882410Y-59330730D01*
X150930029Y-59425968D01*
X150977648Y-59473587D01*
X151072886Y-59521206D01*
X151263362Y-59521206D01*
X151358600Y-59473587D01*
X151406219Y-59425968D01*
X151453838Y-59330730D01*
G04 #@! TO.C,C20*
X147359076Y-65611920D02*
X147311457Y-65659539D01*
X147168600Y-65707158D01*
X147073362Y-65707158D01*
X146930505Y-65659539D01*
X146835267Y-65564301D01*
X146787648Y-65469063D01*
X146740029Y-65278587D01*
X146740029Y-65135730D01*
X146787648Y-64945254D01*
X146835267Y-64850016D01*
X146930505Y-64754778D01*
X147073362Y-64707158D01*
X147168600Y-64707158D01*
X147311457Y-64754778D01*
X147359076Y-64802397D01*
X147740029Y-64802397D02*
X147787648Y-64754778D01*
X147882886Y-64707158D01*
X148120981Y-64707158D01*
X148216219Y-64754778D01*
X148263838Y-64802397D01*
X148311457Y-64897635D01*
X148311457Y-64992873D01*
X148263838Y-65135730D01*
X147692410Y-65707158D01*
X148311457Y-65707158D01*
X148930505Y-64707158D02*
X149025743Y-64707158D01*
X149120981Y-64754778D01*
X149168600Y-64802397D01*
X149216219Y-64897635D01*
X149263838Y-65088111D01*
X149263838Y-65326206D01*
X149216219Y-65516682D01*
X149168600Y-65611920D01*
X149120981Y-65659539D01*
X149025743Y-65707158D01*
X148930505Y-65707158D01*
X148835267Y-65659539D01*
X148787648Y-65611920D01*
X148740029Y-65516682D01*
X148692410Y-65326206D01*
X148692410Y-65088111D01*
X148740029Y-64897635D01*
X148787648Y-64802397D01*
X148835267Y-64754778D01*
X148930505Y-64707158D01*
G04 #@! TO.C,C11*
X129929076Y-71571920D02*
X129881457Y-71619539D01*
X129738600Y-71667158D01*
X129643362Y-71667158D01*
X129500505Y-71619539D01*
X129405267Y-71524301D01*
X129357648Y-71429063D01*
X129310029Y-71238587D01*
X129310029Y-71095730D01*
X129357648Y-70905254D01*
X129405267Y-70810016D01*
X129500505Y-70714778D01*
X129643362Y-70667158D01*
X129738600Y-70667158D01*
X129881457Y-70714778D01*
X129929076Y-70762397D01*
X130881457Y-71667158D02*
X130310029Y-71667158D01*
X130595743Y-71667158D02*
X130595743Y-70667158D01*
X130500505Y-70810016D01*
X130405267Y-70905254D01*
X130310029Y-70952873D01*
X131833838Y-71667158D02*
X131262410Y-71667158D01*
X131548124Y-71667158D02*
X131548124Y-70667158D01*
X131452886Y-70810016D01*
X131357648Y-70905254D01*
X131262410Y-70952873D01*
G04 #@! TO.C,J71*
X157044910Y-25167158D02*
X157044910Y-25881444D01*
X156997291Y-26024301D01*
X156902053Y-26119539D01*
X156759195Y-26167158D01*
X156663957Y-26167158D01*
X157425862Y-25167158D02*
X158092529Y-25167158D01*
X157663957Y-26167158D01*
X158997291Y-26167158D02*
X158425862Y-26167158D01*
X158711576Y-26167158D02*
X158711576Y-25167158D01*
X158616338Y-25310016D01*
X158521100Y-25405254D01*
X158425862Y-25452873D01*
G04 #@! TO.C,J67*
X131234910Y-38467158D02*
X131234910Y-39181444D01*
X131187291Y-39324301D01*
X131092053Y-39419539D01*
X130949195Y-39467158D01*
X130853957Y-39467158D01*
X132139672Y-38467158D02*
X131949195Y-38467158D01*
X131853957Y-38514778D01*
X131806338Y-38562397D01*
X131711100Y-38705254D01*
X131663481Y-38895730D01*
X131663481Y-39276682D01*
X131711100Y-39371920D01*
X131758719Y-39419539D01*
X131853957Y-39467158D01*
X132044434Y-39467158D01*
X132139672Y-39419539D01*
X132187291Y-39371920D01*
X132234910Y-39276682D01*
X132234910Y-39038587D01*
X132187291Y-38943349D01*
X132139672Y-38895730D01*
X132044434Y-38848111D01*
X131853957Y-38848111D01*
X131758719Y-38895730D01*
X131711100Y-38943349D01*
X131663481Y-39038587D01*
X132568243Y-38467158D02*
X133234910Y-38467158D01*
X132806338Y-39467158D01*
G04 #@! TO.C,J74*
X167131814Y-46871801D02*
X167846100Y-46871801D01*
X167988957Y-46919420D01*
X168084195Y-47014658D01*
X168131814Y-47157516D01*
X168131814Y-47252754D01*
X167131814Y-46490849D02*
X167131814Y-45824182D01*
X168131814Y-46252754D01*
X167465148Y-45014658D02*
X168131814Y-45014658D01*
X167084195Y-45252754D02*
X167798481Y-45490849D01*
X167798481Y-44871801D01*
G04 #@! TO.C,Y1*
X124655624Y-55245968D02*
X125131814Y-55245968D01*
X124131814Y-55579301D02*
X124655624Y-55245968D01*
X124131814Y-54912635D01*
X125131814Y-54055492D02*
X125131814Y-54626920D01*
X125131814Y-54341206D02*
X124131814Y-54341206D01*
X124274672Y-54436444D01*
X124369910Y-54531682D01*
X124417529Y-54626920D01*
G04 #@! TO.C,D6*
X106403838Y-40352158D02*
X106403838Y-39352158D01*
X106641934Y-39352158D01*
X106784791Y-39399778D01*
X106880029Y-39495016D01*
X106927648Y-39590254D01*
X106975267Y-39780730D01*
X106975267Y-39923587D01*
X106927648Y-40114063D01*
X106880029Y-40209301D01*
X106784791Y-40304539D01*
X106641934Y-40352158D01*
X106403838Y-40352158D01*
X107832410Y-39352158D02*
X107641934Y-39352158D01*
X107546695Y-39399778D01*
X107499076Y-39447397D01*
X107403838Y-39590254D01*
X107356219Y-39780730D01*
X107356219Y-40161682D01*
X107403838Y-40256920D01*
X107451457Y-40304539D01*
X107546695Y-40352158D01*
X107737172Y-40352158D01*
X107832410Y-40304539D01*
X107880029Y-40256920D01*
X107927648Y-40161682D01*
X107927648Y-39923587D01*
X107880029Y-39828349D01*
X107832410Y-39780730D01*
X107737172Y-39733111D01*
X107546695Y-39733111D01*
X107451457Y-39780730D01*
X107403838Y-39828349D01*
X107356219Y-39923587D01*
G04 #@! TO.C,D3*
X131451814Y-31420373D02*
X130451814Y-31420373D01*
X130451814Y-31182278D01*
X130499434Y-31039420D01*
X130594672Y-30944182D01*
X130689910Y-30896563D01*
X130880386Y-30848944D01*
X131023243Y-30848944D01*
X131213719Y-30896563D01*
X131308957Y-30944182D01*
X131404195Y-31039420D01*
X131451814Y-31182278D01*
X131451814Y-31420373D01*
X130451814Y-30515611D02*
X130451814Y-29896563D01*
X130832767Y-30229897D01*
X130832767Y-30087039D01*
X130880386Y-29991801D01*
X130928005Y-29944182D01*
X131023243Y-29896563D01*
X131261338Y-29896563D01*
X131356576Y-29944182D01*
X131404195Y-29991801D01*
X131451814Y-30087039D01*
X131451814Y-30372754D01*
X131404195Y-30467992D01*
X131356576Y-30515611D01*
G04 #@! TO.C,D2*
X128701814Y-31420373D02*
X127701814Y-31420373D01*
X127701814Y-31182278D01*
X127749434Y-31039420D01*
X127844672Y-30944182D01*
X127939910Y-30896563D01*
X128130386Y-30848944D01*
X128273243Y-30848944D01*
X128463719Y-30896563D01*
X128558957Y-30944182D01*
X128654195Y-31039420D01*
X128701814Y-31182278D01*
X128701814Y-31420373D01*
X127797053Y-30467992D02*
X127749434Y-30420373D01*
X127701814Y-30325135D01*
X127701814Y-30087039D01*
X127749434Y-29991801D01*
X127797053Y-29944182D01*
X127892291Y-29896563D01*
X127987529Y-29896563D01*
X128130386Y-29944182D01*
X128701814Y-30515611D01*
X128701814Y-29896563D01*
G04 #@! TO.C,D1*
X128811814Y-31457873D02*
X127811814Y-31457873D01*
X127811814Y-31219778D01*
X127859434Y-31076920D01*
X127954672Y-30981682D01*
X128049910Y-30934063D01*
X128240386Y-30886444D01*
X128383243Y-30886444D01*
X128573719Y-30934063D01*
X128668957Y-30981682D01*
X128764195Y-31076920D01*
X128811814Y-31219778D01*
X128811814Y-31457873D01*
X128811814Y-29934063D02*
X128811814Y-30505492D01*
X128811814Y-30219778D02*
X127811814Y-30219778D01*
X127954672Y-30315016D01*
X128049910Y-30410254D01*
X128097529Y-30505492D01*
G04 #@! TO.C,D5*
X145441338Y-32972158D02*
X145441338Y-31972158D01*
X145679434Y-31972158D01*
X145822291Y-32019778D01*
X145917529Y-32115016D01*
X145965148Y-32210254D01*
X146012767Y-32400730D01*
X146012767Y-32543587D01*
X145965148Y-32734063D01*
X145917529Y-32829301D01*
X145822291Y-32924539D01*
X145679434Y-32972158D01*
X145441338Y-32972158D01*
X146917529Y-31972158D02*
X146441338Y-31972158D01*
X146393719Y-32448349D01*
X146441338Y-32400730D01*
X146536576Y-32353111D01*
X146774672Y-32353111D01*
X146869910Y-32400730D01*
X146917529Y-32448349D01*
X146965148Y-32543587D01*
X146965148Y-32781682D01*
X146917529Y-32876920D01*
X146869910Y-32924539D01*
X146774672Y-32972158D01*
X146536576Y-32972158D01*
X146441338Y-32924539D01*
X146393719Y-32876920D01*
X150615148Y-31072158D02*
X150043719Y-31072158D01*
X150329434Y-31072158D02*
X150329434Y-30072158D01*
X150234195Y-30215016D01*
X150138957Y-30310254D01*
X150043719Y-30357873D01*
G04 #@! TO.C,D4*
X137441338Y-32972158D02*
X137441338Y-31972158D01*
X137679434Y-31972158D01*
X137822291Y-32019778D01*
X137917529Y-32115016D01*
X137965148Y-32210254D01*
X138012767Y-32400730D01*
X138012767Y-32543587D01*
X137965148Y-32734063D01*
X137917529Y-32829301D01*
X137822291Y-32924539D01*
X137679434Y-32972158D01*
X137441338Y-32972158D01*
X138869910Y-32305492D02*
X138869910Y-32972158D01*
X138631814Y-31924539D02*
X138393719Y-32638825D01*
X139012767Y-32638825D01*
X142615148Y-31072158D02*
X142043719Y-31072158D01*
X142329434Y-31072158D02*
X142329434Y-30072158D01*
X142234195Y-30215016D01*
X142138957Y-30310254D01*
X142043719Y-30357873D01*
G04 #@! TO.C,R1*
X139811814Y-37936444D02*
X139335624Y-38269778D01*
X139811814Y-38507873D02*
X138811814Y-38507873D01*
X138811814Y-38126920D01*
X138859434Y-38031682D01*
X138907053Y-37984063D01*
X139002291Y-37936444D01*
X139145148Y-37936444D01*
X139240386Y-37984063D01*
X139288005Y-38031682D01*
X139335624Y-38126920D01*
X139335624Y-38507873D01*
X139811814Y-36984063D02*
X139811814Y-37555492D01*
X139811814Y-37269778D02*
X138811814Y-37269778D01*
X138954672Y-37365016D01*
X139049910Y-37460254D01*
X139097529Y-37555492D01*
G04 #@! TO.C,R13*
X110824076Y-37492158D02*
X110490743Y-37015968D01*
X110252648Y-37492158D02*
X110252648Y-36492158D01*
X110633600Y-36492158D01*
X110728838Y-36539778D01*
X110776457Y-36587397D01*
X110824076Y-36682635D01*
X110824076Y-36825492D01*
X110776457Y-36920730D01*
X110728838Y-36968349D01*
X110633600Y-37015968D01*
X110252648Y-37015968D01*
X111776457Y-37492158D02*
X111205029Y-37492158D01*
X111490743Y-37492158D02*
X111490743Y-36492158D01*
X111395505Y-36635016D01*
X111300267Y-36730254D01*
X111205029Y-36777873D01*
X112109791Y-36492158D02*
X112728838Y-36492158D01*
X112395505Y-36873111D01*
X112538362Y-36873111D01*
X112633600Y-36920730D01*
X112681219Y-36968349D01*
X112728838Y-37063587D01*
X112728838Y-37301682D01*
X112681219Y-37396920D01*
X112633600Y-37444539D01*
X112538362Y-37492158D01*
X112252648Y-37492158D01*
X112157410Y-37444539D01*
X112109791Y-37396920D01*
G04 #@! TO.C,R8*
X157675267Y-84332158D02*
X157341934Y-83855968D01*
X157103838Y-84332158D02*
X157103838Y-83332158D01*
X157484791Y-83332158D01*
X157580029Y-83379778D01*
X157627648Y-83427397D01*
X157675267Y-83522635D01*
X157675267Y-83665492D01*
X157627648Y-83760730D01*
X157580029Y-83808349D01*
X157484791Y-83855968D01*
X157103838Y-83855968D01*
X158246695Y-83760730D02*
X158151457Y-83713111D01*
X158103838Y-83665492D01*
X158056219Y-83570254D01*
X158056219Y-83522635D01*
X158103838Y-83427397D01*
X158151457Y-83379778D01*
X158246695Y-83332158D01*
X158437172Y-83332158D01*
X158532410Y-83379778D01*
X158580029Y-83427397D01*
X158627648Y-83522635D01*
X158627648Y-83570254D01*
X158580029Y-83665492D01*
X158532410Y-83713111D01*
X158437172Y-83760730D01*
X158246695Y-83760730D01*
X158151457Y-83808349D01*
X158103838Y-83855968D01*
X158056219Y-83951206D01*
X158056219Y-84141682D01*
X158103838Y-84236920D01*
X158151457Y-84284539D01*
X158246695Y-84332158D01*
X158437172Y-84332158D01*
X158532410Y-84284539D01*
X158580029Y-84236920D01*
X158627648Y-84141682D01*
X158627648Y-83951206D01*
X158580029Y-83855968D01*
X158532410Y-83808349D01*
X158437172Y-83760730D01*
G04 #@! TO.C,R7*
X152925267Y-84604658D02*
X152591934Y-84128468D01*
X152353838Y-84604658D02*
X152353838Y-83604658D01*
X152734791Y-83604658D01*
X152830029Y-83652278D01*
X152877648Y-83699897D01*
X152925267Y-83795135D01*
X152925267Y-83937992D01*
X152877648Y-84033230D01*
X152830029Y-84080849D01*
X152734791Y-84128468D01*
X152353838Y-84128468D01*
X153258600Y-83604658D02*
X153925267Y-83604658D01*
X153496695Y-84604658D01*
G04 #@! TO.C,R6*
X137811814Y-37936444D02*
X137335624Y-38269778D01*
X137811814Y-38507873D02*
X136811814Y-38507873D01*
X136811814Y-38126920D01*
X136859434Y-38031682D01*
X136907053Y-37984063D01*
X137002291Y-37936444D01*
X137145148Y-37936444D01*
X137240386Y-37984063D01*
X137288005Y-38031682D01*
X137335624Y-38126920D01*
X137335624Y-38507873D01*
X136811814Y-37079301D02*
X136811814Y-37269778D01*
X136859434Y-37365016D01*
X136907053Y-37412635D01*
X137049910Y-37507873D01*
X137240386Y-37555492D01*
X137621338Y-37555492D01*
X137716576Y-37507873D01*
X137764195Y-37460254D01*
X137811814Y-37365016D01*
X137811814Y-37174539D01*
X137764195Y-37079301D01*
X137716576Y-37031682D01*
X137621338Y-36984063D01*
X137383243Y-36984063D01*
X137288005Y-37031682D01*
X137240386Y-37079301D01*
X137192767Y-37174539D01*
X137192767Y-37365016D01*
X137240386Y-37460254D01*
X137288005Y-37507873D01*
X137383243Y-37555492D01*
G04 #@! TO.C,R5*
X131451814Y-34636444D02*
X130975624Y-34969778D01*
X131451814Y-35207873D02*
X130451814Y-35207873D01*
X130451814Y-34826920D01*
X130499434Y-34731682D01*
X130547053Y-34684063D01*
X130642291Y-34636444D01*
X130785148Y-34636444D01*
X130880386Y-34684063D01*
X130928005Y-34731682D01*
X130975624Y-34826920D01*
X130975624Y-35207873D01*
X130451814Y-33731682D02*
X130451814Y-34207873D01*
X130928005Y-34255492D01*
X130880386Y-34207873D01*
X130832767Y-34112635D01*
X130832767Y-33874539D01*
X130880386Y-33779301D01*
X130928005Y-33731682D01*
X131023243Y-33684063D01*
X131261338Y-33684063D01*
X131356576Y-33731682D01*
X131404195Y-33779301D01*
X131451814Y-33874539D01*
X131451814Y-34112635D01*
X131404195Y-34207873D01*
X131356576Y-34255492D01*
G04 #@! TO.C,R4*
X128701814Y-34636444D02*
X128225624Y-34969778D01*
X128701814Y-35207873D02*
X127701814Y-35207873D01*
X127701814Y-34826920D01*
X127749434Y-34731682D01*
X127797053Y-34684063D01*
X127892291Y-34636444D01*
X128035148Y-34636444D01*
X128130386Y-34684063D01*
X128178005Y-34731682D01*
X128225624Y-34826920D01*
X128225624Y-35207873D01*
X128035148Y-33779301D02*
X128701814Y-33779301D01*
X127654195Y-34017397D02*
X128368481Y-34255492D01*
X128368481Y-33636444D01*
G04 #@! TO.C,R3*
X125951814Y-34636444D02*
X125475624Y-34969778D01*
X125951814Y-35207873D02*
X124951814Y-35207873D01*
X124951814Y-34826920D01*
X124999434Y-34731682D01*
X125047053Y-34684063D01*
X125142291Y-34636444D01*
X125285148Y-34636444D01*
X125380386Y-34684063D01*
X125428005Y-34731682D01*
X125475624Y-34826920D01*
X125475624Y-35207873D01*
X124951814Y-34303111D02*
X124951814Y-33684063D01*
X125332767Y-34017397D01*
X125332767Y-33874539D01*
X125380386Y-33779301D01*
X125428005Y-33731682D01*
X125523243Y-33684063D01*
X125761338Y-33684063D01*
X125856576Y-33731682D01*
X125904195Y-33779301D01*
X125951814Y-33874539D01*
X125951814Y-34160254D01*
X125904195Y-34255492D01*
X125856576Y-34303111D01*
G04 #@! TO.C,R2*
X131962767Y-39242158D02*
X131629434Y-38765968D01*
X131391338Y-39242158D02*
X131391338Y-38242158D01*
X131772291Y-38242158D01*
X131867529Y-38289778D01*
X131915148Y-38337397D01*
X131962767Y-38432635D01*
X131962767Y-38575492D01*
X131915148Y-38670730D01*
X131867529Y-38718349D01*
X131772291Y-38765968D01*
X131391338Y-38765968D01*
X132343719Y-38337397D02*
X132391338Y-38289778D01*
X132486576Y-38242158D01*
X132724672Y-38242158D01*
X132819910Y-38289778D01*
X132867529Y-38337397D01*
X132915148Y-38432635D01*
X132915148Y-38527873D01*
X132867529Y-38670730D01*
X132296100Y-39242158D01*
X132915148Y-39242158D01*
G04 #@! TO.C,C10*
D11*
X120985005Y-30936349D02*
X120961195Y-30960158D01*
X120889767Y-30983968D01*
X120842148Y-30983968D01*
X120770719Y-30960158D01*
X120723100Y-30912539D01*
X120699291Y-30864920D01*
X120675481Y-30769682D01*
X120675481Y-30698254D01*
X120699291Y-30603016D01*
X120723100Y-30555397D01*
X120770719Y-30507778D01*
X120842148Y-30483968D01*
X120889767Y-30483968D01*
X120961195Y-30507778D01*
X120985005Y-30531587D01*
X121461195Y-30983968D02*
X121175481Y-30983968D01*
X121318338Y-30983968D02*
X121318338Y-30483968D01*
X121270719Y-30555397D01*
X121223100Y-30603016D01*
X121175481Y-30626825D01*
X121770719Y-30483968D02*
X121818338Y-30483968D01*
X121865957Y-30507778D01*
X121889767Y-30531587D01*
X121913576Y-30579206D01*
X121937386Y-30674444D01*
X121937386Y-30793492D01*
X121913576Y-30888730D01*
X121889767Y-30936349D01*
X121865957Y-30960158D01*
X121818338Y-30983968D01*
X121770719Y-30983968D01*
X121723100Y-30960158D01*
X121699291Y-30936349D01*
X121675481Y-30888730D01*
X121651672Y-30793492D01*
X121651672Y-30674444D01*
X121675481Y-30579206D01*
X121699291Y-30531587D01*
X121723100Y-30507778D01*
X121770719Y-30483968D01*
G04 #@! TO.C,C9*
X121146100Y-25538349D02*
X121122291Y-25562158D01*
X121050862Y-25585968D01*
X121003243Y-25585968D01*
X120931814Y-25562158D01*
X120884195Y-25514539D01*
X120860386Y-25466920D01*
X120836576Y-25371682D01*
X120836576Y-25300254D01*
X120860386Y-25205016D01*
X120884195Y-25157397D01*
X120931814Y-25109778D01*
X121003243Y-25085968D01*
X121050862Y-25085968D01*
X121122291Y-25109778D01*
X121146100Y-25133587D01*
X121384195Y-25585968D02*
X121479434Y-25585968D01*
X121527053Y-25562158D01*
X121550862Y-25538349D01*
X121598481Y-25466920D01*
X121622291Y-25371682D01*
X121622291Y-25181206D01*
X121598481Y-25133587D01*
X121574672Y-25109778D01*
X121527053Y-25085968D01*
X121431814Y-25085968D01*
X121384195Y-25109778D01*
X121360386Y-25133587D01*
X121336576Y-25181206D01*
X121336576Y-25300254D01*
X121360386Y-25347873D01*
X121384195Y-25371682D01*
X121431814Y-25395492D01*
X121527053Y-25395492D01*
X121574672Y-25371682D01*
X121598481Y-25347873D01*
X121622291Y-25300254D01*
G04 #@! TO.C,H4*
X106134481Y-26932468D02*
X106134481Y-26432468D01*
X106134481Y-26670563D02*
X106420195Y-26670563D01*
X106420195Y-26932468D02*
X106420195Y-26432468D01*
X106872576Y-26599135D02*
X106872576Y-26932468D01*
X106753529Y-26408658D02*
X106634481Y-26765801D01*
X106944005Y-26765801D01*
G04 #@! TO.C,H3*
X106388481Y-105704468D02*
X106388481Y-105204468D01*
X106388481Y-105442563D02*
X106674195Y-105442563D01*
X106674195Y-105704468D02*
X106674195Y-105204468D01*
X106864672Y-105204468D02*
X107174195Y-105204468D01*
X107007529Y-105394944D01*
X107078957Y-105394944D01*
X107126576Y-105418754D01*
X107150386Y-105442563D01*
X107174195Y-105490182D01*
X107174195Y-105609230D01*
X107150386Y-105656849D01*
X107126576Y-105680658D01*
X107078957Y-105704468D01*
X106936100Y-105704468D01*
X106888481Y-105680658D01*
X106864672Y-105656849D01*
G04 #@! TO.C,H2*
X167724481Y-105767968D02*
X167724481Y-105267968D01*
X167724481Y-105506063D02*
X168010195Y-105506063D01*
X168010195Y-105767968D02*
X168010195Y-105267968D01*
X168224481Y-105315587D02*
X168248291Y-105291778D01*
X168295910Y-105267968D01*
X168414957Y-105267968D01*
X168462576Y-105291778D01*
X168486386Y-105315587D01*
X168510195Y-105363206D01*
X168510195Y-105410825D01*
X168486386Y-105482254D01*
X168200672Y-105767968D01*
X168510195Y-105767968D01*
G04 #@! TO.C,H5*
X167724481Y-26932468D02*
X167724481Y-26432468D01*
X167724481Y-26670563D02*
X168010195Y-26670563D01*
X168010195Y-26932468D02*
X168010195Y-26432468D01*
X168486386Y-26432468D02*
X168248291Y-26432468D01*
X168224481Y-26670563D01*
X168248291Y-26646754D01*
X168295910Y-26622944D01*
X168414957Y-26622944D01*
X168462576Y-26646754D01*
X168486386Y-26670563D01*
X168510195Y-26718182D01*
X168510195Y-26837230D01*
X168486386Y-26884849D01*
X168462576Y-26908658D01*
X168414957Y-26932468D01*
X168295910Y-26932468D01*
X168248291Y-26908658D01*
X168224481Y-26884849D01*
G04 #@! TO.C,U5*
X110982981Y-37267968D02*
X110982981Y-37672730D01*
X111006791Y-37720349D01*
X111030600Y-37744158D01*
X111078219Y-37767968D01*
X111173457Y-37767968D01*
X111221076Y-37744158D01*
X111244886Y-37720349D01*
X111268695Y-37672730D01*
X111268695Y-37267968D01*
X111744886Y-37267968D02*
X111506791Y-37267968D01*
X111482981Y-37506063D01*
X111506791Y-37482254D01*
X111554410Y-37458444D01*
X111673457Y-37458444D01*
X111721076Y-37482254D01*
X111744886Y-37506063D01*
X111768695Y-37553682D01*
X111768695Y-37672730D01*
X111744886Y-37720349D01*
X111721076Y-37744158D01*
X111673457Y-37767968D01*
X111554410Y-37767968D01*
X111506791Y-37744158D01*
X111482981Y-37720349D01*
G04 #@! TD*
M02*
