M48
;DRILL file {KiCad 5.0.1-33cea8e~68~ubuntu16.04.1} date Tue 09 Apr 2019 16:50:01 EDT
;FORMAT={3:3/ absolute / metric / suppress leading zeros}
FMAT,2
METRIC,TZ
T1C0.350
T2C0.650
T3C0.700
T4C1.000
%
G90
G05
M71
T1
X104929Y-38470
X117792Y-35810
X125879Y-67970
X125929Y-58770
X126929Y-37470
X127964Y-69825
X127979Y-62370
X129679Y-28720
X130052Y-51470
X130292Y-37360
X132279Y-72072
X132429Y-28720
X132792Y-52810
X133179Y-51270
X133464Y-53394
X134179Y-38520
X134679Y-52770
X135429Y-47520
X135667Y-71870
X135879Y-53520
X137929Y-35020
X137929Y-53160
X138529Y-53160
X139179Y-40020
X139479Y-73770
X141179Y-52170
X141679Y-51170
X142299Y-40640
X143029Y-51595
X143529Y-52345
X144579Y-70220
X145929Y-55020
X145964Y-63570
X148079Y-67520
X148114Y-58385
X149079Y-67520
X153879Y-84382
X155879Y-84382
X156654Y-40690
X158854Y-40690
X165579Y-27890
T2
X131409Y-40710
X131409Y-41980
X131409Y-43250
X131409Y-44520
X131409Y-45790
X132679Y-40710
X132679Y-41980
X132679Y-43250
X132679Y-44520
X132679Y-45790
T4
X140714Y-84825
X140714Y-87365
X111802Y-26060
X114342Y-26060
X104329Y-69060
X104329Y-71600
X165079Y-63542
X165079Y-66082
X148629Y-87632
X148629Y-90172
X154079Y-55542
X154079Y-58082
X154679Y-44682
X157219Y-44682
X115579Y-61060
X115579Y-63600
X115579Y-85060
X115579Y-87600
X110079Y-93060
X110079Y-95600
X110079Y-45020
X110079Y-47560
X170579Y-55542
X170579Y-58082
X170579Y-79582
X170579Y-82122
X124964Y-100785
X124964Y-103325
X104329Y-61060
X104329Y-63600
X140714Y-100882
X140714Y-103422
X159629Y-95582
X159629Y-98122
X115579Y-77060
X115579Y-79600
X124964Y-79995
X127504Y-79995
X130044Y-79995
X132584Y-79995
X162479Y-44682
X165019Y-44682
X128829Y-75810
X131369Y-75810
X159579Y-103622
X159579Y-106162
X159579Y-63542
X159579Y-66082
X159579Y-55542
X159579Y-58082
X124964Y-84745
X124964Y-87285
X121179Y-45020
X121179Y-47560
X170579Y-71582
X170579Y-74122
X165079Y-55542
X165079Y-58082
X159579Y-79582
X159579Y-82122
X130214Y-100825
X130214Y-103365
X115579Y-69060
X115579Y-71600
X165129Y-87582
X165129Y-90122
X104329Y-53060
X104329Y-55600
X115564Y-100785
X115564Y-103325
X148579Y-103622
X148579Y-106162
X104329Y-85060
X104329Y-87600
X110079Y-53060
X110079Y-55600
X110079Y-77060
X110079Y-79600
X130214Y-84785
X130214Y-87325
X170579Y-63582
X170579Y-66122
X154079Y-63542
X154079Y-66082
X165129Y-95582
X165129Y-98122
X165079Y-71582
X165079Y-74122
X170629Y-95582
X170629Y-98122
X104329Y-93060
X104329Y-95600
X170629Y-87582
X170629Y-90122
X110079Y-61060
X110079Y-63600
X135464Y-84825
X135464Y-87365
X148629Y-79632
X148629Y-82172
X104329Y-77060
X104329Y-79600
X165079Y-79582
X165079Y-82122
X135464Y-92825
X135464Y-95365
X126679Y-45020
X126679Y-47560
X154079Y-79582
X154079Y-82122
X124964Y-92785
X124964Y-95325
X154079Y-71582
X154079Y-74122
X170679Y-34082
X170679Y-36622
X170679Y-39162
X148629Y-95632
X148629Y-98172
X110079Y-85060
X110079Y-87600
X115579Y-45020
X115579Y-47560
X165079Y-103622
X165079Y-106162
X110079Y-69060
X110079Y-71600
X115579Y-53060
X115579Y-55600
X154079Y-103615
X154079Y-106155
X140714Y-92825
X140714Y-95365
X159579Y-71582
X159579Y-74122
X154079Y-95582
X154079Y-98122
X104329Y-45020
X104329Y-47560
X115579Y-93060
X115579Y-95600
X135464Y-100825
X135464Y-103365
X124329Y-72560
X124329Y-75100
X130214Y-92825
X130214Y-95365
T2
X169359Y-45592G85X168959Y-45592
G05
X169359Y-50432G85X168959Y-50432
G05
T3
X172409Y-45282G85X171909Y-45282
G05
X172409Y-50742G85X171909Y-50742
G05
T0
M30
