G04 #@! TF.GenerationSoftware,KiCad,Pcbnew,5.0.1-33cea8e~68~ubuntu16.04.1*
G04 #@! TF.CreationDate,2019-04-06T14:10:21-04:00*
G04 #@! TF.ProjectId,electrosprawl,656C656374726F73707261776C2E6B69,rev?*
G04 #@! TF.SameCoordinates,Original*
G04 #@! TF.FileFunction,Paste,Top*
G04 #@! TF.FilePolarity,Positive*
%FSLAX46Y46*%
G04 Gerber Fmt 4.6, Leading zero omitted, Abs format (unit mm)*
G04 Created by KiCad (PCBNEW 5.0.1-33cea8e~68~ubuntu16.04.1) date Sat 06 Apr 2019 14:10:21 EDT*
%MOMM*%
%LPD*%
G01*
G04 APERTURE LIST*
%ADD10R,1.000000X0.230000*%
%ADD11R,0.230000X1.000000*%
%ADD12C,0.100000*%
%ADD13C,0.875000*%
%ADD14R,2.750000X1.000000*%
%ADD15R,0.700000X1.750000*%
%ADD16R,1.300000X1.500000*%
%ADD17R,0.800000X1.500000*%
%ADD18R,1.450000X1.000000*%
%ADD19R,0.800000X1.400000*%
%ADD20R,1.500000X1.500000*%
%ADD21R,1.000000X1.550000*%
%ADD22R,2.000000X1.350000*%
%ADD23R,0.700000X1.825000*%
%ADD24R,1.500000X2.000000*%
%ADD25R,1.650000X0.400000*%
%ADD26R,2.500000X1.430000*%
%ADD27R,1.800000X1.000000*%
%ADD28R,0.600000X1.660000*%
%ADD29R,1.500000X1.000000*%
%ADD30R,1.100000X0.400000*%
%ADD31C,1.600000*%
%ADD32R,2.000000X1.500000*%
%ADD33R,2.000000X3.800000*%
G04 APERTURE END LIST*
D10*
G04 #@! TO.C,U2*
X129179434Y-56769778D03*
X129179434Y-57169778D03*
X129179434Y-57569778D03*
X129179434Y-57969778D03*
X129179434Y-58369778D03*
X129179434Y-58769778D03*
X129179434Y-59169778D03*
X129179434Y-59569778D03*
X129179434Y-59969778D03*
X129179434Y-60369778D03*
X129179434Y-60769778D03*
X129179434Y-61169778D03*
X129179434Y-61569778D03*
X129179434Y-61969778D03*
X129179434Y-62369778D03*
X129179434Y-62769778D03*
X129179434Y-63169778D03*
X129179434Y-63569778D03*
X129179434Y-63969778D03*
X129179434Y-64369778D03*
X129179434Y-64769778D03*
X129179434Y-65169778D03*
X129179434Y-65569778D03*
X129179434Y-65969778D03*
X129179434Y-66369778D03*
X129179434Y-66769778D03*
X129179434Y-67169778D03*
X129179434Y-67569778D03*
X129179434Y-67969778D03*
X129179434Y-68369778D03*
X129179434Y-68769778D03*
X129179434Y-69169778D03*
D11*
X130679434Y-70669778D03*
X131079434Y-70669778D03*
X131479434Y-70669778D03*
X131879434Y-70669778D03*
X132279434Y-70669778D03*
X132679434Y-70669778D03*
X133079434Y-70669778D03*
X133479434Y-70669778D03*
X133879434Y-70669778D03*
X134279434Y-70669778D03*
X134679434Y-70669778D03*
X135079434Y-70669778D03*
X135479434Y-70669778D03*
X135879434Y-70669778D03*
X136279434Y-70669778D03*
X136679434Y-70669778D03*
X137079434Y-70669778D03*
X137479434Y-70669778D03*
X137879434Y-70669778D03*
X138279434Y-70669778D03*
X138679434Y-70669778D03*
X139079434Y-70669778D03*
X139479434Y-70669778D03*
X139879434Y-70669778D03*
X140279434Y-70669778D03*
X140679434Y-70669778D03*
X141079434Y-70669778D03*
X141479434Y-70669778D03*
X141879434Y-70669778D03*
X142279434Y-70669778D03*
X142679434Y-70669778D03*
X143079434Y-70669778D03*
D10*
X144579434Y-69169778D03*
X144579434Y-68769778D03*
X144579434Y-68369778D03*
X144579434Y-67969778D03*
X144579434Y-67569778D03*
X144579434Y-67169778D03*
X144579434Y-66769778D03*
X144579434Y-66369778D03*
X144579434Y-65969778D03*
X144579434Y-65569778D03*
X144579434Y-65169778D03*
X144579434Y-64769778D03*
X144579434Y-64369778D03*
X144579434Y-63969778D03*
X144579434Y-63569778D03*
X144579434Y-63169778D03*
X144579434Y-62769778D03*
X144579434Y-62369778D03*
X144579434Y-61969778D03*
X144579434Y-61569778D03*
X144579434Y-61169778D03*
X144579434Y-60769778D03*
X144579434Y-60369778D03*
X144579434Y-59969778D03*
X144579434Y-59569778D03*
X144579434Y-59169778D03*
X144579434Y-58769778D03*
X144579434Y-58369778D03*
X144579434Y-57969778D03*
X144579434Y-57569778D03*
X144579434Y-57169778D03*
X144579434Y-56769778D03*
D11*
X143079434Y-55269778D03*
X142679434Y-55269778D03*
X142279434Y-55269778D03*
X141879434Y-55269778D03*
X141479434Y-55269778D03*
X141079434Y-55269778D03*
X140679434Y-55269778D03*
X140279434Y-55269778D03*
X139879434Y-55269778D03*
X139479434Y-55269778D03*
X139079434Y-55269778D03*
X138679434Y-55269778D03*
X138279434Y-55269778D03*
X137879434Y-55269778D03*
X137479434Y-55269778D03*
X137079434Y-55269778D03*
X136679434Y-55269778D03*
X136279434Y-55269778D03*
X135879434Y-55269778D03*
X135479434Y-55269778D03*
X135079434Y-55269778D03*
X134679434Y-55269778D03*
X134279434Y-55269778D03*
X133879434Y-55269778D03*
X133479434Y-55269778D03*
X133079434Y-55269778D03*
X132679434Y-55269778D03*
X132279434Y-55269778D03*
X131879434Y-55269778D03*
X131479434Y-55269778D03*
X131079434Y-55269778D03*
X130679434Y-55269778D03*
G04 #@! TD*
D12*
G04 #@! TO.C,C6*
G36*
X136857125Y-51520831D02*
X136878360Y-51523981D01*
X136899184Y-51529197D01*
X136919396Y-51536429D01*
X136938802Y-51545608D01*
X136957215Y-51556644D01*
X136974458Y-51569432D01*
X136990364Y-51583848D01*
X137004780Y-51599754D01*
X137017568Y-51616997D01*
X137028604Y-51635410D01*
X137037783Y-51654816D01*
X137045015Y-51675028D01*
X137050231Y-51695852D01*
X137053381Y-51717087D01*
X137054434Y-51738528D01*
X137054434Y-52176028D01*
X137053381Y-52197469D01*
X137050231Y-52218704D01*
X137045015Y-52239528D01*
X137037783Y-52259740D01*
X137028604Y-52279146D01*
X137017568Y-52297559D01*
X137004780Y-52314802D01*
X136990364Y-52330708D01*
X136974458Y-52345124D01*
X136957215Y-52357912D01*
X136938802Y-52368948D01*
X136919396Y-52378127D01*
X136899184Y-52385359D01*
X136878360Y-52390575D01*
X136857125Y-52393725D01*
X136835684Y-52394778D01*
X136323184Y-52394778D01*
X136301743Y-52393725D01*
X136280508Y-52390575D01*
X136259684Y-52385359D01*
X136239472Y-52378127D01*
X136220066Y-52368948D01*
X136201653Y-52357912D01*
X136184410Y-52345124D01*
X136168504Y-52330708D01*
X136154088Y-52314802D01*
X136141300Y-52297559D01*
X136130264Y-52279146D01*
X136121085Y-52259740D01*
X136113853Y-52239528D01*
X136108637Y-52218704D01*
X136105487Y-52197469D01*
X136104434Y-52176028D01*
X136104434Y-51738528D01*
X136105487Y-51717087D01*
X136108637Y-51695852D01*
X136113853Y-51675028D01*
X136121085Y-51654816D01*
X136130264Y-51635410D01*
X136141300Y-51616997D01*
X136154088Y-51599754D01*
X136168504Y-51583848D01*
X136184410Y-51569432D01*
X136201653Y-51556644D01*
X136220066Y-51545608D01*
X136239472Y-51536429D01*
X136259684Y-51529197D01*
X136280508Y-51523981D01*
X136301743Y-51520831D01*
X136323184Y-51519778D01*
X136835684Y-51519778D01*
X136857125Y-51520831D01*
X136857125Y-51520831D01*
G37*
D13*
X136579434Y-51957278D03*
D12*
G36*
X136857125Y-49945831D02*
X136878360Y-49948981D01*
X136899184Y-49954197D01*
X136919396Y-49961429D01*
X136938802Y-49970608D01*
X136957215Y-49981644D01*
X136974458Y-49994432D01*
X136990364Y-50008848D01*
X137004780Y-50024754D01*
X137017568Y-50041997D01*
X137028604Y-50060410D01*
X137037783Y-50079816D01*
X137045015Y-50100028D01*
X137050231Y-50120852D01*
X137053381Y-50142087D01*
X137054434Y-50163528D01*
X137054434Y-50601028D01*
X137053381Y-50622469D01*
X137050231Y-50643704D01*
X137045015Y-50664528D01*
X137037783Y-50684740D01*
X137028604Y-50704146D01*
X137017568Y-50722559D01*
X137004780Y-50739802D01*
X136990364Y-50755708D01*
X136974458Y-50770124D01*
X136957215Y-50782912D01*
X136938802Y-50793948D01*
X136919396Y-50803127D01*
X136899184Y-50810359D01*
X136878360Y-50815575D01*
X136857125Y-50818725D01*
X136835684Y-50819778D01*
X136323184Y-50819778D01*
X136301743Y-50818725D01*
X136280508Y-50815575D01*
X136259684Y-50810359D01*
X136239472Y-50803127D01*
X136220066Y-50793948D01*
X136201653Y-50782912D01*
X136184410Y-50770124D01*
X136168504Y-50755708D01*
X136154088Y-50739802D01*
X136141300Y-50722559D01*
X136130264Y-50704146D01*
X136121085Y-50684740D01*
X136113853Y-50664528D01*
X136108637Y-50643704D01*
X136105487Y-50622469D01*
X136104434Y-50601028D01*
X136104434Y-50163528D01*
X136105487Y-50142087D01*
X136108637Y-50120852D01*
X136113853Y-50100028D01*
X136121085Y-50079816D01*
X136130264Y-50060410D01*
X136141300Y-50041997D01*
X136154088Y-50024754D01*
X136168504Y-50008848D01*
X136184410Y-49994432D01*
X136201653Y-49981644D01*
X136220066Y-49970608D01*
X136239472Y-49961429D01*
X136259684Y-49954197D01*
X136280508Y-49948981D01*
X136301743Y-49945831D01*
X136323184Y-49944778D01*
X136835684Y-49944778D01*
X136857125Y-49945831D01*
X136857125Y-49945831D01*
G37*
D13*
X136579434Y-50382278D03*
G04 #@! TD*
D14*
G04 #@! TO.C,SW1*
X148059434Y-34519778D03*
X142299434Y-34519778D03*
X142299434Y-38519778D03*
X148059434Y-38519778D03*
G04 #@! TD*
D12*
G04 #@! TO.C,C2*
G36*
X124207125Y-55520831D02*
X124228360Y-55523981D01*
X124249184Y-55529197D01*
X124269396Y-55536429D01*
X124288802Y-55545608D01*
X124307215Y-55556644D01*
X124324458Y-55569432D01*
X124340364Y-55583848D01*
X124354780Y-55599754D01*
X124367568Y-55616997D01*
X124378604Y-55635410D01*
X124387783Y-55654816D01*
X124395015Y-55675028D01*
X124400231Y-55695852D01*
X124403381Y-55717087D01*
X124404434Y-55738528D01*
X124404434Y-56176028D01*
X124403381Y-56197469D01*
X124400231Y-56218704D01*
X124395015Y-56239528D01*
X124387783Y-56259740D01*
X124378604Y-56279146D01*
X124367568Y-56297559D01*
X124354780Y-56314802D01*
X124340364Y-56330708D01*
X124324458Y-56345124D01*
X124307215Y-56357912D01*
X124288802Y-56368948D01*
X124269396Y-56378127D01*
X124249184Y-56385359D01*
X124228360Y-56390575D01*
X124207125Y-56393725D01*
X124185684Y-56394778D01*
X123673184Y-56394778D01*
X123651743Y-56393725D01*
X123630508Y-56390575D01*
X123609684Y-56385359D01*
X123589472Y-56378127D01*
X123570066Y-56368948D01*
X123551653Y-56357912D01*
X123534410Y-56345124D01*
X123518504Y-56330708D01*
X123504088Y-56314802D01*
X123491300Y-56297559D01*
X123480264Y-56279146D01*
X123471085Y-56259740D01*
X123463853Y-56239528D01*
X123458637Y-56218704D01*
X123455487Y-56197469D01*
X123454434Y-56176028D01*
X123454434Y-55738528D01*
X123455487Y-55717087D01*
X123458637Y-55695852D01*
X123463853Y-55675028D01*
X123471085Y-55654816D01*
X123480264Y-55635410D01*
X123491300Y-55616997D01*
X123504088Y-55599754D01*
X123518504Y-55583848D01*
X123534410Y-55569432D01*
X123551653Y-55556644D01*
X123570066Y-55545608D01*
X123589472Y-55536429D01*
X123609684Y-55529197D01*
X123630508Y-55523981D01*
X123651743Y-55520831D01*
X123673184Y-55519778D01*
X124185684Y-55519778D01*
X124207125Y-55520831D01*
X124207125Y-55520831D01*
G37*
D13*
X123929434Y-55957278D03*
D12*
G36*
X124207125Y-53945831D02*
X124228360Y-53948981D01*
X124249184Y-53954197D01*
X124269396Y-53961429D01*
X124288802Y-53970608D01*
X124307215Y-53981644D01*
X124324458Y-53994432D01*
X124340364Y-54008848D01*
X124354780Y-54024754D01*
X124367568Y-54041997D01*
X124378604Y-54060410D01*
X124387783Y-54079816D01*
X124395015Y-54100028D01*
X124400231Y-54120852D01*
X124403381Y-54142087D01*
X124404434Y-54163528D01*
X124404434Y-54601028D01*
X124403381Y-54622469D01*
X124400231Y-54643704D01*
X124395015Y-54664528D01*
X124387783Y-54684740D01*
X124378604Y-54704146D01*
X124367568Y-54722559D01*
X124354780Y-54739802D01*
X124340364Y-54755708D01*
X124324458Y-54770124D01*
X124307215Y-54782912D01*
X124288802Y-54793948D01*
X124269396Y-54803127D01*
X124249184Y-54810359D01*
X124228360Y-54815575D01*
X124207125Y-54818725D01*
X124185684Y-54819778D01*
X123673184Y-54819778D01*
X123651743Y-54818725D01*
X123630508Y-54815575D01*
X123609684Y-54810359D01*
X123589472Y-54803127D01*
X123570066Y-54793948D01*
X123551653Y-54782912D01*
X123534410Y-54770124D01*
X123518504Y-54755708D01*
X123504088Y-54739802D01*
X123491300Y-54722559D01*
X123480264Y-54704146D01*
X123471085Y-54684740D01*
X123463853Y-54664528D01*
X123458637Y-54643704D01*
X123455487Y-54622469D01*
X123454434Y-54601028D01*
X123454434Y-54163528D01*
X123455487Y-54142087D01*
X123458637Y-54120852D01*
X123463853Y-54100028D01*
X123471085Y-54079816D01*
X123480264Y-54060410D01*
X123491300Y-54041997D01*
X123504088Y-54024754D01*
X123518504Y-54008848D01*
X123534410Y-53994432D01*
X123551653Y-53981644D01*
X123570066Y-53970608D01*
X123589472Y-53961429D01*
X123609684Y-53954197D01*
X123630508Y-53948981D01*
X123651743Y-53945831D01*
X123673184Y-53944778D01*
X124185684Y-53944778D01*
X124207125Y-53945831D01*
X124207125Y-53945831D01*
G37*
D13*
X123929434Y-54382278D03*
G04 #@! TD*
D12*
G04 #@! TO.C,C3*
G36*
X125207125Y-69945831D02*
X125228360Y-69948981D01*
X125249184Y-69954197D01*
X125269396Y-69961429D01*
X125288802Y-69970608D01*
X125307215Y-69981644D01*
X125324458Y-69994432D01*
X125340364Y-70008848D01*
X125354780Y-70024754D01*
X125367568Y-70041997D01*
X125378604Y-70060410D01*
X125387783Y-70079816D01*
X125395015Y-70100028D01*
X125400231Y-70120852D01*
X125403381Y-70142087D01*
X125404434Y-70163528D01*
X125404434Y-70601028D01*
X125403381Y-70622469D01*
X125400231Y-70643704D01*
X125395015Y-70664528D01*
X125387783Y-70684740D01*
X125378604Y-70704146D01*
X125367568Y-70722559D01*
X125354780Y-70739802D01*
X125340364Y-70755708D01*
X125324458Y-70770124D01*
X125307215Y-70782912D01*
X125288802Y-70793948D01*
X125269396Y-70803127D01*
X125249184Y-70810359D01*
X125228360Y-70815575D01*
X125207125Y-70818725D01*
X125185684Y-70819778D01*
X124673184Y-70819778D01*
X124651743Y-70818725D01*
X124630508Y-70815575D01*
X124609684Y-70810359D01*
X124589472Y-70803127D01*
X124570066Y-70793948D01*
X124551653Y-70782912D01*
X124534410Y-70770124D01*
X124518504Y-70755708D01*
X124504088Y-70739802D01*
X124491300Y-70722559D01*
X124480264Y-70704146D01*
X124471085Y-70684740D01*
X124463853Y-70664528D01*
X124458637Y-70643704D01*
X124455487Y-70622469D01*
X124454434Y-70601028D01*
X124454434Y-70163528D01*
X124455487Y-70142087D01*
X124458637Y-70120852D01*
X124463853Y-70100028D01*
X124471085Y-70079816D01*
X124480264Y-70060410D01*
X124491300Y-70041997D01*
X124504088Y-70024754D01*
X124518504Y-70008848D01*
X124534410Y-69994432D01*
X124551653Y-69981644D01*
X124570066Y-69970608D01*
X124589472Y-69961429D01*
X124609684Y-69954197D01*
X124630508Y-69948981D01*
X124651743Y-69945831D01*
X124673184Y-69944778D01*
X125185684Y-69944778D01*
X125207125Y-69945831D01*
X125207125Y-69945831D01*
G37*
D13*
X124929434Y-70382278D03*
D12*
G36*
X125207125Y-71520831D02*
X125228360Y-71523981D01*
X125249184Y-71529197D01*
X125269396Y-71536429D01*
X125288802Y-71545608D01*
X125307215Y-71556644D01*
X125324458Y-71569432D01*
X125340364Y-71583848D01*
X125354780Y-71599754D01*
X125367568Y-71616997D01*
X125378604Y-71635410D01*
X125387783Y-71654816D01*
X125395015Y-71675028D01*
X125400231Y-71695852D01*
X125403381Y-71717087D01*
X125404434Y-71738528D01*
X125404434Y-72176028D01*
X125403381Y-72197469D01*
X125400231Y-72218704D01*
X125395015Y-72239528D01*
X125387783Y-72259740D01*
X125378604Y-72279146D01*
X125367568Y-72297559D01*
X125354780Y-72314802D01*
X125340364Y-72330708D01*
X125324458Y-72345124D01*
X125307215Y-72357912D01*
X125288802Y-72368948D01*
X125269396Y-72378127D01*
X125249184Y-72385359D01*
X125228360Y-72390575D01*
X125207125Y-72393725D01*
X125185684Y-72394778D01*
X124673184Y-72394778D01*
X124651743Y-72393725D01*
X124630508Y-72390575D01*
X124609684Y-72385359D01*
X124589472Y-72378127D01*
X124570066Y-72368948D01*
X124551653Y-72357912D01*
X124534410Y-72345124D01*
X124518504Y-72330708D01*
X124504088Y-72314802D01*
X124491300Y-72297559D01*
X124480264Y-72279146D01*
X124471085Y-72259740D01*
X124463853Y-72239528D01*
X124458637Y-72218704D01*
X124455487Y-72197469D01*
X124454434Y-72176028D01*
X124454434Y-71738528D01*
X124455487Y-71717087D01*
X124458637Y-71695852D01*
X124463853Y-71675028D01*
X124471085Y-71654816D01*
X124480264Y-71635410D01*
X124491300Y-71616997D01*
X124504088Y-71599754D01*
X124518504Y-71583848D01*
X124534410Y-71569432D01*
X124551653Y-71556644D01*
X124570066Y-71545608D01*
X124589472Y-71536429D01*
X124609684Y-71529197D01*
X124630508Y-71523981D01*
X124651743Y-71520831D01*
X124673184Y-71519778D01*
X125185684Y-71519778D01*
X125207125Y-71520831D01*
X125207125Y-71520831D01*
G37*
D13*
X124929434Y-71957278D03*
G04 #@! TD*
D12*
G04 #@! TO.C,C4*
G36*
X123882125Y-61545831D02*
X123903360Y-61548981D01*
X123924184Y-61554197D01*
X123944396Y-61561429D01*
X123963802Y-61570608D01*
X123982215Y-61581644D01*
X123999458Y-61594432D01*
X124015364Y-61608848D01*
X124029780Y-61624754D01*
X124042568Y-61641997D01*
X124053604Y-61660410D01*
X124062783Y-61679816D01*
X124070015Y-61700028D01*
X124075231Y-61720852D01*
X124078381Y-61742087D01*
X124079434Y-61763528D01*
X124079434Y-62276028D01*
X124078381Y-62297469D01*
X124075231Y-62318704D01*
X124070015Y-62339528D01*
X124062783Y-62359740D01*
X124053604Y-62379146D01*
X124042568Y-62397559D01*
X124029780Y-62414802D01*
X124015364Y-62430708D01*
X123999458Y-62445124D01*
X123982215Y-62457912D01*
X123963802Y-62468948D01*
X123944396Y-62478127D01*
X123924184Y-62485359D01*
X123903360Y-62490575D01*
X123882125Y-62493725D01*
X123860684Y-62494778D01*
X123423184Y-62494778D01*
X123401743Y-62493725D01*
X123380508Y-62490575D01*
X123359684Y-62485359D01*
X123339472Y-62478127D01*
X123320066Y-62468948D01*
X123301653Y-62457912D01*
X123284410Y-62445124D01*
X123268504Y-62430708D01*
X123254088Y-62414802D01*
X123241300Y-62397559D01*
X123230264Y-62379146D01*
X123221085Y-62359740D01*
X123213853Y-62339528D01*
X123208637Y-62318704D01*
X123205487Y-62297469D01*
X123204434Y-62276028D01*
X123204434Y-61763528D01*
X123205487Y-61742087D01*
X123208637Y-61720852D01*
X123213853Y-61700028D01*
X123221085Y-61679816D01*
X123230264Y-61660410D01*
X123241300Y-61641997D01*
X123254088Y-61624754D01*
X123268504Y-61608848D01*
X123284410Y-61594432D01*
X123301653Y-61581644D01*
X123320066Y-61570608D01*
X123339472Y-61561429D01*
X123359684Y-61554197D01*
X123380508Y-61548981D01*
X123401743Y-61545831D01*
X123423184Y-61544778D01*
X123860684Y-61544778D01*
X123882125Y-61545831D01*
X123882125Y-61545831D01*
G37*
D13*
X123641934Y-62019778D03*
D12*
G36*
X125457125Y-61545831D02*
X125478360Y-61548981D01*
X125499184Y-61554197D01*
X125519396Y-61561429D01*
X125538802Y-61570608D01*
X125557215Y-61581644D01*
X125574458Y-61594432D01*
X125590364Y-61608848D01*
X125604780Y-61624754D01*
X125617568Y-61641997D01*
X125628604Y-61660410D01*
X125637783Y-61679816D01*
X125645015Y-61700028D01*
X125650231Y-61720852D01*
X125653381Y-61742087D01*
X125654434Y-61763528D01*
X125654434Y-62276028D01*
X125653381Y-62297469D01*
X125650231Y-62318704D01*
X125645015Y-62339528D01*
X125637783Y-62359740D01*
X125628604Y-62379146D01*
X125617568Y-62397559D01*
X125604780Y-62414802D01*
X125590364Y-62430708D01*
X125574458Y-62445124D01*
X125557215Y-62457912D01*
X125538802Y-62468948D01*
X125519396Y-62478127D01*
X125499184Y-62485359D01*
X125478360Y-62490575D01*
X125457125Y-62493725D01*
X125435684Y-62494778D01*
X124998184Y-62494778D01*
X124976743Y-62493725D01*
X124955508Y-62490575D01*
X124934684Y-62485359D01*
X124914472Y-62478127D01*
X124895066Y-62468948D01*
X124876653Y-62457912D01*
X124859410Y-62445124D01*
X124843504Y-62430708D01*
X124829088Y-62414802D01*
X124816300Y-62397559D01*
X124805264Y-62379146D01*
X124796085Y-62359740D01*
X124788853Y-62339528D01*
X124783637Y-62318704D01*
X124780487Y-62297469D01*
X124779434Y-62276028D01*
X124779434Y-61763528D01*
X124780487Y-61742087D01*
X124783637Y-61720852D01*
X124788853Y-61700028D01*
X124796085Y-61679816D01*
X124805264Y-61660410D01*
X124816300Y-61641997D01*
X124829088Y-61624754D01*
X124843504Y-61608848D01*
X124859410Y-61594432D01*
X124876653Y-61581644D01*
X124895066Y-61570608D01*
X124914472Y-61561429D01*
X124934684Y-61554197D01*
X124955508Y-61548981D01*
X124976743Y-61545831D01*
X124998184Y-61544778D01*
X125435684Y-61544778D01*
X125457125Y-61545831D01*
X125457125Y-61545831D01*
G37*
D13*
X125216934Y-62019778D03*
G04 #@! TD*
D12*
G04 #@! TO.C,C5*
G36*
X123882125Y-58545831D02*
X123903360Y-58548981D01*
X123924184Y-58554197D01*
X123944396Y-58561429D01*
X123963802Y-58570608D01*
X123982215Y-58581644D01*
X123999458Y-58594432D01*
X124015364Y-58608848D01*
X124029780Y-58624754D01*
X124042568Y-58641997D01*
X124053604Y-58660410D01*
X124062783Y-58679816D01*
X124070015Y-58700028D01*
X124075231Y-58720852D01*
X124078381Y-58742087D01*
X124079434Y-58763528D01*
X124079434Y-59276028D01*
X124078381Y-59297469D01*
X124075231Y-59318704D01*
X124070015Y-59339528D01*
X124062783Y-59359740D01*
X124053604Y-59379146D01*
X124042568Y-59397559D01*
X124029780Y-59414802D01*
X124015364Y-59430708D01*
X123999458Y-59445124D01*
X123982215Y-59457912D01*
X123963802Y-59468948D01*
X123944396Y-59478127D01*
X123924184Y-59485359D01*
X123903360Y-59490575D01*
X123882125Y-59493725D01*
X123860684Y-59494778D01*
X123423184Y-59494778D01*
X123401743Y-59493725D01*
X123380508Y-59490575D01*
X123359684Y-59485359D01*
X123339472Y-59478127D01*
X123320066Y-59468948D01*
X123301653Y-59457912D01*
X123284410Y-59445124D01*
X123268504Y-59430708D01*
X123254088Y-59414802D01*
X123241300Y-59397559D01*
X123230264Y-59379146D01*
X123221085Y-59359740D01*
X123213853Y-59339528D01*
X123208637Y-59318704D01*
X123205487Y-59297469D01*
X123204434Y-59276028D01*
X123204434Y-58763528D01*
X123205487Y-58742087D01*
X123208637Y-58720852D01*
X123213853Y-58700028D01*
X123221085Y-58679816D01*
X123230264Y-58660410D01*
X123241300Y-58641997D01*
X123254088Y-58624754D01*
X123268504Y-58608848D01*
X123284410Y-58594432D01*
X123301653Y-58581644D01*
X123320066Y-58570608D01*
X123339472Y-58561429D01*
X123359684Y-58554197D01*
X123380508Y-58548981D01*
X123401743Y-58545831D01*
X123423184Y-58544778D01*
X123860684Y-58544778D01*
X123882125Y-58545831D01*
X123882125Y-58545831D01*
G37*
D13*
X123641934Y-59019778D03*
D12*
G36*
X125457125Y-58545831D02*
X125478360Y-58548981D01*
X125499184Y-58554197D01*
X125519396Y-58561429D01*
X125538802Y-58570608D01*
X125557215Y-58581644D01*
X125574458Y-58594432D01*
X125590364Y-58608848D01*
X125604780Y-58624754D01*
X125617568Y-58641997D01*
X125628604Y-58660410D01*
X125637783Y-58679816D01*
X125645015Y-58700028D01*
X125650231Y-58720852D01*
X125653381Y-58742087D01*
X125654434Y-58763528D01*
X125654434Y-59276028D01*
X125653381Y-59297469D01*
X125650231Y-59318704D01*
X125645015Y-59339528D01*
X125637783Y-59359740D01*
X125628604Y-59379146D01*
X125617568Y-59397559D01*
X125604780Y-59414802D01*
X125590364Y-59430708D01*
X125574458Y-59445124D01*
X125557215Y-59457912D01*
X125538802Y-59468948D01*
X125519396Y-59478127D01*
X125499184Y-59485359D01*
X125478360Y-59490575D01*
X125457125Y-59493725D01*
X125435684Y-59494778D01*
X124998184Y-59494778D01*
X124976743Y-59493725D01*
X124955508Y-59490575D01*
X124934684Y-59485359D01*
X124914472Y-59478127D01*
X124895066Y-59468948D01*
X124876653Y-59457912D01*
X124859410Y-59445124D01*
X124843504Y-59430708D01*
X124829088Y-59414802D01*
X124816300Y-59397559D01*
X124805264Y-59379146D01*
X124796085Y-59359740D01*
X124788853Y-59339528D01*
X124783637Y-59318704D01*
X124780487Y-59297469D01*
X124779434Y-59276028D01*
X124779434Y-58763528D01*
X124780487Y-58742087D01*
X124783637Y-58720852D01*
X124788853Y-58700028D01*
X124796085Y-58679816D01*
X124805264Y-58660410D01*
X124816300Y-58641997D01*
X124829088Y-58624754D01*
X124843504Y-58608848D01*
X124859410Y-58594432D01*
X124876653Y-58581644D01*
X124895066Y-58570608D01*
X124914472Y-58561429D01*
X124934684Y-58554197D01*
X124955508Y-58548981D01*
X124976743Y-58545831D01*
X124998184Y-58544778D01*
X125435684Y-58544778D01*
X125457125Y-58545831D01*
X125457125Y-58545831D01*
G37*
D13*
X125216934Y-59019778D03*
G04 #@! TD*
D12*
G04 #@! TO.C,C7*
G36*
X136857125Y-46695831D02*
X136878360Y-46698981D01*
X136899184Y-46704197D01*
X136919396Y-46711429D01*
X136938802Y-46720608D01*
X136957215Y-46731644D01*
X136974458Y-46744432D01*
X136990364Y-46758848D01*
X137004780Y-46774754D01*
X137017568Y-46791997D01*
X137028604Y-46810410D01*
X137037783Y-46829816D01*
X137045015Y-46850028D01*
X137050231Y-46870852D01*
X137053381Y-46892087D01*
X137054434Y-46913528D01*
X137054434Y-47351028D01*
X137053381Y-47372469D01*
X137050231Y-47393704D01*
X137045015Y-47414528D01*
X137037783Y-47434740D01*
X137028604Y-47454146D01*
X137017568Y-47472559D01*
X137004780Y-47489802D01*
X136990364Y-47505708D01*
X136974458Y-47520124D01*
X136957215Y-47532912D01*
X136938802Y-47543948D01*
X136919396Y-47553127D01*
X136899184Y-47560359D01*
X136878360Y-47565575D01*
X136857125Y-47568725D01*
X136835684Y-47569778D01*
X136323184Y-47569778D01*
X136301743Y-47568725D01*
X136280508Y-47565575D01*
X136259684Y-47560359D01*
X136239472Y-47553127D01*
X136220066Y-47543948D01*
X136201653Y-47532912D01*
X136184410Y-47520124D01*
X136168504Y-47505708D01*
X136154088Y-47489802D01*
X136141300Y-47472559D01*
X136130264Y-47454146D01*
X136121085Y-47434740D01*
X136113853Y-47414528D01*
X136108637Y-47393704D01*
X136105487Y-47372469D01*
X136104434Y-47351028D01*
X136104434Y-46913528D01*
X136105487Y-46892087D01*
X136108637Y-46870852D01*
X136113853Y-46850028D01*
X136121085Y-46829816D01*
X136130264Y-46810410D01*
X136141300Y-46791997D01*
X136154088Y-46774754D01*
X136168504Y-46758848D01*
X136184410Y-46744432D01*
X136201653Y-46731644D01*
X136220066Y-46720608D01*
X136239472Y-46711429D01*
X136259684Y-46704197D01*
X136280508Y-46698981D01*
X136301743Y-46695831D01*
X136323184Y-46694778D01*
X136835684Y-46694778D01*
X136857125Y-46695831D01*
X136857125Y-46695831D01*
G37*
D13*
X136579434Y-47132278D03*
D12*
G36*
X136857125Y-48270831D02*
X136878360Y-48273981D01*
X136899184Y-48279197D01*
X136919396Y-48286429D01*
X136938802Y-48295608D01*
X136957215Y-48306644D01*
X136974458Y-48319432D01*
X136990364Y-48333848D01*
X137004780Y-48349754D01*
X137017568Y-48366997D01*
X137028604Y-48385410D01*
X137037783Y-48404816D01*
X137045015Y-48425028D01*
X137050231Y-48445852D01*
X137053381Y-48467087D01*
X137054434Y-48488528D01*
X137054434Y-48926028D01*
X137053381Y-48947469D01*
X137050231Y-48968704D01*
X137045015Y-48989528D01*
X137037783Y-49009740D01*
X137028604Y-49029146D01*
X137017568Y-49047559D01*
X137004780Y-49064802D01*
X136990364Y-49080708D01*
X136974458Y-49095124D01*
X136957215Y-49107912D01*
X136938802Y-49118948D01*
X136919396Y-49128127D01*
X136899184Y-49135359D01*
X136878360Y-49140575D01*
X136857125Y-49143725D01*
X136835684Y-49144778D01*
X136323184Y-49144778D01*
X136301743Y-49143725D01*
X136280508Y-49140575D01*
X136259684Y-49135359D01*
X136239472Y-49128127D01*
X136220066Y-49118948D01*
X136201653Y-49107912D01*
X136184410Y-49095124D01*
X136168504Y-49080708D01*
X136154088Y-49064802D01*
X136141300Y-49047559D01*
X136130264Y-49029146D01*
X136121085Y-49009740D01*
X136113853Y-48989528D01*
X136108637Y-48968704D01*
X136105487Y-48947469D01*
X136104434Y-48926028D01*
X136104434Y-48488528D01*
X136105487Y-48467087D01*
X136108637Y-48445852D01*
X136113853Y-48425028D01*
X136121085Y-48404816D01*
X136130264Y-48385410D01*
X136141300Y-48366997D01*
X136154088Y-48349754D01*
X136168504Y-48333848D01*
X136184410Y-48319432D01*
X136201653Y-48306644D01*
X136220066Y-48295608D01*
X136239472Y-48286429D01*
X136259684Y-48279197D01*
X136280508Y-48273981D01*
X136301743Y-48270831D01*
X136323184Y-48269778D01*
X136835684Y-48269778D01*
X136857125Y-48270831D01*
X136857125Y-48270831D01*
G37*
D13*
X136579434Y-48707278D03*
G04 #@! TD*
D12*
G04 #@! TO.C,C8*
G36*
X137207125Y-40045831D02*
X137228360Y-40048981D01*
X137249184Y-40054197D01*
X137269396Y-40061429D01*
X137288802Y-40070608D01*
X137307215Y-40081644D01*
X137324458Y-40094432D01*
X137340364Y-40108848D01*
X137354780Y-40124754D01*
X137367568Y-40141997D01*
X137378604Y-40160410D01*
X137387783Y-40179816D01*
X137395015Y-40200028D01*
X137400231Y-40220852D01*
X137403381Y-40242087D01*
X137404434Y-40263528D01*
X137404434Y-40701028D01*
X137403381Y-40722469D01*
X137400231Y-40743704D01*
X137395015Y-40764528D01*
X137387783Y-40784740D01*
X137378604Y-40804146D01*
X137367568Y-40822559D01*
X137354780Y-40839802D01*
X137340364Y-40855708D01*
X137324458Y-40870124D01*
X137307215Y-40882912D01*
X137288802Y-40893948D01*
X137269396Y-40903127D01*
X137249184Y-40910359D01*
X137228360Y-40915575D01*
X137207125Y-40918725D01*
X137185684Y-40919778D01*
X136673184Y-40919778D01*
X136651743Y-40918725D01*
X136630508Y-40915575D01*
X136609684Y-40910359D01*
X136589472Y-40903127D01*
X136570066Y-40893948D01*
X136551653Y-40882912D01*
X136534410Y-40870124D01*
X136518504Y-40855708D01*
X136504088Y-40839802D01*
X136491300Y-40822559D01*
X136480264Y-40804146D01*
X136471085Y-40784740D01*
X136463853Y-40764528D01*
X136458637Y-40743704D01*
X136455487Y-40722469D01*
X136454434Y-40701028D01*
X136454434Y-40263528D01*
X136455487Y-40242087D01*
X136458637Y-40220852D01*
X136463853Y-40200028D01*
X136471085Y-40179816D01*
X136480264Y-40160410D01*
X136491300Y-40141997D01*
X136504088Y-40124754D01*
X136518504Y-40108848D01*
X136534410Y-40094432D01*
X136551653Y-40081644D01*
X136570066Y-40070608D01*
X136589472Y-40061429D01*
X136609684Y-40054197D01*
X136630508Y-40048981D01*
X136651743Y-40045831D01*
X136673184Y-40044778D01*
X137185684Y-40044778D01*
X137207125Y-40045831D01*
X137207125Y-40045831D01*
G37*
D13*
X136929434Y-40482278D03*
D12*
G36*
X137207125Y-41620831D02*
X137228360Y-41623981D01*
X137249184Y-41629197D01*
X137269396Y-41636429D01*
X137288802Y-41645608D01*
X137307215Y-41656644D01*
X137324458Y-41669432D01*
X137340364Y-41683848D01*
X137354780Y-41699754D01*
X137367568Y-41716997D01*
X137378604Y-41735410D01*
X137387783Y-41754816D01*
X137395015Y-41775028D01*
X137400231Y-41795852D01*
X137403381Y-41817087D01*
X137404434Y-41838528D01*
X137404434Y-42276028D01*
X137403381Y-42297469D01*
X137400231Y-42318704D01*
X137395015Y-42339528D01*
X137387783Y-42359740D01*
X137378604Y-42379146D01*
X137367568Y-42397559D01*
X137354780Y-42414802D01*
X137340364Y-42430708D01*
X137324458Y-42445124D01*
X137307215Y-42457912D01*
X137288802Y-42468948D01*
X137269396Y-42478127D01*
X137249184Y-42485359D01*
X137228360Y-42490575D01*
X137207125Y-42493725D01*
X137185684Y-42494778D01*
X136673184Y-42494778D01*
X136651743Y-42493725D01*
X136630508Y-42490575D01*
X136609684Y-42485359D01*
X136589472Y-42478127D01*
X136570066Y-42468948D01*
X136551653Y-42457912D01*
X136534410Y-42445124D01*
X136518504Y-42430708D01*
X136504088Y-42414802D01*
X136491300Y-42397559D01*
X136480264Y-42379146D01*
X136471085Y-42359740D01*
X136463853Y-42339528D01*
X136458637Y-42318704D01*
X136455487Y-42297469D01*
X136454434Y-42276028D01*
X136454434Y-41838528D01*
X136455487Y-41817087D01*
X136458637Y-41795852D01*
X136463853Y-41775028D01*
X136471085Y-41754816D01*
X136480264Y-41735410D01*
X136491300Y-41716997D01*
X136504088Y-41699754D01*
X136518504Y-41683848D01*
X136534410Y-41669432D01*
X136551653Y-41656644D01*
X136570066Y-41645608D01*
X136589472Y-41636429D01*
X136609684Y-41629197D01*
X136630508Y-41623981D01*
X136651743Y-41620831D01*
X136673184Y-41619778D01*
X137185684Y-41619778D01*
X137207125Y-41620831D01*
X137207125Y-41620831D01*
G37*
D13*
X136929434Y-42057278D03*
G04 #@! TD*
D12*
G04 #@! TO.C,C1*
G36*
X126094625Y-50695831D02*
X126115860Y-50698981D01*
X126136684Y-50704197D01*
X126156896Y-50711429D01*
X126176302Y-50720608D01*
X126194715Y-50731644D01*
X126211958Y-50744432D01*
X126227864Y-50758848D01*
X126242280Y-50774754D01*
X126255068Y-50791997D01*
X126266104Y-50810410D01*
X126275283Y-50829816D01*
X126282515Y-50850028D01*
X126287731Y-50870852D01*
X126290881Y-50892087D01*
X126291934Y-50913528D01*
X126291934Y-51426028D01*
X126290881Y-51447469D01*
X126287731Y-51468704D01*
X126282515Y-51489528D01*
X126275283Y-51509740D01*
X126266104Y-51529146D01*
X126255068Y-51547559D01*
X126242280Y-51564802D01*
X126227864Y-51580708D01*
X126211958Y-51595124D01*
X126194715Y-51607912D01*
X126176302Y-51618948D01*
X126156896Y-51628127D01*
X126136684Y-51635359D01*
X126115860Y-51640575D01*
X126094625Y-51643725D01*
X126073184Y-51644778D01*
X125635684Y-51644778D01*
X125614243Y-51643725D01*
X125593008Y-51640575D01*
X125572184Y-51635359D01*
X125551972Y-51628127D01*
X125532566Y-51618948D01*
X125514153Y-51607912D01*
X125496910Y-51595124D01*
X125481004Y-51580708D01*
X125466588Y-51564802D01*
X125453800Y-51547559D01*
X125442764Y-51529146D01*
X125433585Y-51509740D01*
X125426353Y-51489528D01*
X125421137Y-51468704D01*
X125417987Y-51447469D01*
X125416934Y-51426028D01*
X125416934Y-50913528D01*
X125417987Y-50892087D01*
X125421137Y-50870852D01*
X125426353Y-50850028D01*
X125433585Y-50829816D01*
X125442764Y-50810410D01*
X125453800Y-50791997D01*
X125466588Y-50774754D01*
X125481004Y-50758848D01*
X125496910Y-50744432D01*
X125514153Y-50731644D01*
X125532566Y-50720608D01*
X125551972Y-50711429D01*
X125572184Y-50704197D01*
X125593008Y-50698981D01*
X125614243Y-50695831D01*
X125635684Y-50694778D01*
X126073184Y-50694778D01*
X126094625Y-50695831D01*
X126094625Y-50695831D01*
G37*
D13*
X125854434Y-51169778D03*
D12*
G36*
X127669625Y-50695831D02*
X127690860Y-50698981D01*
X127711684Y-50704197D01*
X127731896Y-50711429D01*
X127751302Y-50720608D01*
X127769715Y-50731644D01*
X127786958Y-50744432D01*
X127802864Y-50758848D01*
X127817280Y-50774754D01*
X127830068Y-50791997D01*
X127841104Y-50810410D01*
X127850283Y-50829816D01*
X127857515Y-50850028D01*
X127862731Y-50870852D01*
X127865881Y-50892087D01*
X127866934Y-50913528D01*
X127866934Y-51426028D01*
X127865881Y-51447469D01*
X127862731Y-51468704D01*
X127857515Y-51489528D01*
X127850283Y-51509740D01*
X127841104Y-51529146D01*
X127830068Y-51547559D01*
X127817280Y-51564802D01*
X127802864Y-51580708D01*
X127786958Y-51595124D01*
X127769715Y-51607912D01*
X127751302Y-51618948D01*
X127731896Y-51628127D01*
X127711684Y-51635359D01*
X127690860Y-51640575D01*
X127669625Y-51643725D01*
X127648184Y-51644778D01*
X127210684Y-51644778D01*
X127189243Y-51643725D01*
X127168008Y-51640575D01*
X127147184Y-51635359D01*
X127126972Y-51628127D01*
X127107566Y-51618948D01*
X127089153Y-51607912D01*
X127071910Y-51595124D01*
X127056004Y-51580708D01*
X127041588Y-51564802D01*
X127028800Y-51547559D01*
X127017764Y-51529146D01*
X127008585Y-51509740D01*
X127001353Y-51489528D01*
X126996137Y-51468704D01*
X126992987Y-51447469D01*
X126991934Y-51426028D01*
X126991934Y-50913528D01*
X126992987Y-50892087D01*
X126996137Y-50870852D01*
X127001353Y-50850028D01*
X127008585Y-50829816D01*
X127017764Y-50810410D01*
X127028800Y-50791997D01*
X127041588Y-50774754D01*
X127056004Y-50758848D01*
X127071910Y-50744432D01*
X127089153Y-50731644D01*
X127107566Y-50720608D01*
X127126972Y-50711429D01*
X127147184Y-50704197D01*
X127168008Y-50698981D01*
X127189243Y-50695831D01*
X127210684Y-50694778D01*
X127648184Y-50694778D01*
X127669625Y-50695831D01*
X127669625Y-50695831D01*
G37*
D13*
X127429434Y-51169778D03*
G04 #@! TD*
D12*
G04 #@! TO.C,C12*
G36*
X127707125Y-71520831D02*
X127728360Y-71523981D01*
X127749184Y-71529197D01*
X127769396Y-71536429D01*
X127788802Y-71545608D01*
X127807215Y-71556644D01*
X127824458Y-71569432D01*
X127840364Y-71583848D01*
X127854780Y-71599754D01*
X127867568Y-71616997D01*
X127878604Y-71635410D01*
X127887783Y-71654816D01*
X127895015Y-71675028D01*
X127900231Y-71695852D01*
X127903381Y-71717087D01*
X127904434Y-71738528D01*
X127904434Y-72176028D01*
X127903381Y-72197469D01*
X127900231Y-72218704D01*
X127895015Y-72239528D01*
X127887783Y-72259740D01*
X127878604Y-72279146D01*
X127867568Y-72297559D01*
X127854780Y-72314802D01*
X127840364Y-72330708D01*
X127824458Y-72345124D01*
X127807215Y-72357912D01*
X127788802Y-72368948D01*
X127769396Y-72378127D01*
X127749184Y-72385359D01*
X127728360Y-72390575D01*
X127707125Y-72393725D01*
X127685684Y-72394778D01*
X127173184Y-72394778D01*
X127151743Y-72393725D01*
X127130508Y-72390575D01*
X127109684Y-72385359D01*
X127089472Y-72378127D01*
X127070066Y-72368948D01*
X127051653Y-72357912D01*
X127034410Y-72345124D01*
X127018504Y-72330708D01*
X127004088Y-72314802D01*
X126991300Y-72297559D01*
X126980264Y-72279146D01*
X126971085Y-72259740D01*
X126963853Y-72239528D01*
X126958637Y-72218704D01*
X126955487Y-72197469D01*
X126954434Y-72176028D01*
X126954434Y-71738528D01*
X126955487Y-71717087D01*
X126958637Y-71695852D01*
X126963853Y-71675028D01*
X126971085Y-71654816D01*
X126980264Y-71635410D01*
X126991300Y-71616997D01*
X127004088Y-71599754D01*
X127018504Y-71583848D01*
X127034410Y-71569432D01*
X127051653Y-71556644D01*
X127070066Y-71545608D01*
X127089472Y-71536429D01*
X127109684Y-71529197D01*
X127130508Y-71523981D01*
X127151743Y-71520831D01*
X127173184Y-71519778D01*
X127685684Y-71519778D01*
X127707125Y-71520831D01*
X127707125Y-71520831D01*
G37*
D13*
X127429434Y-71957278D03*
D12*
G36*
X127707125Y-69945831D02*
X127728360Y-69948981D01*
X127749184Y-69954197D01*
X127769396Y-69961429D01*
X127788802Y-69970608D01*
X127807215Y-69981644D01*
X127824458Y-69994432D01*
X127840364Y-70008848D01*
X127854780Y-70024754D01*
X127867568Y-70041997D01*
X127878604Y-70060410D01*
X127887783Y-70079816D01*
X127895015Y-70100028D01*
X127900231Y-70120852D01*
X127903381Y-70142087D01*
X127904434Y-70163528D01*
X127904434Y-70601028D01*
X127903381Y-70622469D01*
X127900231Y-70643704D01*
X127895015Y-70664528D01*
X127887783Y-70684740D01*
X127878604Y-70704146D01*
X127867568Y-70722559D01*
X127854780Y-70739802D01*
X127840364Y-70755708D01*
X127824458Y-70770124D01*
X127807215Y-70782912D01*
X127788802Y-70793948D01*
X127769396Y-70803127D01*
X127749184Y-70810359D01*
X127728360Y-70815575D01*
X127707125Y-70818725D01*
X127685684Y-70819778D01*
X127173184Y-70819778D01*
X127151743Y-70818725D01*
X127130508Y-70815575D01*
X127109684Y-70810359D01*
X127089472Y-70803127D01*
X127070066Y-70793948D01*
X127051653Y-70782912D01*
X127034410Y-70770124D01*
X127018504Y-70755708D01*
X127004088Y-70739802D01*
X126991300Y-70722559D01*
X126980264Y-70704146D01*
X126971085Y-70684740D01*
X126963853Y-70664528D01*
X126958637Y-70643704D01*
X126955487Y-70622469D01*
X126954434Y-70601028D01*
X126954434Y-70163528D01*
X126955487Y-70142087D01*
X126958637Y-70120852D01*
X126963853Y-70100028D01*
X126971085Y-70079816D01*
X126980264Y-70060410D01*
X126991300Y-70041997D01*
X127004088Y-70024754D01*
X127018504Y-70008848D01*
X127034410Y-69994432D01*
X127051653Y-69981644D01*
X127070066Y-69970608D01*
X127089472Y-69961429D01*
X127109684Y-69954197D01*
X127130508Y-69948981D01*
X127151743Y-69945831D01*
X127173184Y-69944778D01*
X127685684Y-69944778D01*
X127707125Y-69945831D01*
X127707125Y-69945831D01*
G37*
D13*
X127429434Y-70382278D03*
G04 #@! TD*
D12*
G04 #@! TO.C,C13*
G36*
X134957125Y-51120831D02*
X134978360Y-51123981D01*
X134999184Y-51129197D01*
X135019396Y-51136429D01*
X135038802Y-51145608D01*
X135057215Y-51156644D01*
X135074458Y-51169432D01*
X135090364Y-51183848D01*
X135104780Y-51199754D01*
X135117568Y-51216997D01*
X135128604Y-51235410D01*
X135137783Y-51254816D01*
X135145015Y-51275028D01*
X135150231Y-51295852D01*
X135153381Y-51317087D01*
X135154434Y-51338528D01*
X135154434Y-51776028D01*
X135153381Y-51797469D01*
X135150231Y-51818704D01*
X135145015Y-51839528D01*
X135137783Y-51859740D01*
X135128604Y-51879146D01*
X135117568Y-51897559D01*
X135104780Y-51914802D01*
X135090364Y-51930708D01*
X135074458Y-51945124D01*
X135057215Y-51957912D01*
X135038802Y-51968948D01*
X135019396Y-51978127D01*
X134999184Y-51985359D01*
X134978360Y-51990575D01*
X134957125Y-51993725D01*
X134935684Y-51994778D01*
X134423184Y-51994778D01*
X134401743Y-51993725D01*
X134380508Y-51990575D01*
X134359684Y-51985359D01*
X134339472Y-51978127D01*
X134320066Y-51968948D01*
X134301653Y-51957912D01*
X134284410Y-51945124D01*
X134268504Y-51930708D01*
X134254088Y-51914802D01*
X134241300Y-51897559D01*
X134230264Y-51879146D01*
X134221085Y-51859740D01*
X134213853Y-51839528D01*
X134208637Y-51818704D01*
X134205487Y-51797469D01*
X134204434Y-51776028D01*
X134204434Y-51338528D01*
X134205487Y-51317087D01*
X134208637Y-51295852D01*
X134213853Y-51275028D01*
X134221085Y-51254816D01*
X134230264Y-51235410D01*
X134241300Y-51216997D01*
X134254088Y-51199754D01*
X134268504Y-51183848D01*
X134284410Y-51169432D01*
X134301653Y-51156644D01*
X134320066Y-51145608D01*
X134339472Y-51136429D01*
X134359684Y-51129197D01*
X134380508Y-51123981D01*
X134401743Y-51120831D01*
X134423184Y-51119778D01*
X134935684Y-51119778D01*
X134957125Y-51120831D01*
X134957125Y-51120831D01*
G37*
D13*
X134679434Y-51557278D03*
D12*
G36*
X134957125Y-49545831D02*
X134978360Y-49548981D01*
X134999184Y-49554197D01*
X135019396Y-49561429D01*
X135038802Y-49570608D01*
X135057215Y-49581644D01*
X135074458Y-49594432D01*
X135090364Y-49608848D01*
X135104780Y-49624754D01*
X135117568Y-49641997D01*
X135128604Y-49660410D01*
X135137783Y-49679816D01*
X135145015Y-49700028D01*
X135150231Y-49720852D01*
X135153381Y-49742087D01*
X135154434Y-49763528D01*
X135154434Y-50201028D01*
X135153381Y-50222469D01*
X135150231Y-50243704D01*
X135145015Y-50264528D01*
X135137783Y-50284740D01*
X135128604Y-50304146D01*
X135117568Y-50322559D01*
X135104780Y-50339802D01*
X135090364Y-50355708D01*
X135074458Y-50370124D01*
X135057215Y-50382912D01*
X135038802Y-50393948D01*
X135019396Y-50403127D01*
X134999184Y-50410359D01*
X134978360Y-50415575D01*
X134957125Y-50418725D01*
X134935684Y-50419778D01*
X134423184Y-50419778D01*
X134401743Y-50418725D01*
X134380508Y-50415575D01*
X134359684Y-50410359D01*
X134339472Y-50403127D01*
X134320066Y-50393948D01*
X134301653Y-50382912D01*
X134284410Y-50370124D01*
X134268504Y-50355708D01*
X134254088Y-50339802D01*
X134241300Y-50322559D01*
X134230264Y-50304146D01*
X134221085Y-50284740D01*
X134213853Y-50264528D01*
X134208637Y-50243704D01*
X134205487Y-50222469D01*
X134204434Y-50201028D01*
X134204434Y-49763528D01*
X134205487Y-49742087D01*
X134208637Y-49720852D01*
X134213853Y-49700028D01*
X134221085Y-49679816D01*
X134230264Y-49660410D01*
X134241300Y-49641997D01*
X134254088Y-49624754D01*
X134268504Y-49608848D01*
X134284410Y-49594432D01*
X134301653Y-49581644D01*
X134320066Y-49570608D01*
X134339472Y-49561429D01*
X134359684Y-49554197D01*
X134380508Y-49548981D01*
X134401743Y-49545831D01*
X134423184Y-49544778D01*
X134935684Y-49544778D01*
X134957125Y-49545831D01*
X134957125Y-49545831D01*
G37*
D13*
X134679434Y-49982278D03*
G04 #@! TD*
D12*
G04 #@! TO.C,C14*
G36*
X146957125Y-51508331D02*
X146978360Y-51511481D01*
X146999184Y-51516697D01*
X147019396Y-51523929D01*
X147038802Y-51533108D01*
X147057215Y-51544144D01*
X147074458Y-51556932D01*
X147090364Y-51571348D01*
X147104780Y-51587254D01*
X147117568Y-51604497D01*
X147128604Y-51622910D01*
X147137783Y-51642316D01*
X147145015Y-51662528D01*
X147150231Y-51683352D01*
X147153381Y-51704587D01*
X147154434Y-51726028D01*
X147154434Y-52163528D01*
X147153381Y-52184969D01*
X147150231Y-52206204D01*
X147145015Y-52227028D01*
X147137783Y-52247240D01*
X147128604Y-52266646D01*
X147117568Y-52285059D01*
X147104780Y-52302302D01*
X147090364Y-52318208D01*
X147074458Y-52332624D01*
X147057215Y-52345412D01*
X147038802Y-52356448D01*
X147019396Y-52365627D01*
X146999184Y-52372859D01*
X146978360Y-52378075D01*
X146957125Y-52381225D01*
X146935684Y-52382278D01*
X146423184Y-52382278D01*
X146401743Y-52381225D01*
X146380508Y-52378075D01*
X146359684Y-52372859D01*
X146339472Y-52365627D01*
X146320066Y-52356448D01*
X146301653Y-52345412D01*
X146284410Y-52332624D01*
X146268504Y-52318208D01*
X146254088Y-52302302D01*
X146241300Y-52285059D01*
X146230264Y-52266646D01*
X146221085Y-52247240D01*
X146213853Y-52227028D01*
X146208637Y-52206204D01*
X146205487Y-52184969D01*
X146204434Y-52163528D01*
X146204434Y-51726028D01*
X146205487Y-51704587D01*
X146208637Y-51683352D01*
X146213853Y-51662528D01*
X146221085Y-51642316D01*
X146230264Y-51622910D01*
X146241300Y-51604497D01*
X146254088Y-51587254D01*
X146268504Y-51571348D01*
X146284410Y-51556932D01*
X146301653Y-51544144D01*
X146320066Y-51533108D01*
X146339472Y-51523929D01*
X146359684Y-51516697D01*
X146380508Y-51511481D01*
X146401743Y-51508331D01*
X146423184Y-51507278D01*
X146935684Y-51507278D01*
X146957125Y-51508331D01*
X146957125Y-51508331D01*
G37*
D13*
X146679434Y-51944778D03*
D12*
G36*
X146957125Y-53083331D02*
X146978360Y-53086481D01*
X146999184Y-53091697D01*
X147019396Y-53098929D01*
X147038802Y-53108108D01*
X147057215Y-53119144D01*
X147074458Y-53131932D01*
X147090364Y-53146348D01*
X147104780Y-53162254D01*
X147117568Y-53179497D01*
X147128604Y-53197910D01*
X147137783Y-53217316D01*
X147145015Y-53237528D01*
X147150231Y-53258352D01*
X147153381Y-53279587D01*
X147154434Y-53301028D01*
X147154434Y-53738528D01*
X147153381Y-53759969D01*
X147150231Y-53781204D01*
X147145015Y-53802028D01*
X147137783Y-53822240D01*
X147128604Y-53841646D01*
X147117568Y-53860059D01*
X147104780Y-53877302D01*
X147090364Y-53893208D01*
X147074458Y-53907624D01*
X147057215Y-53920412D01*
X147038802Y-53931448D01*
X147019396Y-53940627D01*
X146999184Y-53947859D01*
X146978360Y-53953075D01*
X146957125Y-53956225D01*
X146935684Y-53957278D01*
X146423184Y-53957278D01*
X146401743Y-53956225D01*
X146380508Y-53953075D01*
X146359684Y-53947859D01*
X146339472Y-53940627D01*
X146320066Y-53931448D01*
X146301653Y-53920412D01*
X146284410Y-53907624D01*
X146268504Y-53893208D01*
X146254088Y-53877302D01*
X146241300Y-53860059D01*
X146230264Y-53841646D01*
X146221085Y-53822240D01*
X146213853Y-53802028D01*
X146208637Y-53781204D01*
X146205487Y-53759969D01*
X146204434Y-53738528D01*
X146204434Y-53301028D01*
X146205487Y-53279587D01*
X146208637Y-53258352D01*
X146213853Y-53237528D01*
X146221085Y-53217316D01*
X146230264Y-53197910D01*
X146241300Y-53179497D01*
X146254088Y-53162254D01*
X146268504Y-53146348D01*
X146284410Y-53131932D01*
X146301653Y-53119144D01*
X146320066Y-53108108D01*
X146339472Y-53098929D01*
X146359684Y-53091697D01*
X146380508Y-53086481D01*
X146401743Y-53083331D01*
X146423184Y-53082278D01*
X146935684Y-53082278D01*
X146957125Y-53083331D01*
X146957125Y-53083331D01*
G37*
D13*
X146679434Y-53519778D03*
G04 #@! TD*
D12*
G04 #@! TO.C,C15*
G36*
X139957125Y-51120831D02*
X139978360Y-51123981D01*
X139999184Y-51129197D01*
X140019396Y-51136429D01*
X140038802Y-51145608D01*
X140057215Y-51156644D01*
X140074458Y-51169432D01*
X140090364Y-51183848D01*
X140104780Y-51199754D01*
X140117568Y-51216997D01*
X140128604Y-51235410D01*
X140137783Y-51254816D01*
X140145015Y-51275028D01*
X140150231Y-51295852D01*
X140153381Y-51317087D01*
X140154434Y-51338528D01*
X140154434Y-51776028D01*
X140153381Y-51797469D01*
X140150231Y-51818704D01*
X140145015Y-51839528D01*
X140137783Y-51859740D01*
X140128604Y-51879146D01*
X140117568Y-51897559D01*
X140104780Y-51914802D01*
X140090364Y-51930708D01*
X140074458Y-51945124D01*
X140057215Y-51957912D01*
X140038802Y-51968948D01*
X140019396Y-51978127D01*
X139999184Y-51985359D01*
X139978360Y-51990575D01*
X139957125Y-51993725D01*
X139935684Y-51994778D01*
X139423184Y-51994778D01*
X139401743Y-51993725D01*
X139380508Y-51990575D01*
X139359684Y-51985359D01*
X139339472Y-51978127D01*
X139320066Y-51968948D01*
X139301653Y-51957912D01*
X139284410Y-51945124D01*
X139268504Y-51930708D01*
X139254088Y-51914802D01*
X139241300Y-51897559D01*
X139230264Y-51879146D01*
X139221085Y-51859740D01*
X139213853Y-51839528D01*
X139208637Y-51818704D01*
X139205487Y-51797469D01*
X139204434Y-51776028D01*
X139204434Y-51338528D01*
X139205487Y-51317087D01*
X139208637Y-51295852D01*
X139213853Y-51275028D01*
X139221085Y-51254816D01*
X139230264Y-51235410D01*
X139241300Y-51216997D01*
X139254088Y-51199754D01*
X139268504Y-51183848D01*
X139284410Y-51169432D01*
X139301653Y-51156644D01*
X139320066Y-51145608D01*
X139339472Y-51136429D01*
X139359684Y-51129197D01*
X139380508Y-51123981D01*
X139401743Y-51120831D01*
X139423184Y-51119778D01*
X139935684Y-51119778D01*
X139957125Y-51120831D01*
X139957125Y-51120831D01*
G37*
D13*
X139679434Y-51557278D03*
D12*
G36*
X139957125Y-49545831D02*
X139978360Y-49548981D01*
X139999184Y-49554197D01*
X140019396Y-49561429D01*
X140038802Y-49570608D01*
X140057215Y-49581644D01*
X140074458Y-49594432D01*
X140090364Y-49608848D01*
X140104780Y-49624754D01*
X140117568Y-49641997D01*
X140128604Y-49660410D01*
X140137783Y-49679816D01*
X140145015Y-49700028D01*
X140150231Y-49720852D01*
X140153381Y-49742087D01*
X140154434Y-49763528D01*
X140154434Y-50201028D01*
X140153381Y-50222469D01*
X140150231Y-50243704D01*
X140145015Y-50264528D01*
X140137783Y-50284740D01*
X140128604Y-50304146D01*
X140117568Y-50322559D01*
X140104780Y-50339802D01*
X140090364Y-50355708D01*
X140074458Y-50370124D01*
X140057215Y-50382912D01*
X140038802Y-50393948D01*
X140019396Y-50403127D01*
X139999184Y-50410359D01*
X139978360Y-50415575D01*
X139957125Y-50418725D01*
X139935684Y-50419778D01*
X139423184Y-50419778D01*
X139401743Y-50418725D01*
X139380508Y-50415575D01*
X139359684Y-50410359D01*
X139339472Y-50403127D01*
X139320066Y-50393948D01*
X139301653Y-50382912D01*
X139284410Y-50370124D01*
X139268504Y-50355708D01*
X139254088Y-50339802D01*
X139241300Y-50322559D01*
X139230264Y-50304146D01*
X139221085Y-50284740D01*
X139213853Y-50264528D01*
X139208637Y-50243704D01*
X139205487Y-50222469D01*
X139204434Y-50201028D01*
X139204434Y-49763528D01*
X139205487Y-49742087D01*
X139208637Y-49720852D01*
X139213853Y-49700028D01*
X139221085Y-49679816D01*
X139230264Y-49660410D01*
X139241300Y-49641997D01*
X139254088Y-49624754D01*
X139268504Y-49608848D01*
X139284410Y-49594432D01*
X139301653Y-49581644D01*
X139320066Y-49570608D01*
X139339472Y-49561429D01*
X139359684Y-49554197D01*
X139380508Y-49548981D01*
X139401743Y-49545831D01*
X139423184Y-49544778D01*
X139935684Y-49544778D01*
X139957125Y-49545831D01*
X139957125Y-49545831D01*
G37*
D13*
X139679434Y-49982278D03*
G04 #@! TD*
D12*
G04 #@! TO.C,C16*
G36*
X136507125Y-74983331D02*
X136528360Y-74986481D01*
X136549184Y-74991697D01*
X136569396Y-74998929D01*
X136588802Y-75008108D01*
X136607215Y-75019144D01*
X136624458Y-75031932D01*
X136640364Y-75046348D01*
X136654780Y-75062254D01*
X136667568Y-75079497D01*
X136678604Y-75097910D01*
X136687783Y-75117316D01*
X136695015Y-75137528D01*
X136700231Y-75158352D01*
X136703381Y-75179587D01*
X136704434Y-75201028D01*
X136704434Y-75638528D01*
X136703381Y-75659969D01*
X136700231Y-75681204D01*
X136695015Y-75702028D01*
X136687783Y-75722240D01*
X136678604Y-75741646D01*
X136667568Y-75760059D01*
X136654780Y-75777302D01*
X136640364Y-75793208D01*
X136624458Y-75807624D01*
X136607215Y-75820412D01*
X136588802Y-75831448D01*
X136569396Y-75840627D01*
X136549184Y-75847859D01*
X136528360Y-75853075D01*
X136507125Y-75856225D01*
X136485684Y-75857278D01*
X135973184Y-75857278D01*
X135951743Y-75856225D01*
X135930508Y-75853075D01*
X135909684Y-75847859D01*
X135889472Y-75840627D01*
X135870066Y-75831448D01*
X135851653Y-75820412D01*
X135834410Y-75807624D01*
X135818504Y-75793208D01*
X135804088Y-75777302D01*
X135791300Y-75760059D01*
X135780264Y-75741646D01*
X135771085Y-75722240D01*
X135763853Y-75702028D01*
X135758637Y-75681204D01*
X135755487Y-75659969D01*
X135754434Y-75638528D01*
X135754434Y-75201028D01*
X135755487Y-75179587D01*
X135758637Y-75158352D01*
X135763853Y-75137528D01*
X135771085Y-75117316D01*
X135780264Y-75097910D01*
X135791300Y-75079497D01*
X135804088Y-75062254D01*
X135818504Y-75046348D01*
X135834410Y-75031932D01*
X135851653Y-75019144D01*
X135870066Y-75008108D01*
X135889472Y-74998929D01*
X135909684Y-74991697D01*
X135930508Y-74986481D01*
X135951743Y-74983331D01*
X135973184Y-74982278D01*
X136485684Y-74982278D01*
X136507125Y-74983331D01*
X136507125Y-74983331D01*
G37*
D13*
X136229434Y-75419778D03*
D12*
G36*
X136507125Y-73408331D02*
X136528360Y-73411481D01*
X136549184Y-73416697D01*
X136569396Y-73423929D01*
X136588802Y-73433108D01*
X136607215Y-73444144D01*
X136624458Y-73456932D01*
X136640364Y-73471348D01*
X136654780Y-73487254D01*
X136667568Y-73504497D01*
X136678604Y-73522910D01*
X136687783Y-73542316D01*
X136695015Y-73562528D01*
X136700231Y-73583352D01*
X136703381Y-73604587D01*
X136704434Y-73626028D01*
X136704434Y-74063528D01*
X136703381Y-74084969D01*
X136700231Y-74106204D01*
X136695015Y-74127028D01*
X136687783Y-74147240D01*
X136678604Y-74166646D01*
X136667568Y-74185059D01*
X136654780Y-74202302D01*
X136640364Y-74218208D01*
X136624458Y-74232624D01*
X136607215Y-74245412D01*
X136588802Y-74256448D01*
X136569396Y-74265627D01*
X136549184Y-74272859D01*
X136528360Y-74278075D01*
X136507125Y-74281225D01*
X136485684Y-74282278D01*
X135973184Y-74282278D01*
X135951743Y-74281225D01*
X135930508Y-74278075D01*
X135909684Y-74272859D01*
X135889472Y-74265627D01*
X135870066Y-74256448D01*
X135851653Y-74245412D01*
X135834410Y-74232624D01*
X135818504Y-74218208D01*
X135804088Y-74202302D01*
X135791300Y-74185059D01*
X135780264Y-74166646D01*
X135771085Y-74147240D01*
X135763853Y-74127028D01*
X135758637Y-74106204D01*
X135755487Y-74084969D01*
X135754434Y-74063528D01*
X135754434Y-73626028D01*
X135755487Y-73604587D01*
X135758637Y-73583352D01*
X135763853Y-73562528D01*
X135771085Y-73542316D01*
X135780264Y-73522910D01*
X135791300Y-73504497D01*
X135804088Y-73487254D01*
X135818504Y-73471348D01*
X135834410Y-73456932D01*
X135851653Y-73444144D01*
X135870066Y-73433108D01*
X135889472Y-73423929D01*
X135909684Y-73416697D01*
X135930508Y-73411481D01*
X135951743Y-73408331D01*
X135973184Y-73407278D01*
X136485684Y-73407278D01*
X136507125Y-73408331D01*
X136507125Y-73408331D01*
G37*
D13*
X136229434Y-73844778D03*
G04 #@! TD*
D12*
G04 #@! TO.C,C17*
G36*
X146607125Y-70495831D02*
X146628360Y-70498981D01*
X146649184Y-70504197D01*
X146669396Y-70511429D01*
X146688802Y-70520608D01*
X146707215Y-70531644D01*
X146724458Y-70544432D01*
X146740364Y-70558848D01*
X146754780Y-70574754D01*
X146767568Y-70591997D01*
X146778604Y-70610410D01*
X146787783Y-70629816D01*
X146795015Y-70650028D01*
X146800231Y-70670852D01*
X146803381Y-70692087D01*
X146804434Y-70713528D01*
X146804434Y-71151028D01*
X146803381Y-71172469D01*
X146800231Y-71193704D01*
X146795015Y-71214528D01*
X146787783Y-71234740D01*
X146778604Y-71254146D01*
X146767568Y-71272559D01*
X146754780Y-71289802D01*
X146740364Y-71305708D01*
X146724458Y-71320124D01*
X146707215Y-71332912D01*
X146688802Y-71343948D01*
X146669396Y-71353127D01*
X146649184Y-71360359D01*
X146628360Y-71365575D01*
X146607125Y-71368725D01*
X146585684Y-71369778D01*
X146073184Y-71369778D01*
X146051743Y-71368725D01*
X146030508Y-71365575D01*
X146009684Y-71360359D01*
X145989472Y-71353127D01*
X145970066Y-71343948D01*
X145951653Y-71332912D01*
X145934410Y-71320124D01*
X145918504Y-71305708D01*
X145904088Y-71289802D01*
X145891300Y-71272559D01*
X145880264Y-71254146D01*
X145871085Y-71234740D01*
X145863853Y-71214528D01*
X145858637Y-71193704D01*
X145855487Y-71172469D01*
X145854434Y-71151028D01*
X145854434Y-70713528D01*
X145855487Y-70692087D01*
X145858637Y-70670852D01*
X145863853Y-70650028D01*
X145871085Y-70629816D01*
X145880264Y-70610410D01*
X145891300Y-70591997D01*
X145904088Y-70574754D01*
X145918504Y-70558848D01*
X145934410Y-70544432D01*
X145951653Y-70531644D01*
X145970066Y-70520608D01*
X145989472Y-70511429D01*
X146009684Y-70504197D01*
X146030508Y-70498981D01*
X146051743Y-70495831D01*
X146073184Y-70494778D01*
X146585684Y-70494778D01*
X146607125Y-70495831D01*
X146607125Y-70495831D01*
G37*
D13*
X146329434Y-70932278D03*
D12*
G36*
X146607125Y-72070831D02*
X146628360Y-72073981D01*
X146649184Y-72079197D01*
X146669396Y-72086429D01*
X146688802Y-72095608D01*
X146707215Y-72106644D01*
X146724458Y-72119432D01*
X146740364Y-72133848D01*
X146754780Y-72149754D01*
X146767568Y-72166997D01*
X146778604Y-72185410D01*
X146787783Y-72204816D01*
X146795015Y-72225028D01*
X146800231Y-72245852D01*
X146803381Y-72267087D01*
X146804434Y-72288528D01*
X146804434Y-72726028D01*
X146803381Y-72747469D01*
X146800231Y-72768704D01*
X146795015Y-72789528D01*
X146787783Y-72809740D01*
X146778604Y-72829146D01*
X146767568Y-72847559D01*
X146754780Y-72864802D01*
X146740364Y-72880708D01*
X146724458Y-72895124D01*
X146707215Y-72907912D01*
X146688802Y-72918948D01*
X146669396Y-72928127D01*
X146649184Y-72935359D01*
X146628360Y-72940575D01*
X146607125Y-72943725D01*
X146585684Y-72944778D01*
X146073184Y-72944778D01*
X146051743Y-72943725D01*
X146030508Y-72940575D01*
X146009684Y-72935359D01*
X145989472Y-72928127D01*
X145970066Y-72918948D01*
X145951653Y-72907912D01*
X145934410Y-72895124D01*
X145918504Y-72880708D01*
X145904088Y-72864802D01*
X145891300Y-72847559D01*
X145880264Y-72829146D01*
X145871085Y-72809740D01*
X145863853Y-72789528D01*
X145858637Y-72768704D01*
X145855487Y-72747469D01*
X145854434Y-72726028D01*
X145854434Y-72288528D01*
X145855487Y-72267087D01*
X145858637Y-72245852D01*
X145863853Y-72225028D01*
X145871085Y-72204816D01*
X145880264Y-72185410D01*
X145891300Y-72166997D01*
X145904088Y-72149754D01*
X145918504Y-72133848D01*
X145934410Y-72119432D01*
X145951653Y-72106644D01*
X145970066Y-72095608D01*
X145989472Y-72086429D01*
X146009684Y-72079197D01*
X146030508Y-72073981D01*
X146051743Y-72070831D01*
X146073184Y-72069778D01*
X146585684Y-72069778D01*
X146607125Y-72070831D01*
X146607125Y-72070831D01*
G37*
D13*
X146329434Y-72507278D03*
G04 #@! TD*
D12*
G04 #@! TO.C,C18*
G36*
X139457125Y-76460831D02*
X139478360Y-76463981D01*
X139499184Y-76469197D01*
X139519396Y-76476429D01*
X139538802Y-76485608D01*
X139557215Y-76496644D01*
X139574458Y-76509432D01*
X139590364Y-76523848D01*
X139604780Y-76539754D01*
X139617568Y-76556997D01*
X139628604Y-76575410D01*
X139637783Y-76594816D01*
X139645015Y-76615028D01*
X139650231Y-76635852D01*
X139653381Y-76657087D01*
X139654434Y-76678528D01*
X139654434Y-77116028D01*
X139653381Y-77137469D01*
X139650231Y-77158704D01*
X139645015Y-77179528D01*
X139637783Y-77199740D01*
X139628604Y-77219146D01*
X139617568Y-77237559D01*
X139604780Y-77254802D01*
X139590364Y-77270708D01*
X139574458Y-77285124D01*
X139557215Y-77297912D01*
X139538802Y-77308948D01*
X139519396Y-77318127D01*
X139499184Y-77325359D01*
X139478360Y-77330575D01*
X139457125Y-77333725D01*
X139435684Y-77334778D01*
X138923184Y-77334778D01*
X138901743Y-77333725D01*
X138880508Y-77330575D01*
X138859684Y-77325359D01*
X138839472Y-77318127D01*
X138820066Y-77308948D01*
X138801653Y-77297912D01*
X138784410Y-77285124D01*
X138768504Y-77270708D01*
X138754088Y-77254802D01*
X138741300Y-77237559D01*
X138730264Y-77219146D01*
X138721085Y-77199740D01*
X138713853Y-77179528D01*
X138708637Y-77158704D01*
X138705487Y-77137469D01*
X138704434Y-77116028D01*
X138704434Y-76678528D01*
X138705487Y-76657087D01*
X138708637Y-76635852D01*
X138713853Y-76615028D01*
X138721085Y-76594816D01*
X138730264Y-76575410D01*
X138741300Y-76556997D01*
X138754088Y-76539754D01*
X138768504Y-76523848D01*
X138784410Y-76509432D01*
X138801653Y-76496644D01*
X138820066Y-76485608D01*
X138839472Y-76476429D01*
X138859684Y-76469197D01*
X138880508Y-76463981D01*
X138901743Y-76460831D01*
X138923184Y-76459778D01*
X139435684Y-76459778D01*
X139457125Y-76460831D01*
X139457125Y-76460831D01*
G37*
D13*
X139179434Y-76897278D03*
D12*
G36*
X139457125Y-74885831D02*
X139478360Y-74888981D01*
X139499184Y-74894197D01*
X139519396Y-74901429D01*
X139538802Y-74910608D01*
X139557215Y-74921644D01*
X139574458Y-74934432D01*
X139590364Y-74948848D01*
X139604780Y-74964754D01*
X139617568Y-74981997D01*
X139628604Y-75000410D01*
X139637783Y-75019816D01*
X139645015Y-75040028D01*
X139650231Y-75060852D01*
X139653381Y-75082087D01*
X139654434Y-75103528D01*
X139654434Y-75541028D01*
X139653381Y-75562469D01*
X139650231Y-75583704D01*
X139645015Y-75604528D01*
X139637783Y-75624740D01*
X139628604Y-75644146D01*
X139617568Y-75662559D01*
X139604780Y-75679802D01*
X139590364Y-75695708D01*
X139574458Y-75710124D01*
X139557215Y-75722912D01*
X139538802Y-75733948D01*
X139519396Y-75743127D01*
X139499184Y-75750359D01*
X139478360Y-75755575D01*
X139457125Y-75758725D01*
X139435684Y-75759778D01*
X138923184Y-75759778D01*
X138901743Y-75758725D01*
X138880508Y-75755575D01*
X138859684Y-75750359D01*
X138839472Y-75743127D01*
X138820066Y-75733948D01*
X138801653Y-75722912D01*
X138784410Y-75710124D01*
X138768504Y-75695708D01*
X138754088Y-75679802D01*
X138741300Y-75662559D01*
X138730264Y-75644146D01*
X138721085Y-75624740D01*
X138713853Y-75604528D01*
X138708637Y-75583704D01*
X138705487Y-75562469D01*
X138704434Y-75541028D01*
X138704434Y-75103528D01*
X138705487Y-75082087D01*
X138708637Y-75060852D01*
X138713853Y-75040028D01*
X138721085Y-75019816D01*
X138730264Y-75000410D01*
X138741300Y-74981997D01*
X138754088Y-74964754D01*
X138768504Y-74948848D01*
X138784410Y-74934432D01*
X138801653Y-74921644D01*
X138820066Y-74910608D01*
X138839472Y-74901429D01*
X138859684Y-74894197D01*
X138880508Y-74888981D01*
X138901743Y-74885831D01*
X138923184Y-74884778D01*
X139435684Y-74884778D01*
X139457125Y-74885831D01*
X139457125Y-74885831D01*
G37*
D13*
X139179434Y-75322278D03*
G04 #@! TD*
D12*
G04 #@! TO.C,C19*
G36*
X148319625Y-58295831D02*
X148340860Y-58298981D01*
X148361684Y-58304197D01*
X148381896Y-58311429D01*
X148401302Y-58320608D01*
X148419715Y-58331644D01*
X148436958Y-58344432D01*
X148452864Y-58358848D01*
X148467280Y-58374754D01*
X148480068Y-58391997D01*
X148491104Y-58410410D01*
X148500283Y-58429816D01*
X148507515Y-58450028D01*
X148512731Y-58470852D01*
X148515881Y-58492087D01*
X148516934Y-58513528D01*
X148516934Y-59026028D01*
X148515881Y-59047469D01*
X148512731Y-59068704D01*
X148507515Y-59089528D01*
X148500283Y-59109740D01*
X148491104Y-59129146D01*
X148480068Y-59147559D01*
X148467280Y-59164802D01*
X148452864Y-59180708D01*
X148436958Y-59195124D01*
X148419715Y-59207912D01*
X148401302Y-59218948D01*
X148381896Y-59228127D01*
X148361684Y-59235359D01*
X148340860Y-59240575D01*
X148319625Y-59243725D01*
X148298184Y-59244778D01*
X147860684Y-59244778D01*
X147839243Y-59243725D01*
X147818008Y-59240575D01*
X147797184Y-59235359D01*
X147776972Y-59228127D01*
X147757566Y-59218948D01*
X147739153Y-59207912D01*
X147721910Y-59195124D01*
X147706004Y-59180708D01*
X147691588Y-59164802D01*
X147678800Y-59147559D01*
X147667764Y-59129146D01*
X147658585Y-59109740D01*
X147651353Y-59089528D01*
X147646137Y-59068704D01*
X147642987Y-59047469D01*
X147641934Y-59026028D01*
X147641934Y-58513528D01*
X147642987Y-58492087D01*
X147646137Y-58470852D01*
X147651353Y-58450028D01*
X147658585Y-58429816D01*
X147667764Y-58410410D01*
X147678800Y-58391997D01*
X147691588Y-58374754D01*
X147706004Y-58358848D01*
X147721910Y-58344432D01*
X147739153Y-58331644D01*
X147757566Y-58320608D01*
X147776972Y-58311429D01*
X147797184Y-58304197D01*
X147818008Y-58298981D01*
X147839243Y-58295831D01*
X147860684Y-58294778D01*
X148298184Y-58294778D01*
X148319625Y-58295831D01*
X148319625Y-58295831D01*
G37*
D13*
X148079434Y-58769778D03*
D12*
G36*
X149894625Y-58295831D02*
X149915860Y-58298981D01*
X149936684Y-58304197D01*
X149956896Y-58311429D01*
X149976302Y-58320608D01*
X149994715Y-58331644D01*
X150011958Y-58344432D01*
X150027864Y-58358848D01*
X150042280Y-58374754D01*
X150055068Y-58391997D01*
X150066104Y-58410410D01*
X150075283Y-58429816D01*
X150082515Y-58450028D01*
X150087731Y-58470852D01*
X150090881Y-58492087D01*
X150091934Y-58513528D01*
X150091934Y-59026028D01*
X150090881Y-59047469D01*
X150087731Y-59068704D01*
X150082515Y-59089528D01*
X150075283Y-59109740D01*
X150066104Y-59129146D01*
X150055068Y-59147559D01*
X150042280Y-59164802D01*
X150027864Y-59180708D01*
X150011958Y-59195124D01*
X149994715Y-59207912D01*
X149976302Y-59218948D01*
X149956896Y-59228127D01*
X149936684Y-59235359D01*
X149915860Y-59240575D01*
X149894625Y-59243725D01*
X149873184Y-59244778D01*
X149435684Y-59244778D01*
X149414243Y-59243725D01*
X149393008Y-59240575D01*
X149372184Y-59235359D01*
X149351972Y-59228127D01*
X149332566Y-59218948D01*
X149314153Y-59207912D01*
X149296910Y-59195124D01*
X149281004Y-59180708D01*
X149266588Y-59164802D01*
X149253800Y-59147559D01*
X149242764Y-59129146D01*
X149233585Y-59109740D01*
X149226353Y-59089528D01*
X149221137Y-59068704D01*
X149217987Y-59047469D01*
X149216934Y-59026028D01*
X149216934Y-58513528D01*
X149217987Y-58492087D01*
X149221137Y-58470852D01*
X149226353Y-58450028D01*
X149233585Y-58429816D01*
X149242764Y-58410410D01*
X149253800Y-58391997D01*
X149266588Y-58374754D01*
X149281004Y-58358848D01*
X149296910Y-58344432D01*
X149314153Y-58331644D01*
X149332566Y-58320608D01*
X149351972Y-58311429D01*
X149372184Y-58304197D01*
X149393008Y-58298981D01*
X149414243Y-58295831D01*
X149435684Y-58294778D01*
X149873184Y-58294778D01*
X149894625Y-58295831D01*
X149894625Y-58295831D01*
G37*
D13*
X149654434Y-58769778D03*
G04 #@! TD*
D12*
G04 #@! TO.C,C20*
G36*
X149507125Y-63695831D02*
X149528360Y-63698981D01*
X149549184Y-63704197D01*
X149569396Y-63711429D01*
X149588802Y-63720608D01*
X149607215Y-63731644D01*
X149624458Y-63744432D01*
X149640364Y-63758848D01*
X149654780Y-63774754D01*
X149667568Y-63791997D01*
X149678604Y-63810410D01*
X149687783Y-63829816D01*
X149695015Y-63850028D01*
X149700231Y-63870852D01*
X149703381Y-63892087D01*
X149704434Y-63913528D01*
X149704434Y-64426028D01*
X149703381Y-64447469D01*
X149700231Y-64468704D01*
X149695015Y-64489528D01*
X149687783Y-64509740D01*
X149678604Y-64529146D01*
X149667568Y-64547559D01*
X149654780Y-64564802D01*
X149640364Y-64580708D01*
X149624458Y-64595124D01*
X149607215Y-64607912D01*
X149588802Y-64618948D01*
X149569396Y-64628127D01*
X149549184Y-64635359D01*
X149528360Y-64640575D01*
X149507125Y-64643725D01*
X149485684Y-64644778D01*
X149048184Y-64644778D01*
X149026743Y-64643725D01*
X149005508Y-64640575D01*
X148984684Y-64635359D01*
X148964472Y-64628127D01*
X148945066Y-64618948D01*
X148926653Y-64607912D01*
X148909410Y-64595124D01*
X148893504Y-64580708D01*
X148879088Y-64564802D01*
X148866300Y-64547559D01*
X148855264Y-64529146D01*
X148846085Y-64509740D01*
X148838853Y-64489528D01*
X148833637Y-64468704D01*
X148830487Y-64447469D01*
X148829434Y-64426028D01*
X148829434Y-63913528D01*
X148830487Y-63892087D01*
X148833637Y-63870852D01*
X148838853Y-63850028D01*
X148846085Y-63829816D01*
X148855264Y-63810410D01*
X148866300Y-63791997D01*
X148879088Y-63774754D01*
X148893504Y-63758848D01*
X148909410Y-63744432D01*
X148926653Y-63731644D01*
X148945066Y-63720608D01*
X148964472Y-63711429D01*
X148984684Y-63704197D01*
X149005508Y-63698981D01*
X149026743Y-63695831D01*
X149048184Y-63694778D01*
X149485684Y-63694778D01*
X149507125Y-63695831D01*
X149507125Y-63695831D01*
G37*
D13*
X149266934Y-64169778D03*
D12*
G36*
X147932125Y-63695831D02*
X147953360Y-63698981D01*
X147974184Y-63704197D01*
X147994396Y-63711429D01*
X148013802Y-63720608D01*
X148032215Y-63731644D01*
X148049458Y-63744432D01*
X148065364Y-63758848D01*
X148079780Y-63774754D01*
X148092568Y-63791997D01*
X148103604Y-63810410D01*
X148112783Y-63829816D01*
X148120015Y-63850028D01*
X148125231Y-63870852D01*
X148128381Y-63892087D01*
X148129434Y-63913528D01*
X148129434Y-64426028D01*
X148128381Y-64447469D01*
X148125231Y-64468704D01*
X148120015Y-64489528D01*
X148112783Y-64509740D01*
X148103604Y-64529146D01*
X148092568Y-64547559D01*
X148079780Y-64564802D01*
X148065364Y-64580708D01*
X148049458Y-64595124D01*
X148032215Y-64607912D01*
X148013802Y-64618948D01*
X147994396Y-64628127D01*
X147974184Y-64635359D01*
X147953360Y-64640575D01*
X147932125Y-64643725D01*
X147910684Y-64644778D01*
X147473184Y-64644778D01*
X147451743Y-64643725D01*
X147430508Y-64640575D01*
X147409684Y-64635359D01*
X147389472Y-64628127D01*
X147370066Y-64618948D01*
X147351653Y-64607912D01*
X147334410Y-64595124D01*
X147318504Y-64580708D01*
X147304088Y-64564802D01*
X147291300Y-64547559D01*
X147280264Y-64529146D01*
X147271085Y-64509740D01*
X147263853Y-64489528D01*
X147258637Y-64468704D01*
X147255487Y-64447469D01*
X147254434Y-64426028D01*
X147254434Y-63913528D01*
X147255487Y-63892087D01*
X147258637Y-63870852D01*
X147263853Y-63850028D01*
X147271085Y-63829816D01*
X147280264Y-63810410D01*
X147291300Y-63791997D01*
X147304088Y-63774754D01*
X147318504Y-63758848D01*
X147334410Y-63744432D01*
X147351653Y-63731644D01*
X147370066Y-63720608D01*
X147389472Y-63711429D01*
X147409684Y-63704197D01*
X147430508Y-63698981D01*
X147451743Y-63695831D01*
X147473184Y-63694778D01*
X147910684Y-63694778D01*
X147932125Y-63695831D01*
X147932125Y-63695831D01*
G37*
D13*
X147691934Y-64169778D03*
G04 #@! TD*
D12*
G04 #@! TO.C,C11*
G36*
X130057125Y-75020831D02*
X130078360Y-75023981D01*
X130099184Y-75029197D01*
X130119396Y-75036429D01*
X130138802Y-75045608D01*
X130157215Y-75056644D01*
X130174458Y-75069432D01*
X130190364Y-75083848D01*
X130204780Y-75099754D01*
X130217568Y-75116997D01*
X130228604Y-75135410D01*
X130237783Y-75154816D01*
X130245015Y-75175028D01*
X130250231Y-75195852D01*
X130253381Y-75217087D01*
X130254434Y-75238528D01*
X130254434Y-75676028D01*
X130253381Y-75697469D01*
X130250231Y-75718704D01*
X130245015Y-75739528D01*
X130237783Y-75759740D01*
X130228604Y-75779146D01*
X130217568Y-75797559D01*
X130204780Y-75814802D01*
X130190364Y-75830708D01*
X130174458Y-75845124D01*
X130157215Y-75857912D01*
X130138802Y-75868948D01*
X130119396Y-75878127D01*
X130099184Y-75885359D01*
X130078360Y-75890575D01*
X130057125Y-75893725D01*
X130035684Y-75894778D01*
X129523184Y-75894778D01*
X129501743Y-75893725D01*
X129480508Y-75890575D01*
X129459684Y-75885359D01*
X129439472Y-75878127D01*
X129420066Y-75868948D01*
X129401653Y-75857912D01*
X129384410Y-75845124D01*
X129368504Y-75830708D01*
X129354088Y-75814802D01*
X129341300Y-75797559D01*
X129330264Y-75779146D01*
X129321085Y-75759740D01*
X129313853Y-75739528D01*
X129308637Y-75718704D01*
X129305487Y-75697469D01*
X129304434Y-75676028D01*
X129304434Y-75238528D01*
X129305487Y-75217087D01*
X129308637Y-75195852D01*
X129313853Y-75175028D01*
X129321085Y-75154816D01*
X129330264Y-75135410D01*
X129341300Y-75116997D01*
X129354088Y-75099754D01*
X129368504Y-75083848D01*
X129384410Y-75069432D01*
X129401653Y-75056644D01*
X129420066Y-75045608D01*
X129439472Y-75036429D01*
X129459684Y-75029197D01*
X129480508Y-75023981D01*
X129501743Y-75020831D01*
X129523184Y-75019778D01*
X130035684Y-75019778D01*
X130057125Y-75020831D01*
X130057125Y-75020831D01*
G37*
D13*
X129779434Y-75457278D03*
D12*
G36*
X130057125Y-73445831D02*
X130078360Y-73448981D01*
X130099184Y-73454197D01*
X130119396Y-73461429D01*
X130138802Y-73470608D01*
X130157215Y-73481644D01*
X130174458Y-73494432D01*
X130190364Y-73508848D01*
X130204780Y-73524754D01*
X130217568Y-73541997D01*
X130228604Y-73560410D01*
X130237783Y-73579816D01*
X130245015Y-73600028D01*
X130250231Y-73620852D01*
X130253381Y-73642087D01*
X130254434Y-73663528D01*
X130254434Y-74101028D01*
X130253381Y-74122469D01*
X130250231Y-74143704D01*
X130245015Y-74164528D01*
X130237783Y-74184740D01*
X130228604Y-74204146D01*
X130217568Y-74222559D01*
X130204780Y-74239802D01*
X130190364Y-74255708D01*
X130174458Y-74270124D01*
X130157215Y-74282912D01*
X130138802Y-74293948D01*
X130119396Y-74303127D01*
X130099184Y-74310359D01*
X130078360Y-74315575D01*
X130057125Y-74318725D01*
X130035684Y-74319778D01*
X129523184Y-74319778D01*
X129501743Y-74318725D01*
X129480508Y-74315575D01*
X129459684Y-74310359D01*
X129439472Y-74303127D01*
X129420066Y-74293948D01*
X129401653Y-74282912D01*
X129384410Y-74270124D01*
X129368504Y-74255708D01*
X129354088Y-74239802D01*
X129341300Y-74222559D01*
X129330264Y-74204146D01*
X129321085Y-74184740D01*
X129313853Y-74164528D01*
X129308637Y-74143704D01*
X129305487Y-74122469D01*
X129304434Y-74101028D01*
X129304434Y-73663528D01*
X129305487Y-73642087D01*
X129308637Y-73620852D01*
X129313853Y-73600028D01*
X129321085Y-73579816D01*
X129330264Y-73560410D01*
X129341300Y-73541997D01*
X129354088Y-73524754D01*
X129368504Y-73508848D01*
X129384410Y-73494432D01*
X129401653Y-73481644D01*
X129420066Y-73470608D01*
X129439472Y-73461429D01*
X129459684Y-73454197D01*
X129480508Y-73448981D01*
X129501743Y-73445831D01*
X129523184Y-73444778D01*
X130035684Y-73444778D01*
X130057125Y-73445831D01*
X130057125Y-73445831D01*
G37*
D13*
X129779434Y-73882278D03*
G04 #@! TD*
D15*
G04 #@! TO.C,J71*
X153354434Y-38689778D03*
D16*
X152154434Y-38564778D03*
D17*
X151904434Y-30964778D03*
D18*
X152229434Y-29464778D03*
D19*
X163854434Y-30314778D03*
D15*
X154454434Y-38689778D03*
X155554434Y-38689778D03*
X156654434Y-38689778D03*
X157754434Y-38689778D03*
X158854434Y-38689778D03*
X159954434Y-38689778D03*
X161054434Y-38689778D03*
D20*
X163504434Y-38564778D03*
D21*
X163454434Y-27889778D03*
G04 #@! TD*
D22*
G04 #@! TO.C,J74*
X171229434Y-51459778D03*
X171229434Y-56939778D03*
D23*
X170479434Y-57159778D03*
X170479434Y-51209778D03*
D24*
X169179434Y-57059778D03*
X169159434Y-51309778D03*
D25*
X169279434Y-55509778D03*
X169279434Y-54859778D03*
X169279434Y-54209778D03*
X169279434Y-53559778D03*
X169279434Y-52909778D03*
D26*
X172429434Y-55169778D03*
X172429434Y-53249778D03*
G04 #@! TD*
D27*
G04 #@! TO.C,Y1*
X126679434Y-53519778D03*
X126679434Y-56019778D03*
G04 #@! TD*
D28*
G04 #@! TO.C,U1*
X128334434Y-77394778D03*
X127064434Y-77394778D03*
X125794434Y-77394778D03*
X124524434Y-77394778D03*
X124524434Y-82644778D03*
X125794434Y-82644778D03*
X127064434Y-82644778D03*
X128334434Y-82644778D03*
G04 #@! TD*
D12*
G04 #@! TO.C,D6*
G36*
X110094625Y-40245831D02*
X110115860Y-40248981D01*
X110136684Y-40254197D01*
X110156896Y-40261429D01*
X110176302Y-40270608D01*
X110194715Y-40281644D01*
X110211958Y-40294432D01*
X110227864Y-40308848D01*
X110242280Y-40324754D01*
X110255068Y-40341997D01*
X110266104Y-40360410D01*
X110275283Y-40379816D01*
X110282515Y-40400028D01*
X110287731Y-40420852D01*
X110290881Y-40442087D01*
X110291934Y-40463528D01*
X110291934Y-40976028D01*
X110290881Y-40997469D01*
X110287731Y-41018704D01*
X110282515Y-41039528D01*
X110275283Y-41059740D01*
X110266104Y-41079146D01*
X110255068Y-41097559D01*
X110242280Y-41114802D01*
X110227864Y-41130708D01*
X110211958Y-41145124D01*
X110194715Y-41157912D01*
X110176302Y-41168948D01*
X110156896Y-41178127D01*
X110136684Y-41185359D01*
X110115860Y-41190575D01*
X110094625Y-41193725D01*
X110073184Y-41194778D01*
X109635684Y-41194778D01*
X109614243Y-41193725D01*
X109593008Y-41190575D01*
X109572184Y-41185359D01*
X109551972Y-41178127D01*
X109532566Y-41168948D01*
X109514153Y-41157912D01*
X109496910Y-41145124D01*
X109481004Y-41130708D01*
X109466588Y-41114802D01*
X109453800Y-41097559D01*
X109442764Y-41079146D01*
X109433585Y-41059740D01*
X109426353Y-41039528D01*
X109421137Y-41018704D01*
X109417987Y-40997469D01*
X109416934Y-40976028D01*
X109416934Y-40463528D01*
X109417987Y-40442087D01*
X109421137Y-40420852D01*
X109426353Y-40400028D01*
X109433585Y-40379816D01*
X109442764Y-40360410D01*
X109453800Y-40341997D01*
X109466588Y-40324754D01*
X109481004Y-40308848D01*
X109496910Y-40294432D01*
X109514153Y-40281644D01*
X109532566Y-40270608D01*
X109551972Y-40261429D01*
X109572184Y-40254197D01*
X109593008Y-40248981D01*
X109614243Y-40245831D01*
X109635684Y-40244778D01*
X110073184Y-40244778D01*
X110094625Y-40245831D01*
X110094625Y-40245831D01*
G37*
D13*
X109854434Y-40719778D03*
D12*
G36*
X111669625Y-40245831D02*
X111690860Y-40248981D01*
X111711684Y-40254197D01*
X111731896Y-40261429D01*
X111751302Y-40270608D01*
X111769715Y-40281644D01*
X111786958Y-40294432D01*
X111802864Y-40308848D01*
X111817280Y-40324754D01*
X111830068Y-40341997D01*
X111841104Y-40360410D01*
X111850283Y-40379816D01*
X111857515Y-40400028D01*
X111862731Y-40420852D01*
X111865881Y-40442087D01*
X111866934Y-40463528D01*
X111866934Y-40976028D01*
X111865881Y-40997469D01*
X111862731Y-41018704D01*
X111857515Y-41039528D01*
X111850283Y-41059740D01*
X111841104Y-41079146D01*
X111830068Y-41097559D01*
X111817280Y-41114802D01*
X111802864Y-41130708D01*
X111786958Y-41145124D01*
X111769715Y-41157912D01*
X111751302Y-41168948D01*
X111731896Y-41178127D01*
X111711684Y-41185359D01*
X111690860Y-41190575D01*
X111669625Y-41193725D01*
X111648184Y-41194778D01*
X111210684Y-41194778D01*
X111189243Y-41193725D01*
X111168008Y-41190575D01*
X111147184Y-41185359D01*
X111126972Y-41178127D01*
X111107566Y-41168948D01*
X111089153Y-41157912D01*
X111071910Y-41145124D01*
X111056004Y-41130708D01*
X111041588Y-41114802D01*
X111028800Y-41097559D01*
X111017764Y-41079146D01*
X111008585Y-41059740D01*
X111001353Y-41039528D01*
X110996137Y-41018704D01*
X110992987Y-40997469D01*
X110991934Y-40976028D01*
X110991934Y-40463528D01*
X110992987Y-40442087D01*
X110996137Y-40420852D01*
X111001353Y-40400028D01*
X111008585Y-40379816D01*
X111017764Y-40360410D01*
X111028800Y-40341997D01*
X111041588Y-40324754D01*
X111056004Y-40308848D01*
X111071910Y-40294432D01*
X111089153Y-40281644D01*
X111107566Y-40270608D01*
X111126972Y-40261429D01*
X111147184Y-40254197D01*
X111168008Y-40248981D01*
X111189243Y-40245831D01*
X111210684Y-40244778D01*
X111648184Y-40244778D01*
X111669625Y-40245831D01*
X111669625Y-40245831D01*
G37*
D13*
X111429434Y-40719778D03*
G04 #@! TD*
D12*
G04 #@! TO.C,D3*
G36*
X132707125Y-31033331D02*
X132728360Y-31036481D01*
X132749184Y-31041697D01*
X132769396Y-31048929D01*
X132788802Y-31058108D01*
X132807215Y-31069144D01*
X132824458Y-31081932D01*
X132840364Y-31096348D01*
X132854780Y-31112254D01*
X132867568Y-31129497D01*
X132878604Y-31147910D01*
X132887783Y-31167316D01*
X132895015Y-31187528D01*
X132900231Y-31208352D01*
X132903381Y-31229587D01*
X132904434Y-31251028D01*
X132904434Y-31688528D01*
X132903381Y-31709969D01*
X132900231Y-31731204D01*
X132895015Y-31752028D01*
X132887783Y-31772240D01*
X132878604Y-31791646D01*
X132867568Y-31810059D01*
X132854780Y-31827302D01*
X132840364Y-31843208D01*
X132824458Y-31857624D01*
X132807215Y-31870412D01*
X132788802Y-31881448D01*
X132769396Y-31890627D01*
X132749184Y-31897859D01*
X132728360Y-31903075D01*
X132707125Y-31906225D01*
X132685684Y-31907278D01*
X132173184Y-31907278D01*
X132151743Y-31906225D01*
X132130508Y-31903075D01*
X132109684Y-31897859D01*
X132089472Y-31890627D01*
X132070066Y-31881448D01*
X132051653Y-31870412D01*
X132034410Y-31857624D01*
X132018504Y-31843208D01*
X132004088Y-31827302D01*
X131991300Y-31810059D01*
X131980264Y-31791646D01*
X131971085Y-31772240D01*
X131963853Y-31752028D01*
X131958637Y-31731204D01*
X131955487Y-31709969D01*
X131954434Y-31688528D01*
X131954434Y-31251028D01*
X131955487Y-31229587D01*
X131958637Y-31208352D01*
X131963853Y-31187528D01*
X131971085Y-31167316D01*
X131980264Y-31147910D01*
X131991300Y-31129497D01*
X132004088Y-31112254D01*
X132018504Y-31096348D01*
X132034410Y-31081932D01*
X132051653Y-31069144D01*
X132070066Y-31058108D01*
X132089472Y-31048929D01*
X132109684Y-31041697D01*
X132130508Y-31036481D01*
X132151743Y-31033331D01*
X132173184Y-31032278D01*
X132685684Y-31032278D01*
X132707125Y-31033331D01*
X132707125Y-31033331D01*
G37*
D13*
X132429434Y-31469778D03*
D12*
G36*
X132707125Y-29458331D02*
X132728360Y-29461481D01*
X132749184Y-29466697D01*
X132769396Y-29473929D01*
X132788802Y-29483108D01*
X132807215Y-29494144D01*
X132824458Y-29506932D01*
X132840364Y-29521348D01*
X132854780Y-29537254D01*
X132867568Y-29554497D01*
X132878604Y-29572910D01*
X132887783Y-29592316D01*
X132895015Y-29612528D01*
X132900231Y-29633352D01*
X132903381Y-29654587D01*
X132904434Y-29676028D01*
X132904434Y-30113528D01*
X132903381Y-30134969D01*
X132900231Y-30156204D01*
X132895015Y-30177028D01*
X132887783Y-30197240D01*
X132878604Y-30216646D01*
X132867568Y-30235059D01*
X132854780Y-30252302D01*
X132840364Y-30268208D01*
X132824458Y-30282624D01*
X132807215Y-30295412D01*
X132788802Y-30306448D01*
X132769396Y-30315627D01*
X132749184Y-30322859D01*
X132728360Y-30328075D01*
X132707125Y-30331225D01*
X132685684Y-30332278D01*
X132173184Y-30332278D01*
X132151743Y-30331225D01*
X132130508Y-30328075D01*
X132109684Y-30322859D01*
X132089472Y-30315627D01*
X132070066Y-30306448D01*
X132051653Y-30295412D01*
X132034410Y-30282624D01*
X132018504Y-30268208D01*
X132004088Y-30252302D01*
X131991300Y-30235059D01*
X131980264Y-30216646D01*
X131971085Y-30197240D01*
X131963853Y-30177028D01*
X131958637Y-30156204D01*
X131955487Y-30134969D01*
X131954434Y-30113528D01*
X131954434Y-29676028D01*
X131955487Y-29654587D01*
X131958637Y-29633352D01*
X131963853Y-29612528D01*
X131971085Y-29592316D01*
X131980264Y-29572910D01*
X131991300Y-29554497D01*
X132004088Y-29537254D01*
X132018504Y-29521348D01*
X132034410Y-29506932D01*
X132051653Y-29494144D01*
X132070066Y-29483108D01*
X132089472Y-29473929D01*
X132109684Y-29466697D01*
X132130508Y-29461481D01*
X132151743Y-29458331D01*
X132173184Y-29457278D01*
X132685684Y-29457278D01*
X132707125Y-29458331D01*
X132707125Y-29458331D01*
G37*
D13*
X132429434Y-29894778D03*
G04 #@! TD*
D12*
G04 #@! TO.C,D2*
G36*
X129957125Y-29458331D02*
X129978360Y-29461481D01*
X129999184Y-29466697D01*
X130019396Y-29473929D01*
X130038802Y-29483108D01*
X130057215Y-29494144D01*
X130074458Y-29506932D01*
X130090364Y-29521348D01*
X130104780Y-29537254D01*
X130117568Y-29554497D01*
X130128604Y-29572910D01*
X130137783Y-29592316D01*
X130145015Y-29612528D01*
X130150231Y-29633352D01*
X130153381Y-29654587D01*
X130154434Y-29676028D01*
X130154434Y-30113528D01*
X130153381Y-30134969D01*
X130150231Y-30156204D01*
X130145015Y-30177028D01*
X130137783Y-30197240D01*
X130128604Y-30216646D01*
X130117568Y-30235059D01*
X130104780Y-30252302D01*
X130090364Y-30268208D01*
X130074458Y-30282624D01*
X130057215Y-30295412D01*
X130038802Y-30306448D01*
X130019396Y-30315627D01*
X129999184Y-30322859D01*
X129978360Y-30328075D01*
X129957125Y-30331225D01*
X129935684Y-30332278D01*
X129423184Y-30332278D01*
X129401743Y-30331225D01*
X129380508Y-30328075D01*
X129359684Y-30322859D01*
X129339472Y-30315627D01*
X129320066Y-30306448D01*
X129301653Y-30295412D01*
X129284410Y-30282624D01*
X129268504Y-30268208D01*
X129254088Y-30252302D01*
X129241300Y-30235059D01*
X129230264Y-30216646D01*
X129221085Y-30197240D01*
X129213853Y-30177028D01*
X129208637Y-30156204D01*
X129205487Y-30134969D01*
X129204434Y-30113528D01*
X129204434Y-29676028D01*
X129205487Y-29654587D01*
X129208637Y-29633352D01*
X129213853Y-29612528D01*
X129221085Y-29592316D01*
X129230264Y-29572910D01*
X129241300Y-29554497D01*
X129254088Y-29537254D01*
X129268504Y-29521348D01*
X129284410Y-29506932D01*
X129301653Y-29494144D01*
X129320066Y-29483108D01*
X129339472Y-29473929D01*
X129359684Y-29466697D01*
X129380508Y-29461481D01*
X129401743Y-29458331D01*
X129423184Y-29457278D01*
X129935684Y-29457278D01*
X129957125Y-29458331D01*
X129957125Y-29458331D01*
G37*
D13*
X129679434Y-29894778D03*
D12*
G36*
X129957125Y-31033331D02*
X129978360Y-31036481D01*
X129999184Y-31041697D01*
X130019396Y-31048929D01*
X130038802Y-31058108D01*
X130057215Y-31069144D01*
X130074458Y-31081932D01*
X130090364Y-31096348D01*
X130104780Y-31112254D01*
X130117568Y-31129497D01*
X130128604Y-31147910D01*
X130137783Y-31167316D01*
X130145015Y-31187528D01*
X130150231Y-31208352D01*
X130153381Y-31229587D01*
X130154434Y-31251028D01*
X130154434Y-31688528D01*
X130153381Y-31709969D01*
X130150231Y-31731204D01*
X130145015Y-31752028D01*
X130137783Y-31772240D01*
X130128604Y-31791646D01*
X130117568Y-31810059D01*
X130104780Y-31827302D01*
X130090364Y-31843208D01*
X130074458Y-31857624D01*
X130057215Y-31870412D01*
X130038802Y-31881448D01*
X130019396Y-31890627D01*
X129999184Y-31897859D01*
X129978360Y-31903075D01*
X129957125Y-31906225D01*
X129935684Y-31907278D01*
X129423184Y-31907278D01*
X129401743Y-31906225D01*
X129380508Y-31903075D01*
X129359684Y-31897859D01*
X129339472Y-31890627D01*
X129320066Y-31881448D01*
X129301653Y-31870412D01*
X129284410Y-31857624D01*
X129268504Y-31843208D01*
X129254088Y-31827302D01*
X129241300Y-31810059D01*
X129230264Y-31791646D01*
X129221085Y-31772240D01*
X129213853Y-31752028D01*
X129208637Y-31731204D01*
X129205487Y-31709969D01*
X129204434Y-31688528D01*
X129204434Y-31251028D01*
X129205487Y-31229587D01*
X129208637Y-31208352D01*
X129213853Y-31187528D01*
X129221085Y-31167316D01*
X129230264Y-31147910D01*
X129241300Y-31129497D01*
X129254088Y-31112254D01*
X129268504Y-31096348D01*
X129284410Y-31081932D01*
X129301653Y-31069144D01*
X129320066Y-31058108D01*
X129339472Y-31048929D01*
X129359684Y-31041697D01*
X129380508Y-31036481D01*
X129401743Y-31033331D01*
X129423184Y-31032278D01*
X129935684Y-31032278D01*
X129957125Y-31033331D01*
X129957125Y-31033331D01*
G37*
D13*
X129679434Y-31469778D03*
G04 #@! TD*
D12*
G04 #@! TO.C,D1*
G36*
X127207125Y-29495831D02*
X127228360Y-29498981D01*
X127249184Y-29504197D01*
X127269396Y-29511429D01*
X127288802Y-29520608D01*
X127307215Y-29531644D01*
X127324458Y-29544432D01*
X127340364Y-29558848D01*
X127354780Y-29574754D01*
X127367568Y-29591997D01*
X127378604Y-29610410D01*
X127387783Y-29629816D01*
X127395015Y-29650028D01*
X127400231Y-29670852D01*
X127403381Y-29692087D01*
X127404434Y-29713528D01*
X127404434Y-30151028D01*
X127403381Y-30172469D01*
X127400231Y-30193704D01*
X127395015Y-30214528D01*
X127387783Y-30234740D01*
X127378604Y-30254146D01*
X127367568Y-30272559D01*
X127354780Y-30289802D01*
X127340364Y-30305708D01*
X127324458Y-30320124D01*
X127307215Y-30332912D01*
X127288802Y-30343948D01*
X127269396Y-30353127D01*
X127249184Y-30360359D01*
X127228360Y-30365575D01*
X127207125Y-30368725D01*
X127185684Y-30369778D01*
X126673184Y-30369778D01*
X126651743Y-30368725D01*
X126630508Y-30365575D01*
X126609684Y-30360359D01*
X126589472Y-30353127D01*
X126570066Y-30343948D01*
X126551653Y-30332912D01*
X126534410Y-30320124D01*
X126518504Y-30305708D01*
X126504088Y-30289802D01*
X126491300Y-30272559D01*
X126480264Y-30254146D01*
X126471085Y-30234740D01*
X126463853Y-30214528D01*
X126458637Y-30193704D01*
X126455487Y-30172469D01*
X126454434Y-30151028D01*
X126454434Y-29713528D01*
X126455487Y-29692087D01*
X126458637Y-29670852D01*
X126463853Y-29650028D01*
X126471085Y-29629816D01*
X126480264Y-29610410D01*
X126491300Y-29591997D01*
X126504088Y-29574754D01*
X126518504Y-29558848D01*
X126534410Y-29544432D01*
X126551653Y-29531644D01*
X126570066Y-29520608D01*
X126589472Y-29511429D01*
X126609684Y-29504197D01*
X126630508Y-29498981D01*
X126651743Y-29495831D01*
X126673184Y-29494778D01*
X127185684Y-29494778D01*
X127207125Y-29495831D01*
X127207125Y-29495831D01*
G37*
D13*
X126929434Y-29932278D03*
D12*
G36*
X127207125Y-31070831D02*
X127228360Y-31073981D01*
X127249184Y-31079197D01*
X127269396Y-31086429D01*
X127288802Y-31095608D01*
X127307215Y-31106644D01*
X127324458Y-31119432D01*
X127340364Y-31133848D01*
X127354780Y-31149754D01*
X127367568Y-31166997D01*
X127378604Y-31185410D01*
X127387783Y-31204816D01*
X127395015Y-31225028D01*
X127400231Y-31245852D01*
X127403381Y-31267087D01*
X127404434Y-31288528D01*
X127404434Y-31726028D01*
X127403381Y-31747469D01*
X127400231Y-31768704D01*
X127395015Y-31789528D01*
X127387783Y-31809740D01*
X127378604Y-31829146D01*
X127367568Y-31847559D01*
X127354780Y-31864802D01*
X127340364Y-31880708D01*
X127324458Y-31895124D01*
X127307215Y-31907912D01*
X127288802Y-31918948D01*
X127269396Y-31928127D01*
X127249184Y-31935359D01*
X127228360Y-31940575D01*
X127207125Y-31943725D01*
X127185684Y-31944778D01*
X126673184Y-31944778D01*
X126651743Y-31943725D01*
X126630508Y-31940575D01*
X126609684Y-31935359D01*
X126589472Y-31928127D01*
X126570066Y-31918948D01*
X126551653Y-31907912D01*
X126534410Y-31895124D01*
X126518504Y-31880708D01*
X126504088Y-31864802D01*
X126491300Y-31847559D01*
X126480264Y-31829146D01*
X126471085Y-31809740D01*
X126463853Y-31789528D01*
X126458637Y-31768704D01*
X126455487Y-31747469D01*
X126454434Y-31726028D01*
X126454434Y-31288528D01*
X126455487Y-31267087D01*
X126458637Y-31245852D01*
X126463853Y-31225028D01*
X126471085Y-31204816D01*
X126480264Y-31185410D01*
X126491300Y-31166997D01*
X126504088Y-31149754D01*
X126518504Y-31133848D01*
X126534410Y-31119432D01*
X126551653Y-31106644D01*
X126570066Y-31095608D01*
X126589472Y-31086429D01*
X126609684Y-31079197D01*
X126630508Y-31073981D01*
X126651743Y-31070831D01*
X126673184Y-31069778D01*
X127185684Y-31069778D01*
X127207125Y-31070831D01*
X127207125Y-31070831D01*
G37*
D13*
X126929434Y-31507278D03*
G04 #@! TD*
D29*
G04 #@! TO.C,D5*
X148629434Y-30619778D03*
X148629434Y-27419778D03*
X143729434Y-30619778D03*
X143729434Y-27419778D03*
G04 #@! TD*
G04 #@! TO.C,D4*
X135729434Y-27419778D03*
X135729434Y-30619778D03*
X140629434Y-27419778D03*
X140629434Y-30619778D03*
G04 #@! TD*
D30*
G04 #@! TO.C,U3*
X152029434Y-79894778D03*
X152029434Y-80544778D03*
X152029434Y-81194778D03*
X152029434Y-81844778D03*
X152029434Y-82494778D03*
X152029434Y-83144778D03*
X152029434Y-83794778D03*
X152029434Y-84444778D03*
X152029434Y-85094778D03*
X152029434Y-85744778D03*
X152029434Y-86394778D03*
X152029434Y-87044778D03*
X157729434Y-87044778D03*
X157729434Y-86394778D03*
X157729434Y-85744778D03*
X157729434Y-85094778D03*
X157729434Y-84444778D03*
X157729434Y-83794778D03*
X157729434Y-83144778D03*
X157729434Y-82494778D03*
X157729434Y-81844778D03*
X157729434Y-81194778D03*
X157729434Y-80544778D03*
X157729434Y-79894778D03*
G04 #@! TD*
D12*
G04 #@! TO.C,R10*
G36*
X157107125Y-71545831D02*
X157128360Y-71548981D01*
X157149184Y-71554197D01*
X157169396Y-71561429D01*
X157188802Y-71570608D01*
X157207215Y-71581644D01*
X157224458Y-71594432D01*
X157240364Y-71608848D01*
X157254780Y-71624754D01*
X157267568Y-71641997D01*
X157278604Y-71660410D01*
X157287783Y-71679816D01*
X157295015Y-71700028D01*
X157300231Y-71720852D01*
X157303381Y-71742087D01*
X157304434Y-71763528D01*
X157304434Y-72276028D01*
X157303381Y-72297469D01*
X157300231Y-72318704D01*
X157295015Y-72339528D01*
X157287783Y-72359740D01*
X157278604Y-72379146D01*
X157267568Y-72397559D01*
X157254780Y-72414802D01*
X157240364Y-72430708D01*
X157224458Y-72445124D01*
X157207215Y-72457912D01*
X157188802Y-72468948D01*
X157169396Y-72478127D01*
X157149184Y-72485359D01*
X157128360Y-72490575D01*
X157107125Y-72493725D01*
X157085684Y-72494778D01*
X156648184Y-72494778D01*
X156626743Y-72493725D01*
X156605508Y-72490575D01*
X156584684Y-72485359D01*
X156564472Y-72478127D01*
X156545066Y-72468948D01*
X156526653Y-72457912D01*
X156509410Y-72445124D01*
X156493504Y-72430708D01*
X156479088Y-72414802D01*
X156466300Y-72397559D01*
X156455264Y-72379146D01*
X156446085Y-72359740D01*
X156438853Y-72339528D01*
X156433637Y-72318704D01*
X156430487Y-72297469D01*
X156429434Y-72276028D01*
X156429434Y-71763528D01*
X156430487Y-71742087D01*
X156433637Y-71720852D01*
X156438853Y-71700028D01*
X156446085Y-71679816D01*
X156455264Y-71660410D01*
X156466300Y-71641997D01*
X156479088Y-71624754D01*
X156493504Y-71608848D01*
X156509410Y-71594432D01*
X156526653Y-71581644D01*
X156545066Y-71570608D01*
X156564472Y-71561429D01*
X156584684Y-71554197D01*
X156605508Y-71548981D01*
X156626743Y-71545831D01*
X156648184Y-71544778D01*
X157085684Y-71544778D01*
X157107125Y-71545831D01*
X157107125Y-71545831D01*
G37*
D13*
X156866934Y-72019778D03*
D12*
G36*
X155532125Y-71545831D02*
X155553360Y-71548981D01*
X155574184Y-71554197D01*
X155594396Y-71561429D01*
X155613802Y-71570608D01*
X155632215Y-71581644D01*
X155649458Y-71594432D01*
X155665364Y-71608848D01*
X155679780Y-71624754D01*
X155692568Y-71641997D01*
X155703604Y-71660410D01*
X155712783Y-71679816D01*
X155720015Y-71700028D01*
X155725231Y-71720852D01*
X155728381Y-71742087D01*
X155729434Y-71763528D01*
X155729434Y-72276028D01*
X155728381Y-72297469D01*
X155725231Y-72318704D01*
X155720015Y-72339528D01*
X155712783Y-72359740D01*
X155703604Y-72379146D01*
X155692568Y-72397559D01*
X155679780Y-72414802D01*
X155665364Y-72430708D01*
X155649458Y-72445124D01*
X155632215Y-72457912D01*
X155613802Y-72468948D01*
X155594396Y-72478127D01*
X155574184Y-72485359D01*
X155553360Y-72490575D01*
X155532125Y-72493725D01*
X155510684Y-72494778D01*
X155073184Y-72494778D01*
X155051743Y-72493725D01*
X155030508Y-72490575D01*
X155009684Y-72485359D01*
X154989472Y-72478127D01*
X154970066Y-72468948D01*
X154951653Y-72457912D01*
X154934410Y-72445124D01*
X154918504Y-72430708D01*
X154904088Y-72414802D01*
X154891300Y-72397559D01*
X154880264Y-72379146D01*
X154871085Y-72359740D01*
X154863853Y-72339528D01*
X154858637Y-72318704D01*
X154855487Y-72297469D01*
X154854434Y-72276028D01*
X154854434Y-71763528D01*
X154855487Y-71742087D01*
X154858637Y-71720852D01*
X154863853Y-71700028D01*
X154871085Y-71679816D01*
X154880264Y-71660410D01*
X154891300Y-71641997D01*
X154904088Y-71624754D01*
X154918504Y-71608848D01*
X154934410Y-71594432D01*
X154951653Y-71581644D01*
X154970066Y-71570608D01*
X154989472Y-71561429D01*
X155009684Y-71554197D01*
X155030508Y-71548981D01*
X155051743Y-71545831D01*
X155073184Y-71544778D01*
X155510684Y-71544778D01*
X155532125Y-71545831D01*
X155532125Y-71545831D01*
G37*
D13*
X155291934Y-72019778D03*
G04 #@! TD*
D12*
G04 #@! TO.C,R1*
G36*
X138207125Y-38120831D02*
X138228360Y-38123981D01*
X138249184Y-38129197D01*
X138269396Y-38136429D01*
X138288802Y-38145608D01*
X138307215Y-38156644D01*
X138324458Y-38169432D01*
X138340364Y-38183848D01*
X138354780Y-38199754D01*
X138367568Y-38216997D01*
X138378604Y-38235410D01*
X138387783Y-38254816D01*
X138395015Y-38275028D01*
X138400231Y-38295852D01*
X138403381Y-38317087D01*
X138404434Y-38338528D01*
X138404434Y-38776028D01*
X138403381Y-38797469D01*
X138400231Y-38818704D01*
X138395015Y-38839528D01*
X138387783Y-38859740D01*
X138378604Y-38879146D01*
X138367568Y-38897559D01*
X138354780Y-38914802D01*
X138340364Y-38930708D01*
X138324458Y-38945124D01*
X138307215Y-38957912D01*
X138288802Y-38968948D01*
X138269396Y-38978127D01*
X138249184Y-38985359D01*
X138228360Y-38990575D01*
X138207125Y-38993725D01*
X138185684Y-38994778D01*
X137673184Y-38994778D01*
X137651743Y-38993725D01*
X137630508Y-38990575D01*
X137609684Y-38985359D01*
X137589472Y-38978127D01*
X137570066Y-38968948D01*
X137551653Y-38957912D01*
X137534410Y-38945124D01*
X137518504Y-38930708D01*
X137504088Y-38914802D01*
X137491300Y-38897559D01*
X137480264Y-38879146D01*
X137471085Y-38859740D01*
X137463853Y-38839528D01*
X137458637Y-38818704D01*
X137455487Y-38797469D01*
X137454434Y-38776028D01*
X137454434Y-38338528D01*
X137455487Y-38317087D01*
X137458637Y-38295852D01*
X137463853Y-38275028D01*
X137471085Y-38254816D01*
X137480264Y-38235410D01*
X137491300Y-38216997D01*
X137504088Y-38199754D01*
X137518504Y-38183848D01*
X137534410Y-38169432D01*
X137551653Y-38156644D01*
X137570066Y-38145608D01*
X137589472Y-38136429D01*
X137609684Y-38129197D01*
X137630508Y-38123981D01*
X137651743Y-38120831D01*
X137673184Y-38119778D01*
X138185684Y-38119778D01*
X138207125Y-38120831D01*
X138207125Y-38120831D01*
G37*
D13*
X137929434Y-38557278D03*
D12*
G36*
X138207125Y-36545831D02*
X138228360Y-36548981D01*
X138249184Y-36554197D01*
X138269396Y-36561429D01*
X138288802Y-36570608D01*
X138307215Y-36581644D01*
X138324458Y-36594432D01*
X138340364Y-36608848D01*
X138354780Y-36624754D01*
X138367568Y-36641997D01*
X138378604Y-36660410D01*
X138387783Y-36679816D01*
X138395015Y-36700028D01*
X138400231Y-36720852D01*
X138403381Y-36742087D01*
X138404434Y-36763528D01*
X138404434Y-37201028D01*
X138403381Y-37222469D01*
X138400231Y-37243704D01*
X138395015Y-37264528D01*
X138387783Y-37284740D01*
X138378604Y-37304146D01*
X138367568Y-37322559D01*
X138354780Y-37339802D01*
X138340364Y-37355708D01*
X138324458Y-37370124D01*
X138307215Y-37382912D01*
X138288802Y-37393948D01*
X138269396Y-37403127D01*
X138249184Y-37410359D01*
X138228360Y-37415575D01*
X138207125Y-37418725D01*
X138185684Y-37419778D01*
X137673184Y-37419778D01*
X137651743Y-37418725D01*
X137630508Y-37415575D01*
X137609684Y-37410359D01*
X137589472Y-37403127D01*
X137570066Y-37393948D01*
X137551653Y-37382912D01*
X137534410Y-37370124D01*
X137518504Y-37355708D01*
X137504088Y-37339802D01*
X137491300Y-37322559D01*
X137480264Y-37304146D01*
X137471085Y-37284740D01*
X137463853Y-37264528D01*
X137458637Y-37243704D01*
X137455487Y-37222469D01*
X137454434Y-37201028D01*
X137454434Y-36763528D01*
X137455487Y-36742087D01*
X137458637Y-36720852D01*
X137463853Y-36700028D01*
X137471085Y-36679816D01*
X137480264Y-36660410D01*
X137491300Y-36641997D01*
X137504088Y-36624754D01*
X137518504Y-36608848D01*
X137534410Y-36594432D01*
X137551653Y-36581644D01*
X137570066Y-36570608D01*
X137589472Y-36561429D01*
X137609684Y-36554197D01*
X137630508Y-36548981D01*
X137651743Y-36545831D01*
X137673184Y-36544778D01*
X138185684Y-36544778D01*
X138207125Y-36545831D01*
X138207125Y-36545831D01*
G37*
D13*
X137929434Y-36982278D03*
G04 #@! TD*
D12*
G04 #@! TO.C,R13*
G36*
X114419625Y-40245831D02*
X114440860Y-40248981D01*
X114461684Y-40254197D01*
X114481896Y-40261429D01*
X114501302Y-40270608D01*
X114519715Y-40281644D01*
X114536958Y-40294432D01*
X114552864Y-40308848D01*
X114567280Y-40324754D01*
X114580068Y-40341997D01*
X114591104Y-40360410D01*
X114600283Y-40379816D01*
X114607515Y-40400028D01*
X114612731Y-40420852D01*
X114615881Y-40442087D01*
X114616934Y-40463528D01*
X114616934Y-40976028D01*
X114615881Y-40997469D01*
X114612731Y-41018704D01*
X114607515Y-41039528D01*
X114600283Y-41059740D01*
X114591104Y-41079146D01*
X114580068Y-41097559D01*
X114567280Y-41114802D01*
X114552864Y-41130708D01*
X114536958Y-41145124D01*
X114519715Y-41157912D01*
X114501302Y-41168948D01*
X114481896Y-41178127D01*
X114461684Y-41185359D01*
X114440860Y-41190575D01*
X114419625Y-41193725D01*
X114398184Y-41194778D01*
X113960684Y-41194778D01*
X113939243Y-41193725D01*
X113918008Y-41190575D01*
X113897184Y-41185359D01*
X113876972Y-41178127D01*
X113857566Y-41168948D01*
X113839153Y-41157912D01*
X113821910Y-41145124D01*
X113806004Y-41130708D01*
X113791588Y-41114802D01*
X113778800Y-41097559D01*
X113767764Y-41079146D01*
X113758585Y-41059740D01*
X113751353Y-41039528D01*
X113746137Y-41018704D01*
X113742987Y-40997469D01*
X113741934Y-40976028D01*
X113741934Y-40463528D01*
X113742987Y-40442087D01*
X113746137Y-40420852D01*
X113751353Y-40400028D01*
X113758585Y-40379816D01*
X113767764Y-40360410D01*
X113778800Y-40341997D01*
X113791588Y-40324754D01*
X113806004Y-40308848D01*
X113821910Y-40294432D01*
X113839153Y-40281644D01*
X113857566Y-40270608D01*
X113876972Y-40261429D01*
X113897184Y-40254197D01*
X113918008Y-40248981D01*
X113939243Y-40245831D01*
X113960684Y-40244778D01*
X114398184Y-40244778D01*
X114419625Y-40245831D01*
X114419625Y-40245831D01*
G37*
D13*
X114179434Y-40719778D03*
D12*
G36*
X115994625Y-40245831D02*
X116015860Y-40248981D01*
X116036684Y-40254197D01*
X116056896Y-40261429D01*
X116076302Y-40270608D01*
X116094715Y-40281644D01*
X116111958Y-40294432D01*
X116127864Y-40308848D01*
X116142280Y-40324754D01*
X116155068Y-40341997D01*
X116166104Y-40360410D01*
X116175283Y-40379816D01*
X116182515Y-40400028D01*
X116187731Y-40420852D01*
X116190881Y-40442087D01*
X116191934Y-40463528D01*
X116191934Y-40976028D01*
X116190881Y-40997469D01*
X116187731Y-41018704D01*
X116182515Y-41039528D01*
X116175283Y-41059740D01*
X116166104Y-41079146D01*
X116155068Y-41097559D01*
X116142280Y-41114802D01*
X116127864Y-41130708D01*
X116111958Y-41145124D01*
X116094715Y-41157912D01*
X116076302Y-41168948D01*
X116056896Y-41178127D01*
X116036684Y-41185359D01*
X116015860Y-41190575D01*
X115994625Y-41193725D01*
X115973184Y-41194778D01*
X115535684Y-41194778D01*
X115514243Y-41193725D01*
X115493008Y-41190575D01*
X115472184Y-41185359D01*
X115451972Y-41178127D01*
X115432566Y-41168948D01*
X115414153Y-41157912D01*
X115396910Y-41145124D01*
X115381004Y-41130708D01*
X115366588Y-41114802D01*
X115353800Y-41097559D01*
X115342764Y-41079146D01*
X115333585Y-41059740D01*
X115326353Y-41039528D01*
X115321137Y-41018704D01*
X115317987Y-40997469D01*
X115316934Y-40976028D01*
X115316934Y-40463528D01*
X115317987Y-40442087D01*
X115321137Y-40420852D01*
X115326353Y-40400028D01*
X115333585Y-40379816D01*
X115342764Y-40360410D01*
X115353800Y-40341997D01*
X115366588Y-40324754D01*
X115381004Y-40308848D01*
X115396910Y-40294432D01*
X115414153Y-40281644D01*
X115432566Y-40270608D01*
X115451972Y-40261429D01*
X115472184Y-40254197D01*
X115493008Y-40248981D01*
X115514243Y-40245831D01*
X115535684Y-40244778D01*
X115973184Y-40244778D01*
X115994625Y-40245831D01*
X115994625Y-40245831D01*
G37*
D13*
X115754434Y-40719778D03*
G04 #@! TD*
D12*
G04 #@! TO.C,R12*
G36*
X153607125Y-72295831D02*
X153628360Y-72298981D01*
X153649184Y-72304197D01*
X153669396Y-72311429D01*
X153688802Y-72320608D01*
X153707215Y-72331644D01*
X153724458Y-72344432D01*
X153740364Y-72358848D01*
X153754780Y-72374754D01*
X153767568Y-72391997D01*
X153778604Y-72410410D01*
X153787783Y-72429816D01*
X153795015Y-72450028D01*
X153800231Y-72470852D01*
X153803381Y-72492087D01*
X153804434Y-72513528D01*
X153804434Y-72951028D01*
X153803381Y-72972469D01*
X153800231Y-72993704D01*
X153795015Y-73014528D01*
X153787783Y-73034740D01*
X153778604Y-73054146D01*
X153767568Y-73072559D01*
X153754780Y-73089802D01*
X153740364Y-73105708D01*
X153724458Y-73120124D01*
X153707215Y-73132912D01*
X153688802Y-73143948D01*
X153669396Y-73153127D01*
X153649184Y-73160359D01*
X153628360Y-73165575D01*
X153607125Y-73168725D01*
X153585684Y-73169778D01*
X153073184Y-73169778D01*
X153051743Y-73168725D01*
X153030508Y-73165575D01*
X153009684Y-73160359D01*
X152989472Y-73153127D01*
X152970066Y-73143948D01*
X152951653Y-73132912D01*
X152934410Y-73120124D01*
X152918504Y-73105708D01*
X152904088Y-73089802D01*
X152891300Y-73072559D01*
X152880264Y-73054146D01*
X152871085Y-73034740D01*
X152863853Y-73014528D01*
X152858637Y-72993704D01*
X152855487Y-72972469D01*
X152854434Y-72951028D01*
X152854434Y-72513528D01*
X152855487Y-72492087D01*
X152858637Y-72470852D01*
X152863853Y-72450028D01*
X152871085Y-72429816D01*
X152880264Y-72410410D01*
X152891300Y-72391997D01*
X152904088Y-72374754D01*
X152918504Y-72358848D01*
X152934410Y-72344432D01*
X152951653Y-72331644D01*
X152970066Y-72320608D01*
X152989472Y-72311429D01*
X153009684Y-72304197D01*
X153030508Y-72298981D01*
X153051743Y-72295831D01*
X153073184Y-72294778D01*
X153585684Y-72294778D01*
X153607125Y-72295831D01*
X153607125Y-72295831D01*
G37*
D13*
X153329434Y-72732278D03*
D12*
G36*
X153607125Y-73870831D02*
X153628360Y-73873981D01*
X153649184Y-73879197D01*
X153669396Y-73886429D01*
X153688802Y-73895608D01*
X153707215Y-73906644D01*
X153724458Y-73919432D01*
X153740364Y-73933848D01*
X153754780Y-73949754D01*
X153767568Y-73966997D01*
X153778604Y-73985410D01*
X153787783Y-74004816D01*
X153795015Y-74025028D01*
X153800231Y-74045852D01*
X153803381Y-74067087D01*
X153804434Y-74088528D01*
X153804434Y-74526028D01*
X153803381Y-74547469D01*
X153800231Y-74568704D01*
X153795015Y-74589528D01*
X153787783Y-74609740D01*
X153778604Y-74629146D01*
X153767568Y-74647559D01*
X153754780Y-74664802D01*
X153740364Y-74680708D01*
X153724458Y-74695124D01*
X153707215Y-74707912D01*
X153688802Y-74718948D01*
X153669396Y-74728127D01*
X153649184Y-74735359D01*
X153628360Y-74740575D01*
X153607125Y-74743725D01*
X153585684Y-74744778D01*
X153073184Y-74744778D01*
X153051743Y-74743725D01*
X153030508Y-74740575D01*
X153009684Y-74735359D01*
X152989472Y-74728127D01*
X152970066Y-74718948D01*
X152951653Y-74707912D01*
X152934410Y-74695124D01*
X152918504Y-74680708D01*
X152904088Y-74664802D01*
X152891300Y-74647559D01*
X152880264Y-74629146D01*
X152871085Y-74609740D01*
X152863853Y-74589528D01*
X152858637Y-74568704D01*
X152855487Y-74547469D01*
X152854434Y-74526028D01*
X152854434Y-74088528D01*
X152855487Y-74067087D01*
X152858637Y-74045852D01*
X152863853Y-74025028D01*
X152871085Y-74004816D01*
X152880264Y-73985410D01*
X152891300Y-73966997D01*
X152904088Y-73949754D01*
X152918504Y-73933848D01*
X152934410Y-73919432D01*
X152951653Y-73906644D01*
X152970066Y-73895608D01*
X152989472Y-73886429D01*
X153009684Y-73879197D01*
X153030508Y-73873981D01*
X153051743Y-73870831D01*
X153073184Y-73869778D01*
X153585684Y-73869778D01*
X153607125Y-73870831D01*
X153607125Y-73870831D01*
G37*
D13*
X153329434Y-74307278D03*
G04 #@! TD*
D12*
G04 #@! TO.C,R11*
G36*
X151857125Y-73870831D02*
X151878360Y-73873981D01*
X151899184Y-73879197D01*
X151919396Y-73886429D01*
X151938802Y-73895608D01*
X151957215Y-73906644D01*
X151974458Y-73919432D01*
X151990364Y-73933848D01*
X152004780Y-73949754D01*
X152017568Y-73966997D01*
X152028604Y-73985410D01*
X152037783Y-74004816D01*
X152045015Y-74025028D01*
X152050231Y-74045852D01*
X152053381Y-74067087D01*
X152054434Y-74088528D01*
X152054434Y-74526028D01*
X152053381Y-74547469D01*
X152050231Y-74568704D01*
X152045015Y-74589528D01*
X152037783Y-74609740D01*
X152028604Y-74629146D01*
X152017568Y-74647559D01*
X152004780Y-74664802D01*
X151990364Y-74680708D01*
X151974458Y-74695124D01*
X151957215Y-74707912D01*
X151938802Y-74718948D01*
X151919396Y-74728127D01*
X151899184Y-74735359D01*
X151878360Y-74740575D01*
X151857125Y-74743725D01*
X151835684Y-74744778D01*
X151323184Y-74744778D01*
X151301743Y-74743725D01*
X151280508Y-74740575D01*
X151259684Y-74735359D01*
X151239472Y-74728127D01*
X151220066Y-74718948D01*
X151201653Y-74707912D01*
X151184410Y-74695124D01*
X151168504Y-74680708D01*
X151154088Y-74664802D01*
X151141300Y-74647559D01*
X151130264Y-74629146D01*
X151121085Y-74609740D01*
X151113853Y-74589528D01*
X151108637Y-74568704D01*
X151105487Y-74547469D01*
X151104434Y-74526028D01*
X151104434Y-74088528D01*
X151105487Y-74067087D01*
X151108637Y-74045852D01*
X151113853Y-74025028D01*
X151121085Y-74004816D01*
X151130264Y-73985410D01*
X151141300Y-73966997D01*
X151154088Y-73949754D01*
X151168504Y-73933848D01*
X151184410Y-73919432D01*
X151201653Y-73906644D01*
X151220066Y-73895608D01*
X151239472Y-73886429D01*
X151259684Y-73879197D01*
X151280508Y-73873981D01*
X151301743Y-73870831D01*
X151323184Y-73869778D01*
X151835684Y-73869778D01*
X151857125Y-73870831D01*
X151857125Y-73870831D01*
G37*
D13*
X151579434Y-74307278D03*
D12*
G36*
X151857125Y-72295831D02*
X151878360Y-72298981D01*
X151899184Y-72304197D01*
X151919396Y-72311429D01*
X151938802Y-72320608D01*
X151957215Y-72331644D01*
X151974458Y-72344432D01*
X151990364Y-72358848D01*
X152004780Y-72374754D01*
X152017568Y-72391997D01*
X152028604Y-72410410D01*
X152037783Y-72429816D01*
X152045015Y-72450028D01*
X152050231Y-72470852D01*
X152053381Y-72492087D01*
X152054434Y-72513528D01*
X152054434Y-72951028D01*
X152053381Y-72972469D01*
X152050231Y-72993704D01*
X152045015Y-73014528D01*
X152037783Y-73034740D01*
X152028604Y-73054146D01*
X152017568Y-73072559D01*
X152004780Y-73089802D01*
X151990364Y-73105708D01*
X151974458Y-73120124D01*
X151957215Y-73132912D01*
X151938802Y-73143948D01*
X151919396Y-73153127D01*
X151899184Y-73160359D01*
X151878360Y-73165575D01*
X151857125Y-73168725D01*
X151835684Y-73169778D01*
X151323184Y-73169778D01*
X151301743Y-73168725D01*
X151280508Y-73165575D01*
X151259684Y-73160359D01*
X151239472Y-73153127D01*
X151220066Y-73143948D01*
X151201653Y-73132912D01*
X151184410Y-73120124D01*
X151168504Y-73105708D01*
X151154088Y-73089802D01*
X151141300Y-73072559D01*
X151130264Y-73054146D01*
X151121085Y-73034740D01*
X151113853Y-73014528D01*
X151108637Y-72993704D01*
X151105487Y-72972469D01*
X151104434Y-72951028D01*
X151104434Y-72513528D01*
X151105487Y-72492087D01*
X151108637Y-72470852D01*
X151113853Y-72450028D01*
X151121085Y-72429816D01*
X151130264Y-72410410D01*
X151141300Y-72391997D01*
X151154088Y-72374754D01*
X151168504Y-72358848D01*
X151184410Y-72344432D01*
X151201653Y-72331644D01*
X151220066Y-72320608D01*
X151239472Y-72311429D01*
X151259684Y-72304197D01*
X151280508Y-72298981D01*
X151301743Y-72295831D01*
X151323184Y-72294778D01*
X151835684Y-72294778D01*
X151857125Y-72295831D01*
X151857125Y-72295831D01*
G37*
D13*
X151579434Y-72732278D03*
G04 #@! TD*
D12*
G04 #@! TO.C,R9*
G36*
X153419625Y-88435831D02*
X153440860Y-88438981D01*
X153461684Y-88444197D01*
X153481896Y-88451429D01*
X153501302Y-88460608D01*
X153519715Y-88471644D01*
X153536958Y-88484432D01*
X153552864Y-88498848D01*
X153567280Y-88514754D01*
X153580068Y-88531997D01*
X153591104Y-88550410D01*
X153600283Y-88569816D01*
X153607515Y-88590028D01*
X153612731Y-88610852D01*
X153615881Y-88632087D01*
X153616934Y-88653528D01*
X153616934Y-89166028D01*
X153615881Y-89187469D01*
X153612731Y-89208704D01*
X153607515Y-89229528D01*
X153600283Y-89249740D01*
X153591104Y-89269146D01*
X153580068Y-89287559D01*
X153567280Y-89304802D01*
X153552864Y-89320708D01*
X153536958Y-89335124D01*
X153519715Y-89347912D01*
X153501302Y-89358948D01*
X153481896Y-89368127D01*
X153461684Y-89375359D01*
X153440860Y-89380575D01*
X153419625Y-89383725D01*
X153398184Y-89384778D01*
X152960684Y-89384778D01*
X152939243Y-89383725D01*
X152918008Y-89380575D01*
X152897184Y-89375359D01*
X152876972Y-89368127D01*
X152857566Y-89358948D01*
X152839153Y-89347912D01*
X152821910Y-89335124D01*
X152806004Y-89320708D01*
X152791588Y-89304802D01*
X152778800Y-89287559D01*
X152767764Y-89269146D01*
X152758585Y-89249740D01*
X152751353Y-89229528D01*
X152746137Y-89208704D01*
X152742987Y-89187469D01*
X152741934Y-89166028D01*
X152741934Y-88653528D01*
X152742987Y-88632087D01*
X152746137Y-88610852D01*
X152751353Y-88590028D01*
X152758585Y-88569816D01*
X152767764Y-88550410D01*
X152778800Y-88531997D01*
X152791588Y-88514754D01*
X152806004Y-88498848D01*
X152821910Y-88484432D01*
X152839153Y-88471644D01*
X152857566Y-88460608D01*
X152876972Y-88451429D01*
X152897184Y-88444197D01*
X152918008Y-88438981D01*
X152939243Y-88435831D01*
X152960684Y-88434778D01*
X153398184Y-88434778D01*
X153419625Y-88435831D01*
X153419625Y-88435831D01*
G37*
D13*
X153179434Y-88909778D03*
D12*
G36*
X154994625Y-88435831D02*
X155015860Y-88438981D01*
X155036684Y-88444197D01*
X155056896Y-88451429D01*
X155076302Y-88460608D01*
X155094715Y-88471644D01*
X155111958Y-88484432D01*
X155127864Y-88498848D01*
X155142280Y-88514754D01*
X155155068Y-88531997D01*
X155166104Y-88550410D01*
X155175283Y-88569816D01*
X155182515Y-88590028D01*
X155187731Y-88610852D01*
X155190881Y-88632087D01*
X155191934Y-88653528D01*
X155191934Y-89166028D01*
X155190881Y-89187469D01*
X155187731Y-89208704D01*
X155182515Y-89229528D01*
X155175283Y-89249740D01*
X155166104Y-89269146D01*
X155155068Y-89287559D01*
X155142280Y-89304802D01*
X155127864Y-89320708D01*
X155111958Y-89335124D01*
X155094715Y-89347912D01*
X155076302Y-89358948D01*
X155056896Y-89368127D01*
X155036684Y-89375359D01*
X155015860Y-89380575D01*
X154994625Y-89383725D01*
X154973184Y-89384778D01*
X154535684Y-89384778D01*
X154514243Y-89383725D01*
X154493008Y-89380575D01*
X154472184Y-89375359D01*
X154451972Y-89368127D01*
X154432566Y-89358948D01*
X154414153Y-89347912D01*
X154396910Y-89335124D01*
X154381004Y-89320708D01*
X154366588Y-89304802D01*
X154353800Y-89287559D01*
X154342764Y-89269146D01*
X154333585Y-89249740D01*
X154326353Y-89229528D01*
X154321137Y-89208704D01*
X154317987Y-89187469D01*
X154316934Y-89166028D01*
X154316934Y-88653528D01*
X154317987Y-88632087D01*
X154321137Y-88610852D01*
X154326353Y-88590028D01*
X154333585Y-88569816D01*
X154342764Y-88550410D01*
X154353800Y-88531997D01*
X154366588Y-88514754D01*
X154381004Y-88498848D01*
X154396910Y-88484432D01*
X154414153Y-88471644D01*
X154432566Y-88460608D01*
X154451972Y-88451429D01*
X154472184Y-88444197D01*
X154493008Y-88438981D01*
X154514243Y-88435831D01*
X154535684Y-88434778D01*
X154973184Y-88434778D01*
X154994625Y-88435831D01*
X154994625Y-88435831D01*
G37*
D13*
X154754434Y-88909778D03*
G04 #@! TD*
D12*
G04 #@! TO.C,R8*
G36*
X162107125Y-72295831D02*
X162128360Y-72298981D01*
X162149184Y-72304197D01*
X162169396Y-72311429D01*
X162188802Y-72320608D01*
X162207215Y-72331644D01*
X162224458Y-72344432D01*
X162240364Y-72358848D01*
X162254780Y-72374754D01*
X162267568Y-72391997D01*
X162278604Y-72410410D01*
X162287783Y-72429816D01*
X162295015Y-72450028D01*
X162300231Y-72470852D01*
X162303381Y-72492087D01*
X162304434Y-72513528D01*
X162304434Y-73026028D01*
X162303381Y-73047469D01*
X162300231Y-73068704D01*
X162295015Y-73089528D01*
X162287783Y-73109740D01*
X162278604Y-73129146D01*
X162267568Y-73147559D01*
X162254780Y-73164802D01*
X162240364Y-73180708D01*
X162224458Y-73195124D01*
X162207215Y-73207912D01*
X162188802Y-73218948D01*
X162169396Y-73228127D01*
X162149184Y-73235359D01*
X162128360Y-73240575D01*
X162107125Y-73243725D01*
X162085684Y-73244778D01*
X161648184Y-73244778D01*
X161626743Y-73243725D01*
X161605508Y-73240575D01*
X161584684Y-73235359D01*
X161564472Y-73228127D01*
X161545066Y-73218948D01*
X161526653Y-73207912D01*
X161509410Y-73195124D01*
X161493504Y-73180708D01*
X161479088Y-73164802D01*
X161466300Y-73147559D01*
X161455264Y-73129146D01*
X161446085Y-73109740D01*
X161438853Y-73089528D01*
X161433637Y-73068704D01*
X161430487Y-73047469D01*
X161429434Y-73026028D01*
X161429434Y-72513528D01*
X161430487Y-72492087D01*
X161433637Y-72470852D01*
X161438853Y-72450028D01*
X161446085Y-72429816D01*
X161455264Y-72410410D01*
X161466300Y-72391997D01*
X161479088Y-72374754D01*
X161493504Y-72358848D01*
X161509410Y-72344432D01*
X161526653Y-72331644D01*
X161545066Y-72320608D01*
X161564472Y-72311429D01*
X161584684Y-72304197D01*
X161605508Y-72298981D01*
X161626743Y-72295831D01*
X161648184Y-72294778D01*
X162085684Y-72294778D01*
X162107125Y-72295831D01*
X162107125Y-72295831D01*
G37*
D13*
X161866934Y-72769778D03*
D12*
G36*
X160532125Y-72295831D02*
X160553360Y-72298981D01*
X160574184Y-72304197D01*
X160594396Y-72311429D01*
X160613802Y-72320608D01*
X160632215Y-72331644D01*
X160649458Y-72344432D01*
X160665364Y-72358848D01*
X160679780Y-72374754D01*
X160692568Y-72391997D01*
X160703604Y-72410410D01*
X160712783Y-72429816D01*
X160720015Y-72450028D01*
X160725231Y-72470852D01*
X160728381Y-72492087D01*
X160729434Y-72513528D01*
X160729434Y-73026028D01*
X160728381Y-73047469D01*
X160725231Y-73068704D01*
X160720015Y-73089528D01*
X160712783Y-73109740D01*
X160703604Y-73129146D01*
X160692568Y-73147559D01*
X160679780Y-73164802D01*
X160665364Y-73180708D01*
X160649458Y-73195124D01*
X160632215Y-73207912D01*
X160613802Y-73218948D01*
X160594396Y-73228127D01*
X160574184Y-73235359D01*
X160553360Y-73240575D01*
X160532125Y-73243725D01*
X160510684Y-73244778D01*
X160073184Y-73244778D01*
X160051743Y-73243725D01*
X160030508Y-73240575D01*
X160009684Y-73235359D01*
X159989472Y-73228127D01*
X159970066Y-73218948D01*
X159951653Y-73207912D01*
X159934410Y-73195124D01*
X159918504Y-73180708D01*
X159904088Y-73164802D01*
X159891300Y-73147559D01*
X159880264Y-73129146D01*
X159871085Y-73109740D01*
X159863853Y-73089528D01*
X159858637Y-73068704D01*
X159855487Y-73047469D01*
X159854434Y-73026028D01*
X159854434Y-72513528D01*
X159855487Y-72492087D01*
X159858637Y-72470852D01*
X159863853Y-72450028D01*
X159871085Y-72429816D01*
X159880264Y-72410410D01*
X159891300Y-72391997D01*
X159904088Y-72374754D01*
X159918504Y-72358848D01*
X159934410Y-72344432D01*
X159951653Y-72331644D01*
X159970066Y-72320608D01*
X159989472Y-72311429D01*
X160009684Y-72304197D01*
X160030508Y-72298981D01*
X160051743Y-72295831D01*
X160073184Y-72294778D01*
X160510684Y-72294778D01*
X160532125Y-72295831D01*
X160532125Y-72295831D01*
G37*
D13*
X160291934Y-72769778D03*
G04 #@! TD*
D12*
G04 #@! TO.C,R7*
G36*
X160532125Y-74295831D02*
X160553360Y-74298981D01*
X160574184Y-74304197D01*
X160594396Y-74311429D01*
X160613802Y-74320608D01*
X160632215Y-74331644D01*
X160649458Y-74344432D01*
X160665364Y-74358848D01*
X160679780Y-74374754D01*
X160692568Y-74391997D01*
X160703604Y-74410410D01*
X160712783Y-74429816D01*
X160720015Y-74450028D01*
X160725231Y-74470852D01*
X160728381Y-74492087D01*
X160729434Y-74513528D01*
X160729434Y-75026028D01*
X160728381Y-75047469D01*
X160725231Y-75068704D01*
X160720015Y-75089528D01*
X160712783Y-75109740D01*
X160703604Y-75129146D01*
X160692568Y-75147559D01*
X160679780Y-75164802D01*
X160665364Y-75180708D01*
X160649458Y-75195124D01*
X160632215Y-75207912D01*
X160613802Y-75218948D01*
X160594396Y-75228127D01*
X160574184Y-75235359D01*
X160553360Y-75240575D01*
X160532125Y-75243725D01*
X160510684Y-75244778D01*
X160073184Y-75244778D01*
X160051743Y-75243725D01*
X160030508Y-75240575D01*
X160009684Y-75235359D01*
X159989472Y-75228127D01*
X159970066Y-75218948D01*
X159951653Y-75207912D01*
X159934410Y-75195124D01*
X159918504Y-75180708D01*
X159904088Y-75164802D01*
X159891300Y-75147559D01*
X159880264Y-75129146D01*
X159871085Y-75109740D01*
X159863853Y-75089528D01*
X159858637Y-75068704D01*
X159855487Y-75047469D01*
X159854434Y-75026028D01*
X159854434Y-74513528D01*
X159855487Y-74492087D01*
X159858637Y-74470852D01*
X159863853Y-74450028D01*
X159871085Y-74429816D01*
X159880264Y-74410410D01*
X159891300Y-74391997D01*
X159904088Y-74374754D01*
X159918504Y-74358848D01*
X159934410Y-74344432D01*
X159951653Y-74331644D01*
X159970066Y-74320608D01*
X159989472Y-74311429D01*
X160009684Y-74304197D01*
X160030508Y-74298981D01*
X160051743Y-74295831D01*
X160073184Y-74294778D01*
X160510684Y-74294778D01*
X160532125Y-74295831D01*
X160532125Y-74295831D01*
G37*
D13*
X160291934Y-74769778D03*
D12*
G36*
X162107125Y-74295831D02*
X162128360Y-74298981D01*
X162149184Y-74304197D01*
X162169396Y-74311429D01*
X162188802Y-74320608D01*
X162207215Y-74331644D01*
X162224458Y-74344432D01*
X162240364Y-74358848D01*
X162254780Y-74374754D01*
X162267568Y-74391997D01*
X162278604Y-74410410D01*
X162287783Y-74429816D01*
X162295015Y-74450028D01*
X162300231Y-74470852D01*
X162303381Y-74492087D01*
X162304434Y-74513528D01*
X162304434Y-75026028D01*
X162303381Y-75047469D01*
X162300231Y-75068704D01*
X162295015Y-75089528D01*
X162287783Y-75109740D01*
X162278604Y-75129146D01*
X162267568Y-75147559D01*
X162254780Y-75164802D01*
X162240364Y-75180708D01*
X162224458Y-75195124D01*
X162207215Y-75207912D01*
X162188802Y-75218948D01*
X162169396Y-75228127D01*
X162149184Y-75235359D01*
X162128360Y-75240575D01*
X162107125Y-75243725D01*
X162085684Y-75244778D01*
X161648184Y-75244778D01*
X161626743Y-75243725D01*
X161605508Y-75240575D01*
X161584684Y-75235359D01*
X161564472Y-75228127D01*
X161545066Y-75218948D01*
X161526653Y-75207912D01*
X161509410Y-75195124D01*
X161493504Y-75180708D01*
X161479088Y-75164802D01*
X161466300Y-75147559D01*
X161455264Y-75129146D01*
X161446085Y-75109740D01*
X161438853Y-75089528D01*
X161433637Y-75068704D01*
X161430487Y-75047469D01*
X161429434Y-75026028D01*
X161429434Y-74513528D01*
X161430487Y-74492087D01*
X161433637Y-74470852D01*
X161438853Y-74450028D01*
X161446085Y-74429816D01*
X161455264Y-74410410D01*
X161466300Y-74391997D01*
X161479088Y-74374754D01*
X161493504Y-74358848D01*
X161509410Y-74344432D01*
X161526653Y-74331644D01*
X161545066Y-74320608D01*
X161564472Y-74311429D01*
X161584684Y-74304197D01*
X161605508Y-74298981D01*
X161626743Y-74295831D01*
X161648184Y-74294778D01*
X162085684Y-74294778D01*
X162107125Y-74295831D01*
X162107125Y-74295831D01*
G37*
D13*
X161866934Y-74769778D03*
G04 #@! TD*
D12*
G04 #@! TO.C,R6*
G36*
X136207125Y-36545831D02*
X136228360Y-36548981D01*
X136249184Y-36554197D01*
X136269396Y-36561429D01*
X136288802Y-36570608D01*
X136307215Y-36581644D01*
X136324458Y-36594432D01*
X136340364Y-36608848D01*
X136354780Y-36624754D01*
X136367568Y-36641997D01*
X136378604Y-36660410D01*
X136387783Y-36679816D01*
X136395015Y-36700028D01*
X136400231Y-36720852D01*
X136403381Y-36742087D01*
X136404434Y-36763528D01*
X136404434Y-37201028D01*
X136403381Y-37222469D01*
X136400231Y-37243704D01*
X136395015Y-37264528D01*
X136387783Y-37284740D01*
X136378604Y-37304146D01*
X136367568Y-37322559D01*
X136354780Y-37339802D01*
X136340364Y-37355708D01*
X136324458Y-37370124D01*
X136307215Y-37382912D01*
X136288802Y-37393948D01*
X136269396Y-37403127D01*
X136249184Y-37410359D01*
X136228360Y-37415575D01*
X136207125Y-37418725D01*
X136185684Y-37419778D01*
X135673184Y-37419778D01*
X135651743Y-37418725D01*
X135630508Y-37415575D01*
X135609684Y-37410359D01*
X135589472Y-37403127D01*
X135570066Y-37393948D01*
X135551653Y-37382912D01*
X135534410Y-37370124D01*
X135518504Y-37355708D01*
X135504088Y-37339802D01*
X135491300Y-37322559D01*
X135480264Y-37304146D01*
X135471085Y-37284740D01*
X135463853Y-37264528D01*
X135458637Y-37243704D01*
X135455487Y-37222469D01*
X135454434Y-37201028D01*
X135454434Y-36763528D01*
X135455487Y-36742087D01*
X135458637Y-36720852D01*
X135463853Y-36700028D01*
X135471085Y-36679816D01*
X135480264Y-36660410D01*
X135491300Y-36641997D01*
X135504088Y-36624754D01*
X135518504Y-36608848D01*
X135534410Y-36594432D01*
X135551653Y-36581644D01*
X135570066Y-36570608D01*
X135589472Y-36561429D01*
X135609684Y-36554197D01*
X135630508Y-36548981D01*
X135651743Y-36545831D01*
X135673184Y-36544778D01*
X136185684Y-36544778D01*
X136207125Y-36545831D01*
X136207125Y-36545831D01*
G37*
D13*
X135929434Y-36982278D03*
D12*
G36*
X136207125Y-38120831D02*
X136228360Y-38123981D01*
X136249184Y-38129197D01*
X136269396Y-38136429D01*
X136288802Y-38145608D01*
X136307215Y-38156644D01*
X136324458Y-38169432D01*
X136340364Y-38183848D01*
X136354780Y-38199754D01*
X136367568Y-38216997D01*
X136378604Y-38235410D01*
X136387783Y-38254816D01*
X136395015Y-38275028D01*
X136400231Y-38295852D01*
X136403381Y-38317087D01*
X136404434Y-38338528D01*
X136404434Y-38776028D01*
X136403381Y-38797469D01*
X136400231Y-38818704D01*
X136395015Y-38839528D01*
X136387783Y-38859740D01*
X136378604Y-38879146D01*
X136367568Y-38897559D01*
X136354780Y-38914802D01*
X136340364Y-38930708D01*
X136324458Y-38945124D01*
X136307215Y-38957912D01*
X136288802Y-38968948D01*
X136269396Y-38978127D01*
X136249184Y-38985359D01*
X136228360Y-38990575D01*
X136207125Y-38993725D01*
X136185684Y-38994778D01*
X135673184Y-38994778D01*
X135651743Y-38993725D01*
X135630508Y-38990575D01*
X135609684Y-38985359D01*
X135589472Y-38978127D01*
X135570066Y-38968948D01*
X135551653Y-38957912D01*
X135534410Y-38945124D01*
X135518504Y-38930708D01*
X135504088Y-38914802D01*
X135491300Y-38897559D01*
X135480264Y-38879146D01*
X135471085Y-38859740D01*
X135463853Y-38839528D01*
X135458637Y-38818704D01*
X135455487Y-38797469D01*
X135454434Y-38776028D01*
X135454434Y-38338528D01*
X135455487Y-38317087D01*
X135458637Y-38295852D01*
X135463853Y-38275028D01*
X135471085Y-38254816D01*
X135480264Y-38235410D01*
X135491300Y-38216997D01*
X135504088Y-38199754D01*
X135518504Y-38183848D01*
X135534410Y-38169432D01*
X135551653Y-38156644D01*
X135570066Y-38145608D01*
X135589472Y-38136429D01*
X135609684Y-38129197D01*
X135630508Y-38123981D01*
X135651743Y-38120831D01*
X135673184Y-38119778D01*
X136185684Y-38119778D01*
X136207125Y-38120831D01*
X136207125Y-38120831D01*
G37*
D13*
X135929434Y-38557278D03*
G04 #@! TD*
D12*
G04 #@! TO.C,R5*
G36*
X132707125Y-33245831D02*
X132728360Y-33248981D01*
X132749184Y-33254197D01*
X132769396Y-33261429D01*
X132788802Y-33270608D01*
X132807215Y-33281644D01*
X132824458Y-33294432D01*
X132840364Y-33308848D01*
X132854780Y-33324754D01*
X132867568Y-33341997D01*
X132878604Y-33360410D01*
X132887783Y-33379816D01*
X132895015Y-33400028D01*
X132900231Y-33420852D01*
X132903381Y-33442087D01*
X132904434Y-33463528D01*
X132904434Y-33901028D01*
X132903381Y-33922469D01*
X132900231Y-33943704D01*
X132895015Y-33964528D01*
X132887783Y-33984740D01*
X132878604Y-34004146D01*
X132867568Y-34022559D01*
X132854780Y-34039802D01*
X132840364Y-34055708D01*
X132824458Y-34070124D01*
X132807215Y-34082912D01*
X132788802Y-34093948D01*
X132769396Y-34103127D01*
X132749184Y-34110359D01*
X132728360Y-34115575D01*
X132707125Y-34118725D01*
X132685684Y-34119778D01*
X132173184Y-34119778D01*
X132151743Y-34118725D01*
X132130508Y-34115575D01*
X132109684Y-34110359D01*
X132089472Y-34103127D01*
X132070066Y-34093948D01*
X132051653Y-34082912D01*
X132034410Y-34070124D01*
X132018504Y-34055708D01*
X132004088Y-34039802D01*
X131991300Y-34022559D01*
X131980264Y-34004146D01*
X131971085Y-33984740D01*
X131963853Y-33964528D01*
X131958637Y-33943704D01*
X131955487Y-33922469D01*
X131954434Y-33901028D01*
X131954434Y-33463528D01*
X131955487Y-33442087D01*
X131958637Y-33420852D01*
X131963853Y-33400028D01*
X131971085Y-33379816D01*
X131980264Y-33360410D01*
X131991300Y-33341997D01*
X132004088Y-33324754D01*
X132018504Y-33308848D01*
X132034410Y-33294432D01*
X132051653Y-33281644D01*
X132070066Y-33270608D01*
X132089472Y-33261429D01*
X132109684Y-33254197D01*
X132130508Y-33248981D01*
X132151743Y-33245831D01*
X132173184Y-33244778D01*
X132685684Y-33244778D01*
X132707125Y-33245831D01*
X132707125Y-33245831D01*
G37*
D13*
X132429434Y-33682278D03*
D12*
G36*
X132707125Y-34820831D02*
X132728360Y-34823981D01*
X132749184Y-34829197D01*
X132769396Y-34836429D01*
X132788802Y-34845608D01*
X132807215Y-34856644D01*
X132824458Y-34869432D01*
X132840364Y-34883848D01*
X132854780Y-34899754D01*
X132867568Y-34916997D01*
X132878604Y-34935410D01*
X132887783Y-34954816D01*
X132895015Y-34975028D01*
X132900231Y-34995852D01*
X132903381Y-35017087D01*
X132904434Y-35038528D01*
X132904434Y-35476028D01*
X132903381Y-35497469D01*
X132900231Y-35518704D01*
X132895015Y-35539528D01*
X132887783Y-35559740D01*
X132878604Y-35579146D01*
X132867568Y-35597559D01*
X132854780Y-35614802D01*
X132840364Y-35630708D01*
X132824458Y-35645124D01*
X132807215Y-35657912D01*
X132788802Y-35668948D01*
X132769396Y-35678127D01*
X132749184Y-35685359D01*
X132728360Y-35690575D01*
X132707125Y-35693725D01*
X132685684Y-35694778D01*
X132173184Y-35694778D01*
X132151743Y-35693725D01*
X132130508Y-35690575D01*
X132109684Y-35685359D01*
X132089472Y-35678127D01*
X132070066Y-35668948D01*
X132051653Y-35657912D01*
X132034410Y-35645124D01*
X132018504Y-35630708D01*
X132004088Y-35614802D01*
X131991300Y-35597559D01*
X131980264Y-35579146D01*
X131971085Y-35559740D01*
X131963853Y-35539528D01*
X131958637Y-35518704D01*
X131955487Y-35497469D01*
X131954434Y-35476028D01*
X131954434Y-35038528D01*
X131955487Y-35017087D01*
X131958637Y-34995852D01*
X131963853Y-34975028D01*
X131971085Y-34954816D01*
X131980264Y-34935410D01*
X131991300Y-34916997D01*
X132004088Y-34899754D01*
X132018504Y-34883848D01*
X132034410Y-34869432D01*
X132051653Y-34856644D01*
X132070066Y-34845608D01*
X132089472Y-34836429D01*
X132109684Y-34829197D01*
X132130508Y-34823981D01*
X132151743Y-34820831D01*
X132173184Y-34819778D01*
X132685684Y-34819778D01*
X132707125Y-34820831D01*
X132707125Y-34820831D01*
G37*
D13*
X132429434Y-35257278D03*
G04 #@! TD*
D12*
G04 #@! TO.C,R4*
G36*
X129957125Y-34820831D02*
X129978360Y-34823981D01*
X129999184Y-34829197D01*
X130019396Y-34836429D01*
X130038802Y-34845608D01*
X130057215Y-34856644D01*
X130074458Y-34869432D01*
X130090364Y-34883848D01*
X130104780Y-34899754D01*
X130117568Y-34916997D01*
X130128604Y-34935410D01*
X130137783Y-34954816D01*
X130145015Y-34975028D01*
X130150231Y-34995852D01*
X130153381Y-35017087D01*
X130154434Y-35038528D01*
X130154434Y-35476028D01*
X130153381Y-35497469D01*
X130150231Y-35518704D01*
X130145015Y-35539528D01*
X130137783Y-35559740D01*
X130128604Y-35579146D01*
X130117568Y-35597559D01*
X130104780Y-35614802D01*
X130090364Y-35630708D01*
X130074458Y-35645124D01*
X130057215Y-35657912D01*
X130038802Y-35668948D01*
X130019396Y-35678127D01*
X129999184Y-35685359D01*
X129978360Y-35690575D01*
X129957125Y-35693725D01*
X129935684Y-35694778D01*
X129423184Y-35694778D01*
X129401743Y-35693725D01*
X129380508Y-35690575D01*
X129359684Y-35685359D01*
X129339472Y-35678127D01*
X129320066Y-35668948D01*
X129301653Y-35657912D01*
X129284410Y-35645124D01*
X129268504Y-35630708D01*
X129254088Y-35614802D01*
X129241300Y-35597559D01*
X129230264Y-35579146D01*
X129221085Y-35559740D01*
X129213853Y-35539528D01*
X129208637Y-35518704D01*
X129205487Y-35497469D01*
X129204434Y-35476028D01*
X129204434Y-35038528D01*
X129205487Y-35017087D01*
X129208637Y-34995852D01*
X129213853Y-34975028D01*
X129221085Y-34954816D01*
X129230264Y-34935410D01*
X129241300Y-34916997D01*
X129254088Y-34899754D01*
X129268504Y-34883848D01*
X129284410Y-34869432D01*
X129301653Y-34856644D01*
X129320066Y-34845608D01*
X129339472Y-34836429D01*
X129359684Y-34829197D01*
X129380508Y-34823981D01*
X129401743Y-34820831D01*
X129423184Y-34819778D01*
X129935684Y-34819778D01*
X129957125Y-34820831D01*
X129957125Y-34820831D01*
G37*
D13*
X129679434Y-35257278D03*
D12*
G36*
X129957125Y-33245831D02*
X129978360Y-33248981D01*
X129999184Y-33254197D01*
X130019396Y-33261429D01*
X130038802Y-33270608D01*
X130057215Y-33281644D01*
X130074458Y-33294432D01*
X130090364Y-33308848D01*
X130104780Y-33324754D01*
X130117568Y-33341997D01*
X130128604Y-33360410D01*
X130137783Y-33379816D01*
X130145015Y-33400028D01*
X130150231Y-33420852D01*
X130153381Y-33442087D01*
X130154434Y-33463528D01*
X130154434Y-33901028D01*
X130153381Y-33922469D01*
X130150231Y-33943704D01*
X130145015Y-33964528D01*
X130137783Y-33984740D01*
X130128604Y-34004146D01*
X130117568Y-34022559D01*
X130104780Y-34039802D01*
X130090364Y-34055708D01*
X130074458Y-34070124D01*
X130057215Y-34082912D01*
X130038802Y-34093948D01*
X130019396Y-34103127D01*
X129999184Y-34110359D01*
X129978360Y-34115575D01*
X129957125Y-34118725D01*
X129935684Y-34119778D01*
X129423184Y-34119778D01*
X129401743Y-34118725D01*
X129380508Y-34115575D01*
X129359684Y-34110359D01*
X129339472Y-34103127D01*
X129320066Y-34093948D01*
X129301653Y-34082912D01*
X129284410Y-34070124D01*
X129268504Y-34055708D01*
X129254088Y-34039802D01*
X129241300Y-34022559D01*
X129230264Y-34004146D01*
X129221085Y-33984740D01*
X129213853Y-33964528D01*
X129208637Y-33943704D01*
X129205487Y-33922469D01*
X129204434Y-33901028D01*
X129204434Y-33463528D01*
X129205487Y-33442087D01*
X129208637Y-33420852D01*
X129213853Y-33400028D01*
X129221085Y-33379816D01*
X129230264Y-33360410D01*
X129241300Y-33341997D01*
X129254088Y-33324754D01*
X129268504Y-33308848D01*
X129284410Y-33294432D01*
X129301653Y-33281644D01*
X129320066Y-33270608D01*
X129339472Y-33261429D01*
X129359684Y-33254197D01*
X129380508Y-33248981D01*
X129401743Y-33245831D01*
X129423184Y-33244778D01*
X129935684Y-33244778D01*
X129957125Y-33245831D01*
X129957125Y-33245831D01*
G37*
D13*
X129679434Y-33682278D03*
G04 #@! TD*
D12*
G04 #@! TO.C,R3*
G36*
X127207125Y-33245831D02*
X127228360Y-33248981D01*
X127249184Y-33254197D01*
X127269396Y-33261429D01*
X127288802Y-33270608D01*
X127307215Y-33281644D01*
X127324458Y-33294432D01*
X127340364Y-33308848D01*
X127354780Y-33324754D01*
X127367568Y-33341997D01*
X127378604Y-33360410D01*
X127387783Y-33379816D01*
X127395015Y-33400028D01*
X127400231Y-33420852D01*
X127403381Y-33442087D01*
X127404434Y-33463528D01*
X127404434Y-33901028D01*
X127403381Y-33922469D01*
X127400231Y-33943704D01*
X127395015Y-33964528D01*
X127387783Y-33984740D01*
X127378604Y-34004146D01*
X127367568Y-34022559D01*
X127354780Y-34039802D01*
X127340364Y-34055708D01*
X127324458Y-34070124D01*
X127307215Y-34082912D01*
X127288802Y-34093948D01*
X127269396Y-34103127D01*
X127249184Y-34110359D01*
X127228360Y-34115575D01*
X127207125Y-34118725D01*
X127185684Y-34119778D01*
X126673184Y-34119778D01*
X126651743Y-34118725D01*
X126630508Y-34115575D01*
X126609684Y-34110359D01*
X126589472Y-34103127D01*
X126570066Y-34093948D01*
X126551653Y-34082912D01*
X126534410Y-34070124D01*
X126518504Y-34055708D01*
X126504088Y-34039802D01*
X126491300Y-34022559D01*
X126480264Y-34004146D01*
X126471085Y-33984740D01*
X126463853Y-33964528D01*
X126458637Y-33943704D01*
X126455487Y-33922469D01*
X126454434Y-33901028D01*
X126454434Y-33463528D01*
X126455487Y-33442087D01*
X126458637Y-33420852D01*
X126463853Y-33400028D01*
X126471085Y-33379816D01*
X126480264Y-33360410D01*
X126491300Y-33341997D01*
X126504088Y-33324754D01*
X126518504Y-33308848D01*
X126534410Y-33294432D01*
X126551653Y-33281644D01*
X126570066Y-33270608D01*
X126589472Y-33261429D01*
X126609684Y-33254197D01*
X126630508Y-33248981D01*
X126651743Y-33245831D01*
X126673184Y-33244778D01*
X127185684Y-33244778D01*
X127207125Y-33245831D01*
X127207125Y-33245831D01*
G37*
D13*
X126929434Y-33682278D03*
D12*
G36*
X127207125Y-34820831D02*
X127228360Y-34823981D01*
X127249184Y-34829197D01*
X127269396Y-34836429D01*
X127288802Y-34845608D01*
X127307215Y-34856644D01*
X127324458Y-34869432D01*
X127340364Y-34883848D01*
X127354780Y-34899754D01*
X127367568Y-34916997D01*
X127378604Y-34935410D01*
X127387783Y-34954816D01*
X127395015Y-34975028D01*
X127400231Y-34995852D01*
X127403381Y-35017087D01*
X127404434Y-35038528D01*
X127404434Y-35476028D01*
X127403381Y-35497469D01*
X127400231Y-35518704D01*
X127395015Y-35539528D01*
X127387783Y-35559740D01*
X127378604Y-35579146D01*
X127367568Y-35597559D01*
X127354780Y-35614802D01*
X127340364Y-35630708D01*
X127324458Y-35645124D01*
X127307215Y-35657912D01*
X127288802Y-35668948D01*
X127269396Y-35678127D01*
X127249184Y-35685359D01*
X127228360Y-35690575D01*
X127207125Y-35693725D01*
X127185684Y-35694778D01*
X126673184Y-35694778D01*
X126651743Y-35693725D01*
X126630508Y-35690575D01*
X126609684Y-35685359D01*
X126589472Y-35678127D01*
X126570066Y-35668948D01*
X126551653Y-35657912D01*
X126534410Y-35645124D01*
X126518504Y-35630708D01*
X126504088Y-35614802D01*
X126491300Y-35597559D01*
X126480264Y-35579146D01*
X126471085Y-35559740D01*
X126463853Y-35539528D01*
X126458637Y-35518704D01*
X126455487Y-35497469D01*
X126454434Y-35476028D01*
X126454434Y-35038528D01*
X126455487Y-35017087D01*
X126458637Y-34995852D01*
X126463853Y-34975028D01*
X126471085Y-34954816D01*
X126480264Y-34935410D01*
X126491300Y-34916997D01*
X126504088Y-34899754D01*
X126518504Y-34883848D01*
X126534410Y-34869432D01*
X126551653Y-34856644D01*
X126570066Y-34845608D01*
X126589472Y-34836429D01*
X126609684Y-34829197D01*
X126630508Y-34823981D01*
X126651743Y-34820831D01*
X126673184Y-34819778D01*
X127185684Y-34819778D01*
X127207125Y-34820831D01*
X127207125Y-34820831D01*
G37*
D13*
X126929434Y-35257278D03*
G04 #@! TD*
D12*
G04 #@! TO.C,R2*
G36*
X133494625Y-36895831D02*
X133515860Y-36898981D01*
X133536684Y-36904197D01*
X133556896Y-36911429D01*
X133576302Y-36920608D01*
X133594715Y-36931644D01*
X133611958Y-36944432D01*
X133627864Y-36958848D01*
X133642280Y-36974754D01*
X133655068Y-36991997D01*
X133666104Y-37010410D01*
X133675283Y-37029816D01*
X133682515Y-37050028D01*
X133687731Y-37070852D01*
X133690881Y-37092087D01*
X133691934Y-37113528D01*
X133691934Y-37626028D01*
X133690881Y-37647469D01*
X133687731Y-37668704D01*
X133682515Y-37689528D01*
X133675283Y-37709740D01*
X133666104Y-37729146D01*
X133655068Y-37747559D01*
X133642280Y-37764802D01*
X133627864Y-37780708D01*
X133611958Y-37795124D01*
X133594715Y-37807912D01*
X133576302Y-37818948D01*
X133556896Y-37828127D01*
X133536684Y-37835359D01*
X133515860Y-37840575D01*
X133494625Y-37843725D01*
X133473184Y-37844778D01*
X133035684Y-37844778D01*
X133014243Y-37843725D01*
X132993008Y-37840575D01*
X132972184Y-37835359D01*
X132951972Y-37828127D01*
X132932566Y-37818948D01*
X132914153Y-37807912D01*
X132896910Y-37795124D01*
X132881004Y-37780708D01*
X132866588Y-37764802D01*
X132853800Y-37747559D01*
X132842764Y-37729146D01*
X132833585Y-37709740D01*
X132826353Y-37689528D01*
X132821137Y-37668704D01*
X132817987Y-37647469D01*
X132816934Y-37626028D01*
X132816934Y-37113528D01*
X132817987Y-37092087D01*
X132821137Y-37070852D01*
X132826353Y-37050028D01*
X132833585Y-37029816D01*
X132842764Y-37010410D01*
X132853800Y-36991997D01*
X132866588Y-36974754D01*
X132881004Y-36958848D01*
X132896910Y-36944432D01*
X132914153Y-36931644D01*
X132932566Y-36920608D01*
X132951972Y-36911429D01*
X132972184Y-36904197D01*
X132993008Y-36898981D01*
X133014243Y-36895831D01*
X133035684Y-36894778D01*
X133473184Y-36894778D01*
X133494625Y-36895831D01*
X133494625Y-36895831D01*
G37*
D13*
X133254434Y-37369778D03*
D12*
G36*
X131919625Y-36895831D02*
X131940860Y-36898981D01*
X131961684Y-36904197D01*
X131981896Y-36911429D01*
X132001302Y-36920608D01*
X132019715Y-36931644D01*
X132036958Y-36944432D01*
X132052864Y-36958848D01*
X132067280Y-36974754D01*
X132080068Y-36991997D01*
X132091104Y-37010410D01*
X132100283Y-37029816D01*
X132107515Y-37050028D01*
X132112731Y-37070852D01*
X132115881Y-37092087D01*
X132116934Y-37113528D01*
X132116934Y-37626028D01*
X132115881Y-37647469D01*
X132112731Y-37668704D01*
X132107515Y-37689528D01*
X132100283Y-37709740D01*
X132091104Y-37729146D01*
X132080068Y-37747559D01*
X132067280Y-37764802D01*
X132052864Y-37780708D01*
X132036958Y-37795124D01*
X132019715Y-37807912D01*
X132001302Y-37818948D01*
X131981896Y-37828127D01*
X131961684Y-37835359D01*
X131940860Y-37840575D01*
X131919625Y-37843725D01*
X131898184Y-37844778D01*
X131460684Y-37844778D01*
X131439243Y-37843725D01*
X131418008Y-37840575D01*
X131397184Y-37835359D01*
X131376972Y-37828127D01*
X131357566Y-37818948D01*
X131339153Y-37807912D01*
X131321910Y-37795124D01*
X131306004Y-37780708D01*
X131291588Y-37764802D01*
X131278800Y-37747559D01*
X131267764Y-37729146D01*
X131258585Y-37709740D01*
X131251353Y-37689528D01*
X131246137Y-37668704D01*
X131242987Y-37647469D01*
X131241934Y-37626028D01*
X131241934Y-37113528D01*
X131242987Y-37092087D01*
X131246137Y-37070852D01*
X131251353Y-37050028D01*
X131258585Y-37029816D01*
X131267764Y-37010410D01*
X131278800Y-36991997D01*
X131291588Y-36974754D01*
X131306004Y-36958848D01*
X131321910Y-36944432D01*
X131339153Y-36931644D01*
X131357566Y-36920608D01*
X131376972Y-36911429D01*
X131397184Y-36904197D01*
X131418008Y-36898981D01*
X131439243Y-36895831D01*
X131460684Y-36894778D01*
X131898184Y-36894778D01*
X131919625Y-36895831D01*
X131919625Y-36895831D01*
G37*
D13*
X131679434Y-37369778D03*
G04 #@! TD*
D12*
G04 #@! TO.C,C10*
G36*
X120253938Y-38720982D02*
X120278207Y-38724582D01*
X120302005Y-38730543D01*
X120325105Y-38738808D01*
X120347283Y-38749298D01*
X120368327Y-38761911D01*
X120388032Y-38776525D01*
X120406211Y-38793001D01*
X120422687Y-38811180D01*
X120437301Y-38830885D01*
X120449914Y-38851929D01*
X120460404Y-38874107D01*
X120468669Y-38897207D01*
X120474630Y-38921005D01*
X120478230Y-38945274D01*
X120479434Y-38969778D01*
X120479434Y-41069778D01*
X120478230Y-41094282D01*
X120474630Y-41118551D01*
X120468669Y-41142349D01*
X120460404Y-41165449D01*
X120449914Y-41187627D01*
X120437301Y-41208671D01*
X120422687Y-41228376D01*
X120406211Y-41246555D01*
X120388032Y-41263031D01*
X120368327Y-41277645D01*
X120347283Y-41290258D01*
X120325105Y-41300748D01*
X120302005Y-41309013D01*
X120278207Y-41314974D01*
X120253938Y-41318574D01*
X120229434Y-41319778D01*
X119129434Y-41319778D01*
X119104930Y-41318574D01*
X119080661Y-41314974D01*
X119056863Y-41309013D01*
X119033763Y-41300748D01*
X119011585Y-41290258D01*
X118990541Y-41277645D01*
X118970836Y-41263031D01*
X118952657Y-41246555D01*
X118936181Y-41228376D01*
X118921567Y-41208671D01*
X118908954Y-41187627D01*
X118898464Y-41165449D01*
X118890199Y-41142349D01*
X118884238Y-41118551D01*
X118880638Y-41094282D01*
X118879434Y-41069778D01*
X118879434Y-38969778D01*
X118880638Y-38945274D01*
X118884238Y-38921005D01*
X118890199Y-38897207D01*
X118898464Y-38874107D01*
X118908954Y-38851929D01*
X118921567Y-38830885D01*
X118936181Y-38811180D01*
X118952657Y-38793001D01*
X118970836Y-38776525D01*
X118990541Y-38761911D01*
X119011585Y-38749298D01*
X119033763Y-38738808D01*
X119056863Y-38730543D01*
X119080661Y-38724582D01*
X119104930Y-38720982D01*
X119129434Y-38719778D01*
X120229434Y-38719778D01*
X120253938Y-38720982D01*
X120253938Y-38720982D01*
G37*
D31*
X119679434Y-40019778D03*
D12*
G36*
X120253938Y-35120982D02*
X120278207Y-35124582D01*
X120302005Y-35130543D01*
X120325105Y-35138808D01*
X120347283Y-35149298D01*
X120368327Y-35161911D01*
X120388032Y-35176525D01*
X120406211Y-35193001D01*
X120422687Y-35211180D01*
X120437301Y-35230885D01*
X120449914Y-35251929D01*
X120460404Y-35274107D01*
X120468669Y-35297207D01*
X120474630Y-35321005D01*
X120478230Y-35345274D01*
X120479434Y-35369778D01*
X120479434Y-37469778D01*
X120478230Y-37494282D01*
X120474630Y-37518551D01*
X120468669Y-37542349D01*
X120460404Y-37565449D01*
X120449914Y-37587627D01*
X120437301Y-37608671D01*
X120422687Y-37628376D01*
X120406211Y-37646555D01*
X120388032Y-37663031D01*
X120368327Y-37677645D01*
X120347283Y-37690258D01*
X120325105Y-37700748D01*
X120302005Y-37709013D01*
X120278207Y-37714974D01*
X120253938Y-37718574D01*
X120229434Y-37719778D01*
X119129434Y-37719778D01*
X119104930Y-37718574D01*
X119080661Y-37714974D01*
X119056863Y-37709013D01*
X119033763Y-37700748D01*
X119011585Y-37690258D01*
X118990541Y-37677645D01*
X118970836Y-37663031D01*
X118952657Y-37646555D01*
X118936181Y-37628376D01*
X118921567Y-37608671D01*
X118908954Y-37587627D01*
X118898464Y-37565449D01*
X118890199Y-37542349D01*
X118884238Y-37518551D01*
X118880638Y-37494282D01*
X118879434Y-37469778D01*
X118879434Y-35369778D01*
X118880638Y-35345274D01*
X118884238Y-35321005D01*
X118890199Y-35297207D01*
X118898464Y-35274107D01*
X118908954Y-35251929D01*
X118921567Y-35230885D01*
X118936181Y-35211180D01*
X118952657Y-35193001D01*
X118970836Y-35176525D01*
X118990541Y-35161911D01*
X119011585Y-35149298D01*
X119033763Y-35138808D01*
X119056863Y-35130543D01*
X119080661Y-35124582D01*
X119104930Y-35120982D01*
X119129434Y-35119778D01*
X120229434Y-35119778D01*
X120253938Y-35120982D01*
X120253938Y-35120982D01*
G37*
D31*
X119679434Y-36419778D03*
G04 #@! TD*
D12*
G04 #@! TO.C,C9*
G36*
X124103938Y-29970982D02*
X124128207Y-29974582D01*
X124152005Y-29980543D01*
X124175105Y-29988808D01*
X124197283Y-29999298D01*
X124218327Y-30011911D01*
X124238032Y-30026525D01*
X124256211Y-30043001D01*
X124272687Y-30061180D01*
X124287301Y-30080885D01*
X124299914Y-30101929D01*
X124310404Y-30124107D01*
X124318669Y-30147207D01*
X124324630Y-30171005D01*
X124328230Y-30195274D01*
X124329434Y-30219778D01*
X124329434Y-31319778D01*
X124328230Y-31344282D01*
X124324630Y-31368551D01*
X124318669Y-31392349D01*
X124310404Y-31415449D01*
X124299914Y-31437627D01*
X124287301Y-31458671D01*
X124272687Y-31478376D01*
X124256211Y-31496555D01*
X124238032Y-31513031D01*
X124218327Y-31527645D01*
X124197283Y-31540258D01*
X124175105Y-31550748D01*
X124152005Y-31559013D01*
X124128207Y-31564974D01*
X124103938Y-31568574D01*
X124079434Y-31569778D01*
X121979434Y-31569778D01*
X121954930Y-31568574D01*
X121930661Y-31564974D01*
X121906863Y-31559013D01*
X121883763Y-31550748D01*
X121861585Y-31540258D01*
X121840541Y-31527645D01*
X121820836Y-31513031D01*
X121802657Y-31496555D01*
X121786181Y-31478376D01*
X121771567Y-31458671D01*
X121758954Y-31437627D01*
X121748464Y-31415449D01*
X121740199Y-31392349D01*
X121734238Y-31368551D01*
X121730638Y-31344282D01*
X121729434Y-31319778D01*
X121729434Y-30219778D01*
X121730638Y-30195274D01*
X121734238Y-30171005D01*
X121740199Y-30147207D01*
X121748464Y-30124107D01*
X121758954Y-30101929D01*
X121771567Y-30080885D01*
X121786181Y-30061180D01*
X121802657Y-30043001D01*
X121820836Y-30026525D01*
X121840541Y-30011911D01*
X121861585Y-29999298D01*
X121883763Y-29988808D01*
X121906863Y-29980543D01*
X121930661Y-29974582D01*
X121954930Y-29970982D01*
X121979434Y-29969778D01*
X124079434Y-29969778D01*
X124103938Y-29970982D01*
X124103938Y-29970982D01*
G37*
D31*
X123029434Y-30769778D03*
D12*
G36*
X120503938Y-29970982D02*
X120528207Y-29974582D01*
X120552005Y-29980543D01*
X120575105Y-29988808D01*
X120597283Y-29999298D01*
X120618327Y-30011911D01*
X120638032Y-30026525D01*
X120656211Y-30043001D01*
X120672687Y-30061180D01*
X120687301Y-30080885D01*
X120699914Y-30101929D01*
X120710404Y-30124107D01*
X120718669Y-30147207D01*
X120724630Y-30171005D01*
X120728230Y-30195274D01*
X120729434Y-30219778D01*
X120729434Y-31319778D01*
X120728230Y-31344282D01*
X120724630Y-31368551D01*
X120718669Y-31392349D01*
X120710404Y-31415449D01*
X120699914Y-31437627D01*
X120687301Y-31458671D01*
X120672687Y-31478376D01*
X120656211Y-31496555D01*
X120638032Y-31513031D01*
X120618327Y-31527645D01*
X120597283Y-31540258D01*
X120575105Y-31550748D01*
X120552005Y-31559013D01*
X120528207Y-31564974D01*
X120503938Y-31568574D01*
X120479434Y-31569778D01*
X118379434Y-31569778D01*
X118354930Y-31568574D01*
X118330661Y-31564974D01*
X118306863Y-31559013D01*
X118283763Y-31550748D01*
X118261585Y-31540258D01*
X118240541Y-31527645D01*
X118220836Y-31513031D01*
X118202657Y-31496555D01*
X118186181Y-31478376D01*
X118171567Y-31458671D01*
X118158954Y-31437627D01*
X118148464Y-31415449D01*
X118140199Y-31392349D01*
X118134238Y-31368551D01*
X118130638Y-31344282D01*
X118129434Y-31319778D01*
X118129434Y-30219778D01*
X118130638Y-30195274D01*
X118134238Y-30171005D01*
X118140199Y-30147207D01*
X118148464Y-30124107D01*
X118158954Y-30101929D01*
X118171567Y-30080885D01*
X118186181Y-30061180D01*
X118202657Y-30043001D01*
X118220836Y-30026525D01*
X118240541Y-30011911D01*
X118261585Y-29999298D01*
X118283763Y-29988808D01*
X118306863Y-29980543D01*
X118330661Y-29974582D01*
X118354930Y-29970982D01*
X118379434Y-29969778D01*
X120479434Y-29969778D01*
X120503938Y-29970982D01*
X120503938Y-29970982D01*
G37*
D31*
X119429434Y-30769778D03*
G04 #@! TD*
D32*
G04 #@! TO.C,U5*
X115579434Y-37269778D03*
X115579434Y-32669778D03*
X115579434Y-34969778D03*
D33*
X109279434Y-34969778D03*
G04 #@! TD*
M02*
